blackcompressed.ufo
<glyph name="quotedbl" format="1">
  <advance width="394"/>
  <unicode hex="0022"/>
  <outline>
    <contour>
      <point x="181" y="658"/>
      <point x="38" y="658"/>
      <point x="181" y="658" type="curve"/>
      <point x="181" y="720.66604"/>
      <point x="181" y="783.33396"/>
      <point x="181" y="846" type="curve"/>
      <point x="38" y="846"/>
      <point x="181" y="846"/>
      <point x="38" y="846" type="curve"/>
      <point x="38.0" y="783.33396"/>
      <point x="38.0" y="720.66604"/>
      <point x="38" y="658" type="curve"/>
    </contour>
    <contour>
      <point x="368" y="658"/>
      <point x="231" y="658"/>
      <point x="368" y="658" type="curve"/>
      <point x="368" y="721"/>
      <point x="368" y="783"/>
      <point x="368" y="846" type="curve"/>
      <point x="231" y="846"/>
      <point x="368" y="846"/>
      <point x="231" y="846" type="curve"/>
      <point x="231" y="783"/>
      <point x="231" y="721"/>
      <point x="231" y="658" type="curve"/>
    </contour>
  </outline>
</glyph>
<glyph name="quotesingle" format="1">
  <advance width="232"/>
  <unicode hex="0027"/>
  <outline>
    <contour>
      <point x="181" y="658"/>
      <point x="38" y="658"/>
      <point x="181" y="658" type="curve"/>
      <point x="181" y="720.66604"/>
      <point x="181" y="783.33396"/>
      <point x="181" y="846" type="curve"/>
      <point x="38" y="846"/>
      <point x="181" y="846"/>
      <point x="38" y="846" type="curve"/>
      <point x="38.0" y="783.33396"/>
      <point x="38.0" y="720.66604"/>
      <point x="38" y="658" type="curve"/>
    </contour>
  </outline>
</glyph>
<glyph name="parenleft" format="1">
  <advance width="356"/>
  <unicode hex="0028"/>
  <outline>
    <contour>
      <point x="312.625" y="-204.325"/>
      <point x="228.125" y="-281.675"/>
      <point x="312.625" y="-204.325" type="curve"/>
      <point x="185.922407194" y="-37.4125438322"/>
      <point x="155" y="116"/>
      <point x="155" y="326" type="curve"/>
      <point x="155" y="537"/>
      <point x="186.707579408" y="689.527205153"/>
      <point x="311.875" y="859.5875" type="curve"/>
      <point x="227.375" y="931.4125"/>
      <point x="311.875" y="859.5875"/>
      <point x="227.375" y="931.4125" type="curve"/>
      <point x="79.2414854403" y="737.47925147"/>
      <point x="15.625" y="570.946789899"/>
      <point x="15.625" y="326" type="curve"/>
      <point x="15.625" y="80.2704075991"/>
      <point x="79.726908355" y="-86.1103259511"/>
      <point x="228.125" y="-281.675" type="curve"/>
    </contour>
  </outline>
</glyph>
<glyph name="comma" format="1">
  <advance width="298"/>
  <unicode hex="002C"/>
  <outline>
    <contour>
      <point x="177" y="-99"/>
      <point x="34" y="-99"/>
      <point x="177" y="-99" type="curve"/>
      <point x="277" y="82"/>
      <point x="177" y="-99"/>
      <point x="277" y="82" type="curve"/>
      <point x="95" y="82"/>
      <point x="277" y="82"/>
      <point x="95" y="82" type="curve"/>
      <point x="34" y="-99"/>
      <point x="95" y="82"/>
      <point x="34" y="-99" type="curve"/>
    </contour>
  </outline>
</glyph>
<glyph name="slash" format="1">
  <advance width="559"/>
  <unicode hex="002F"/>
  <outline>
    <contour>
      <point x="185" y="-13"/>
      <point x="42" y="-13"/>
      <point x="185" y="-13" type="curve"/>
      <point x="291" y="252"/>
      <point x="398" y="517"/>
      <point x="504" y="782" type="curve"/>
      <point x="361" y="782"/>
      <point x="504" y="782"/>
      <point x="361" y="782" type="curve"/>
      <point x="255" y="517"/>
      <point x="148" y="252"/>
      <point x="42" y="-13" type="curve"/>
    </contour>
  </outline>
</glyph>
<glyph name="one" format="1">
  <advance width="397"/>
  <unicode hex="0031"/>
  <outline>
    <contour>
      <point x="239" y="0"/>
      <point x="239" y="111"/>
      <point x="239" y="0" type="curve"/>
      <point x="284" y="0"/>
      <point x="330" y="0"/>
      <point x="376" y="0" type="curve"/>
      <point x="376" y="111"/>
      <point x="376" y="0"/>
      <point x="376" y="111" type="curve"/>
      <point x="239" y="111"/>
      <point x="376" y="111"/>
      <point x="239" y="111" type="curve"/>
    </contour>
    <contour>
      <point x="239" y="111"/>
      <point x="239" y="0"/>
      <point x="239" y="111" type="curve"/>
      <point x="101" y="111"/>
      <point x="239" y="111"/>
      <point x="101" y="111" type="curve"/>
      <point x="101" y="0"/>
      <point x="101" y="111"/>
      <point x="101" y="0" type="curve"/>
      <point x="147" y="0"/>
      <point x="193" y="0"/>
      <point x="239" y="0" type="curve"/>
    </contour>
    <contour>
      <point x="84" y="475"/>
      <point x="10" y="565"/>
      <point x="84" y="475" type="curve"/>
      <point x="270" y="648"/>
      <point x="84" y="475"/>
      <point x="270" y="648" type="curve"/>
      <point x="166" y="722"/>
      <point x="270" y="648"/>
      <point x="166" y="722" type="curve"/>
      <point x="10" y="565"/>
      <point x="166" y="722"/>
      <point x="10" y="565" type="curve"/>
    </contour>
    <contour>
      <point x="309" y="0"/>
      <point x="166" y="0"/>
      <point x="309" y="0" type="curve"/>
      <point x="309" y="241"/>
      <point x="309" y="481"/>
      <point x="309" y="722" type="curve"/>
      <point x="166" y="722"/>
      <point x="309" y="722"/>
      <point x="166" y="722" type="curve"/>
      <point x="166" y="481"/>
      <point x="166" y="241"/>
      <point x="166" y="0" type="curve"/>
    </contour>
  </outline>
</glyph>
<glyph name="six" format="1">
  <advance width="518"/>
  <unicode hex="0036"/>
  <outline>
    <contour>
      <point x="149" y="224"/>
      <point x="82" y="252"/>
      <point x="149" y="224" type="curve"/>
      <point x="164" y="287"/>
      <point x="198" y="335"/>
      <point x="261" y="335" type="curve"/>
      <point x="319" y="335"/>
      <point x="336" y="285"/>
      <point x="336" y="220" type="curve"/>
      <point x="336" y="164"/>
      <point x="318" y="120"/>
      <point x="268" y="120" type="curve"/>
      <point x="196" y="120"/>
      <point x="169" y="180"/>
      <point x="169" y="260" type="curve"/>
      <point x="169" y="446"/>
      <point x="261" y="560"/>
      <point x="447" y="625" type="curve"/>
      <point x="408" y="728"/>
      <point x="447" y="625"/>
      <point x="408" y="728" type="curve"/>
      <point x="170" y="648"/>
      <point x="32" y="502"/>
      <point x="32" y="254" type="curve"/>
      <point x="32" y="96"/>
      <point x="112" y="-12"/>
      <point x="262" y="-12" type="curve"/>
      <point x="401" y="-12"/>
      <point x="479" y="83"/>
      <point x="479" y="226" type="curve"/>
      <point x="479" y="363"/>
      <point x="402" y="451"/>
      <point x="269" y="451" type="curve"/>
      <point x="150" y="451"/>
      <point x="87" y="332"/>
      <point x="82" y="252" type="curve"/>
    </contour>
  </outline>
</glyph>
<glyph name="seven" format="1">
  <advance width="470"/>
  <unicode hex="0037"/>
  <outline>
    <contour>
      <point x="159" y="511" type="curve"/>
      <point x="159" y="632"/>
      <point x="159" y="491"/>
      <point x="159" y="612" type="curve"/>
      <point x="47" y="612"/>
      <point x="159" y="612"/>
      <point x="47" y="612" type="curve"/>
      <point x="47" y="491"/>
      <point x="47" y="632"/>
      <point x="47" y="511" type="curve"/>
      <point x="159" y="511"/>
      <point x="47" y="511"/>
    </contour>
    <contour>
      <point x="47" y="612"/>
      <point x="47" y="722"/>
      <point x="47" y="612" type="curve"/>
      <point x="177" y="612"/>
      <point x="227" y="612"/>
      <point x="441" y="612" type="curve"/>
      <point x="441" y="722"/>
      <point x="441" y="612"/>
      <point x="441" y="722" type="curve"/>
      <point x="259" y="722"/>
      <point x="151" y="722"/>
      <point x="47" y="722" type="curve"/>
    </contour>
    <contour>
      <point x="359" y="722"/>
      <point x="441" y="612"/>
      <point x="359" y="722" type="curve"/>
      <point x="33" y="0"/>
      <point x="359" y="722"/>
      <point x="33" y="0" type="curve"/>
      <point x="175" y="0"/>
      <point x="33" y="0"/>
      <point x="175" y="0" type="curve"/>
      <point x="441" y="612"/>
      <point x="175" y="0"/>
      <point x="441" y="612" type="curve"/>
    </contour>
  </outline>
</glyph>
<glyph name="A" format="1">
  <advance width="719"/>
  <unicode hex="0041"/>
  <outline>
    <contour>
      <point x="156" y="110"/>
      <point x="155" y="0"/>
      <point x="156" y="110" type="curve"/>
      <point x="18" y="110"/>
      <point x="156" y="110"/>
      <point x="18" y="110" type="curve"/>
      <point x="18" y="0"/>
      <point x="18" y="110"/>
      <point x="18" y="0" type="curve"/>
      <point x="64" y="0"/>
      <point x="110" y="0"/>
      <point x="155" y="0" type="curve"/>
    </contour>
    <contour>
      <point x="156" y="0"/>
      <point x="156" y="110"/>
      <point x="156" y="0" type="curve"/>
      <point x="212" y="0"/>
      <point x="156" y="0"/>
      <point x="325" y="0" type="curve"/>
      <point x="325" y="110"/>
      <point x="325" y="0"/>
      <point x="325" y="110" type="curve"/>
      <point x="156" y="110"/>
      <point x="325" y="110"/>
      <point x="156" y="110" type="curve"/>
    </contour>
    <contour>
      <point x="566" y="0"/>
      <point x="566" y="110"/>
      <point x="566" y="0" type="curve"/>
      <point x="611" y="0"/>
      <point x="657" y="0"/>
      <point x="703" y="0" type="curve"/>
      <point x="703" y="110"/>
      <point x="703" y="0"/>
      <point x="703" y="110" type="curve"/>
      <point x="566" y="110"/>
      <point x="703" y="110"/>
      <point x="566" y="110" type="curve"/>
    </contour>
    <contour>
      <point x="566" y="110"/>
      <point x="566" y="0"/>
      <point x="566" y="110" type="curve"/>
      <point x="396" y="110"/>
      <point x="566" y="110"/>
      <point x="396" y="110" type="curve"/>
      <point x="396" y="0"/>
      <point x="396" y="110"/>
      <point x="396" y="0" type="curve"/>
      <point x="453" y="0"/>
      <point x="509" y="0"/>
      <point x="566" y="0" type="curve"/>
    </contour>
    <contour>
      <point x="478" y="324"/>
      <point x="524" y="207"/>
      <point x="478" y="324" type="curve"/>
      <point x="406" y="324"/>
      <point x="333" y="324"/>
      <point x="261" y="324" type="curve"/>
      <point x="202" y="207"/>
      <point x="261" y="324"/>
      <point x="202" y="207" type="curve"/>
      <point x="309" y="207"/>
      <point x="417" y="207"/>
      <point x="524" y="207" type="curve"/>
    </contour>
    <contour>
      <point x="649" y="0"/>
      <point x="500" y="0"/>
      <point x="649" y="0" type="curve"/>
      <point x="581" y="241"/>
      <point x="506" y="481"/>
      <point x="438" y="722" type="curve"/>
      <point x="308" y="722"/>
      <point x="438" y="722"/>
      <point x="308" y="722" type="curve"/>
      <point x="374" y="482"/>
      <point x="433" y="240"/>
      <point x="500" y="0" type="curve"/>
    </contour>
    <contour>
      <point x="225" y="0"/>
      <point x="69" y="0"/>
      <point x="225" y="0" type="curve"/>
      <point x="299" y="240"/>
      <point x="362" y="482"/>
      <point x="437" y="722" type="curve"/>
      <point x="307" y="722"/>
      <point x="437" y="722"/>
      <point x="307" y="722" type="curve"/>
      <point x="231" y="480"/>
      <point x="144" y="242"/>
      <point x="69" y="0" type="curve"/>
    </contour>
  </outline>
</glyph>
<glyph name="B" format="1">
  <advance width="569"/>
  <unicode hex="0042"/>
  <outline>
    <contour>
      <point x="168" y="722"/>
      <point x="168" y="612"/>
      <point x="168" y="722" type="curve"/>
      <point x="122" y="722"/>
      <point x="76" y="722"/>
      <point x="31" y="722" type="curve"/>
      <point x="31" y="612"/>
      <point x="31" y="722"/>
      <point x="31" y="612" type="curve"/>
      <point x="168" y="612"/>
      <point x="31" y="612"/>
      <point x="168" y="612" type="curve"/>
    </contour>
    <contour>
      <point x="167" y="110"/>
      <point x="167" y="0"/>
      <point x="167" y="110" type="curve"/>
      <point x="30" y="110"/>
      <point x="167" y="110"/>
      <point x="30" y="110" type="curve"/>
      <point x="30" y="0"/>
      <point x="30" y="110"/>
      <point x="30" y="0" type="curve"/>
      <point x="76" y="0"/>
      <point x="122" y="0"/>
      <point x="167" y="0" type="curve"/>
    </contour>
    <contour>
      <point x="160" y="680"/>
      <point x="160" y="654"/>
      <point x="160" y="612" type="curve"/>
      <point x="214" y="612"/>
      <point x="249" y="612"/>
      <point x="303" y="612" type="curve"/>
      <point x="345" y="612"/>
      <point x="361" y="577"/>
      <point x="361" y="530" type="curve"/>
      <point x="361" y="489"/>
      <point x="345" y="459"/>
      <point x="307" y="459" type="curve"/>
      <point x="252" y="459"/>
      <point x="215" y="459"/>
      <point x="160" y="459" type="curve"/>
      <point x="160" y="417"/>
      <point x="160" y="390"/>
      <point x="160" y="348" type="curve"/>
      <point x="194" y="348"/>
      <point x="216" y="348"/>
      <point x="250" y="348" type="curve"/>
      <point x="368" y="348"/>
      <point x="502" y="398"/>
      <point x="502" y="530" type="curve"/>
      <point x="502" y="652"/>
      <point x="427" y="722"/>
      <point x="303" y="722" type="curve"/>
      <point x="249" y="722"/>
      <point x="214" y="722"/>
      <point x="160" y="722" type="curve"/>
    </contour>
    <contour>
      <point x="243" y="0"/>
      <point x="94" y="0"/>
      <point x="243" y="0" type="curve"/>
      <point x="243" y="241"/>
      <point x="243" y="481"/>
      <point x="243" y="722" type="curve"/>
      <point x="94" y="722"/>
      <point x="243" y="722"/>
      <point x="94" y="722" type="curve"/>
      <point x="94" y="481"/>
      <point x="94" y="241"/>
      <point x="94" y="0" type="curve"/>
    </contour>
    <contour>
      <point x="160" y="417"/>
      <point x="160" y="390"/>
      <point x="160" y="348" type="curve"/>
      <point x="215" y="348"/>
      <point x="252" y="348"/>
      <point x="307" y="348" type="curve"/>
      <point x="371" y="348"/>
      <point x="396" y="295"/>
      <point x="396" y="224" type="curve"/>
      <point x="396" y="157"/>
      <point x="369" y="110"/>
      <point x="308" y="110" type="curve"/>
      <point x="252" y="110"/>
      <point x="216" y="110"/>
      <point x="160" y="110" type="curve"/>
      <point x="160" y="68"/>
      <point x="160" y="42"/>
      <point x="160" y="0" type="curve"/>
      <point x="216" y="0"/>
      <point x="252" y="0"/>
      <point x="308" y="0" type="curve"/>
      <point x="451" y="0"/>
      <point x="539" y="82"/>
      <point x="539" y="224" type="curve"/>
      <point x="539" y="383"/>
      <point x="406" y="459"/>
      <point x="250" y="459" type="curve"/>
      <point x="216" y="459"/>
      <point x="194" y="459"/>
      <point x="160" y="459" type="curve"/>
    </contour>
  </outline>
</glyph>
<glyph name="E" format="1">
  <advance width="540"/>
  <unicode hex="0045"/>
  <outline>
    <contour>
      <point x="495" y="55"/>
      <point x="383" y="55"/>
      <point x="495" y="55" type="curve"/>
      <point x="495" y="175"/>
      <point x="495" y="55"/>
      <point x="495" y="175" type="curve"/>
      <point x="383" y="175"/>
      <point x="495" y="175"/>
      <point x="383" y="175" type="curve"/>
      <point x="383" y="55"/>
      <point x="383" y="175"/>
      <point x="383" y="55" type="curve"/>
    </contour>
    <contour>
      <point x="358" y="667"/>
      <point x="470" y="667"/>
      <point x="358" y="667" type="curve"/>
      <point x="358" y="547"/>
      <point x="358" y="667"/>
      <point x="358" y="547" type="curve"/>
      <point x="470" y="547"/>
      <point x="358" y="547"/>
      <point x="470" y="547" type="curve"/>
      <point x="470" y="667"/>
      <point x="470" y="547"/>
      <point x="470" y="667" type="curve"/>
    </contour>
    <contour>
      <point x="174" y="110"/>
      <point x="174" y="0"/>
      <point x="174" y="110" type="curve"/>
      <point x="37" y="110"/>
      <point x="174" y="110"/>
      <point x="37" y="110" type="curve"/>
      <point x="37" y="0"/>
      <point x="37" y="110"/>
      <point x="37" y="0" type="curve"/>
      <point x="83" y="0"/>
      <point x="129" y="0"/>
      <point x="174" y="0" type="curve"/>
    </contour>
    <contour>
      <point x="174" y="722"/>
      <point x="174" y="612"/>
      <point x="174" y="722" type="curve"/>
      <point x="129" y="722"/>
      <point x="83" y="722"/>
      <point x="37" y="722" type="curve"/>
      <point x="37" y="612"/>
      <point x="37" y="722"/>
      <point x="37" y="612" type="curve"/>
      <point x="174" y="612"/>
      <point x="37" y="612"/>
      <point x="174" y="612" type="curve"/>
    </contour>
    <contour>
      <point x="177" y="317"/>
      <point x="177" y="428"/>
      <point x="177" y="317" type="curve"/>
      <point x="258" y="317"/>
      <point x="341" y="317"/>
      <point x="423" y="317" type="curve"/>
      <point x="423" y="428"/>
      <point x="423" y="317"/>
      <point x="423" y="428" type="curve"/>
      <point x="341" y="428"/>
      <point x="258" y="428"/>
      <point x="177" y="428" type="curve"/>
    </contour>
    <contour>
      <point x="165" y="612"/>
      <point x="165" y="722"/>
      <point x="165" y="612" type="curve"/>
      <point x="267" y="612"/>
      <point x="368" y="612"/>
      <point x="470" y="612" type="curve"/>
      <point x="470" y="722"/>
      <point x="470" y="612"/>
      <point x="470" y="722" type="curve"/>
      <point x="368" y="722"/>
      <point x="267" y="722"/>
      <point x="165" y="722" type="curve"/>
    </contour>
    <contour>
      <point x="245" y="0"/>
      <point x="102" y="0"/>
      <point x="245" y="0" type="curve"/>
      <point x="245" y="0"/>
      <point x="245" y="722"/>
      <point x="245" y="722" type="curve"/>
      <point x="102" y="722"/>
      <point x="245" y="722"/>
      <point x="102" y="722" type="curve"/>
      <point x="102" y="481"/>
      <point x="102" y="241"/>
      <point x="102" y="0" type="curve"/>
    </contour>
    <contour>
      <point x="165" y="0"/>
      <point x="165" y="110"/>
      <point x="165" y="0" type="curve"/>
      <point x="275" y="0"/>
      <point x="385" y="0"/>
      <point x="495" y="0" type="curve"/>
      <point x="495" y="110"/>
      <point x="495" y="0"/>
      <point x="495" y="110" type="curve"/>
      <point x="385" y="110"/>
      <point x="275" y="110"/>
      <point x="165" y="110" type="curve"/>
    </contour>
  </outline>
</glyph>
<glyph name="F" format="1">
  <advance width="500"/>
  <unicode hex="0046"/>
  <outline>
    <contour>
      <point x="173" y="0"/>
      <point x="173" y="110"/>
      <point x="173" y="0" type="curve"/>
      <point x="219" y="0"/>
      <point x="173" y="0"/>
      <point x="311" y="0" type="curve"/>
      <point x="311" y="110"/>
      <point x="311" y="0"/>
      <point x="311" y="110" type="curve"/>
      <point x="173" y="110"/>
      <point x="311" y="110"/>
      <point x="173" y="110" type="curve"/>
    </contour>
    <contour>
      <point x="173" y="722"/>
      <point x="173" y="612"/>
      <point x="173" y="722" type="curve"/>
      <point x="128" y="722"/>
      <point x="82" y="722"/>
      <point x="36" y="722" type="curve"/>
      <point x="36" y="612"/>
      <point x="36" y="722"/>
      <point x="36" y="612" type="curve"/>
      <point x="173" y="612"/>
      <point x="36" y="612"/>
      <point x="173" y="612" type="curve"/>
    </contour>
    <contour>
      <point x="173" y="110"/>
      <point x="173" y="0"/>
      <point x="173" y="110" type="curve"/>
      <point x="36" y="110"/>
      <point x="173" y="110"/>
      <point x="36" y="110" type="curve"/>
      <point x="36" y="0"/>
      <point x="36" y="110"/>
      <point x="36" y="0" type="curve"/>
      <point x="82" y="0"/>
      <point x="128" y="0"/>
      <point x="173" y="0" type="curve"/>
    </contour>
    <contour>
      <point x="361" y="667"/>
      <point x="473" y="667"/>
      <point x="361" y="667" type="curve"/>
      <point x="361" y="547"/>
      <point x="361" y="667"/>
      <point x="361" y="547" type="curve"/>
      <point x="473" y="547"/>
      <point x="361" y="547"/>
      <point x="473" y="547" type="curve"/>
      <point x="473" y="667"/>
      <point x="473" y="547"/>
      <point x="473" y="667" type="curve"/>
    </contour>
    <contour>
      <point x="176" y="317"/>
      <point x="176" y="428"/>
      <point x="176" y="317" type="curve"/>
      <point x="257" y="317"/>
      <point x="337" y="317"/>
      <point x="418" y="317" type="curve"/>
      <point x="418" y="428"/>
      <point x="418" y="317"/>
      <point x="418" y="428" type="curve"/>
      <point x="337" y="428"/>
      <point x="257" y="428"/>
      <point x="176" y="428" type="curve"/>
    </contour>
    <contour>
      <point x="245" y="0"/>
      <point x="102" y="0"/>
      <point x="245" y="0" type="curve"/>
      <point x="245" y="0"/>
      <point x="245" y="722"/>
      <point x="245" y="722" type="curve"/>
      <point x="102" y="722"/>
      <point x="245" y="722"/>
      <point x="102" y="722" type="curve"/>
      <point x="102" y="481"/>
      <point x="102" y="241"/>
      <point x="102" y="0" type="curve"/>
    </contour>
    <contour>
      <point x="165" y="612"/>
      <point x="165" y="722"/>
      <point x="165" y="612" type="curve"/>
      <point x="267" y="612"/>
      <point x="370" y="612"/>
      <point x="473" y="612" type="curve"/>
      <point x="473" y="722"/>
      <point x="473" y="612"/>
      <point x="473" y="722" type="curve"/>
      <point x="370" y="722"/>
      <point x="267" y="722"/>
      <point x="165" y="722" type="curve"/>
    </contour>
  </outline>
</glyph>
<glyph name="H" format="1">
  <advance width="722"/>
  <unicode hex="0048"/>
  <outline>
    <contour>
      <point x="549" y="612"/>
      <point x="549" y="722"/>
      <point x="549" y="612" type="curve"/>
      <point x="686" y="612"/>
      <point x="549" y="612"/>
      <point x="686" y="612" type="curve"/>
      <point x="686" y="722"/>
      <point x="686" y="612"/>
      <point x="686" y="722" type="curve"/>
      <point x="640" y="722"/>
      <point x="594" y="722"/>
      <point x="549" y="722" type="curve"/>
    </contour>
    <contour>
      <point x="549" y="0"/>
      <point x="549" y="110"/>
      <point x="549" y="0" type="curve"/>
      <point x="594" y="0"/>
      <point x="640" y="0"/>
      <point x="686" y="0" type="curve"/>
      <point x="686" y="110"/>
      <point x="686" y="0"/>
      <point x="686" y="110" type="curve"/>
      <point x="549" y="110"/>
      <point x="686" y="110"/>
      <point x="549" y="110" type="curve"/>
    </contour>
    <contour>
      <point x="549" y="110"/>
      <point x="549" y="0"/>
      <point x="549" y="110" type="curve"/>
      <point x="412" y="110"/>
      <point x="549" y="110"/>
      <point x="412" y="110" type="curve"/>
      <point x="412" y="0"/>
      <point x="412" y="110"/>
      <point x="412" y="0" type="curve"/>
      <point x="457" y="0"/>
      <point x="503" y="0"/>
      <point x="549" y="0" type="curve"/>
    </contour>
    <contour>
      <point x="549" y="722"/>
      <point x="549" y="612"/>
      <point x="549" y="722" type="curve"/>
      <point x="503" y="722"/>
      <point x="457" y="722"/>
      <point x="412" y="722" type="curve"/>
      <point x="412" y="612"/>
      <point x="412" y="722"/>
      <point x="412" y="612" type="curve"/>
      <point x="549" y="612"/>
      <point x="412" y="612"/>
      <point x="549" y="612" type="curve"/>
    </contour>
    <contour>
      <point x="169" y="612"/>
      <point x="169" y="722"/>
      <point x="169" y="612" type="curve"/>
      <point x="307" y="612"/>
      <point x="169" y="612"/>
      <point x="307" y="612" type="curve"/>
      <point x="307" y="722"/>
      <point x="307" y="612"/>
      <point x="307" y="722" type="curve"/>
      <point x="261" y="722"/>
      <point x="215" y="722"/>
      <point x="169" y="722" type="curve"/>
    </contour>
    <contour>
      <point x="169" y="722"/>
      <point x="169" y="612"/>
      <point x="169" y="722" type="curve"/>
      <point x="124" y="722"/>
      <point x="78" y="722"/>
      <point x="32" y="722" type="curve"/>
      <point x="32" y="612"/>
      <point x="32" y="722"/>
      <point x="32" y="612" type="curve"/>
      <point x="169" y="612"/>
      <point x="32" y="612"/>
      <point x="169" y="612" type="curve"/>
    </contour>
    <contour>
      <point x="169" y="0"/>
      <point x="169" y="110"/>
      <point x="169" y="0" type="curve"/>
      <point x="215" y="0"/>
      <point x="169" y="0"/>
      <point x="307" y="0" type="curve"/>
      <point x="307" y="110"/>
      <point x="307" y="0"/>
      <point x="307" y="110" type="curve"/>
      <point x="169" y="110"/>
      <point x="307" y="110"/>
      <point x="169" y="110" type="curve"/>
    </contour>
    <contour>
      <point x="169" y="110"/>
      <point x="169" y="0"/>
      <point x="169" y="110" type="curve"/>
      <point x="32" y="110"/>
      <point x="169" y="110"/>
      <point x="32" y="110" type="curve"/>
      <point x="32" y="0"/>
      <point x="32" y="110"/>
      <point x="32" y="0" type="curve"/>
      <point x="78" y="0"/>
      <point x="124" y="0"/>
      <point x="169" y="0" type="curve"/>
    </contour>
    <contour>
      <point x="241" y="0"/>
      <point x="98" y="0"/>
      <point x="241" y="0" type="curve"/>
      <point x="241" y="0"/>
      <point x="241" y="722"/>
      <point x="241" y="722" type="curve"/>
      <point x="98" y="722"/>
      <point x="241" y="722"/>
      <point x="98" y="722" type="curve"/>
      <point x="98" y="481"/>
      <point x="98" y="241"/>
      <point x="98" y="0" type="curve"/>
    </contour>
    <contour>
      <point x="547" y="418"/>
      <point x="547" y="307"/>
      <point x="547" y="418" type="curve"/>
      <point x="421" y="418"/>
      <point x="295" y="418"/>
      <point x="169" y="418" type="curve"/>
      <point x="169" y="307"/>
      <point x="169" y="418"/>
      <point x="169" y="307" type="curve"/>
      <point x="295" y="307"/>
      <point x="421" y="307"/>
      <point x="547" y="307" type="curve"/>
    </contour>
    <contour>
      <point x="620" y="47"/>
      <point x="477" y="47"/>
      <point x="620" y="47" type="curve"/>
      <point x="620" y="256"/>
      <point x="620" y="466"/>
      <point x="620" y="675" type="curve"/>
      <point x="477" y="675"/>
      <point x="620" y="675"/>
      <point x="477" y="675" type="curve"/>
      <point x="477" y="675"/>
      <point x="477" y="47"/>
      <point x="477" y="47" type="curve"/>
    </contour>
  </outline>
</glyph>
<glyph name="I" format="1">
  <advance width="358"/>
  <unicode hex="0049"/>
  <outline>
    <contour>
      <point x="181" y="722"/>
      <point x="181" y="612"/>
      <point x="181" y="722" type="curve"/>
      <point x="135" y="722"/>
      <point x="89" y="722"/>
      <point x="43" y="722" type="curve"/>
      <point x="43" y="612"/>
      <point x="43" y="722"/>
      <point x="43" y="612" type="curve"/>
      <point x="181" y="612"/>
      <point x="43" y="612"/>
      <point x="181" y="612" type="curve"/>
    </contour>
    <contour>
      <point x="181" y="612"/>
      <point x="181" y="722"/>
      <point x="181" y="612" type="curve"/>
      <point x="318" y="612"/>
      <point x="181" y="612"/>
      <point x="318" y="612" type="curve"/>
      <point x="318" y="722"/>
      <point x="318" y="612"/>
      <point x="318" y="722" type="curve"/>
      <point x="272" y="722"/>
      <point x="226" y="722"/>
      <point x="181" y="722" type="curve"/>
    </contour>
    <contour>
      <point x="181" y="0"/>
      <point x="181" y="110"/>
      <point x="181" y="0" type="curve"/>
      <point x="226" y="0"/>
      <point x="272" y="0"/>
      <point x="318" y="0" type="curve"/>
      <point x="318" y="110"/>
      <point x="318" y="0"/>
      <point x="318" y="110" type="curve"/>
      <point x="181" y="110"/>
      <point x="318" y="110"/>
      <point x="181" y="110" type="curve"/>
    </contour>
    <contour>
      <point x="181" y="110"/>
      <point x="181" y="0"/>
      <point x="181" y="110" type="curve"/>
      <point x="43" y="110"/>
      <point x="181" y="110"/>
      <point x="43" y="110" type="curve"/>
      <point x="43" y="0"/>
      <point x="43" y="110"/>
      <point x="43" y="0" type="curve"/>
      <point x="89" y="0"/>
      <point x="135" y="0"/>
      <point x="181" y="0" type="curve"/>
    </contour>
    <contour>
      <point x="251" y="0"/>
      <point x="108" y="0"/>
      <point x="251" y="0" type="curve"/>
      <point x="251" y="241"/>
      <point x="251" y="481"/>
      <point x="251" y="722" type="curve"/>
      <point x="108" y="722"/>
      <point x="251" y="722"/>
      <point x="108" y="722" type="curve"/>
      <point x="108" y="481"/>
      <point x="108" y="241"/>
      <point x="108" y="0" type="curve"/>
    </contour>
  </outline>
</glyph>
<glyph name="J" format="1">
  <advance width="460"/>
  <unicode hex="004A"/>
  <outline>
    <contour>
      <point x="281" y="722"/>
      <point x="281" y="612"/>
      <point x="281" y="722" type="curve"/>
      <point x="236" y="722"/>
      <point x="190" y="722"/>
      <point x="144" y="722" type="curve"/>
      <point x="144" y="612"/>
      <point x="144" y="722"/>
      <point x="144" y="612" type="curve"/>
      <point x="281" y="612"/>
      <point x="144" y="612"/>
      <point x="281" y="612" type="curve"/>
    </contour>
    <contour>
      <point x="281" y="612"/>
      <point x="281" y="722"/>
      <point x="281" y="612" type="curve"/>
      <point x="419" y="612"/>
      <point x="281" y="612"/>
      <point x="419" y="612" type="curve"/>
      <point x="419" y="722"/>
      <point x="419" y="612"/>
      <point x="419" y="722" type="curve"/>
      <point x="373" y="722"/>
      <point x="327" y="722"/>
      <point x="281" y="722" type="curve"/>
    </contour>
    <contour>
      <point x="34" y="45"/>
      <point x="99" y="133"/>
      <point x="34" y="45" type="curve"/>
      <point x="60" y="23"/>
      <point x="100" y="-4"/>
      <point x="151" y="-4" type="curve"/>
      <point x="289" y="-4"/>
      <point x="352" y="85"/>
      <point x="352" y="246" type="curve"/>
      <point x="352" y="403"/>
      <point x="352" y="564"/>
      <point x="352" y="722" type="curve"/>
      <point x="209" y="722"/>
      <point x="352" y="722"/>
      <point x="209" y="722" type="curve"/>
      <point x="209" y="564"/>
      <point x="209" y="403"/>
      <point x="209" y="246" type="curve"/>
      <point x="209" y="172"/>
      <point x="210" y="109"/>
      <point x="151" y="109" type="curve"/>
      <point x="128" y="109"/>
      <point x="116" y="121"/>
      <point x="99" y="133" type="curve"/>
    </contour>
  </outline>
</glyph>
<glyph name="P" format="1">
  <advance width="531"/>
  <unicode hex="0050"/>
  <outline>
    <contour>
      <point x="166" y="722"/>
      <point x="166" y="612"/>
      <point x="166" y="722" type="curve"/>
      <point x="121" y="722"/>
      <point x="75" y="722"/>
      <point x="29" y="722" type="curve"/>
      <point x="29" y="612"/>
      <point x="29" y="722"/>
      <point x="29" y="612" type="curve"/>
      <point x="166" y="612"/>
      <point x="29" y="612"/>
      <point x="166" y="612" type="curve"/>
    </contour>
    <contour>
      <point x="166" y="110"/>
      <point x="166" y="0"/>
      <point x="166" y="110" type="curve"/>
      <point x="29" y="110"/>
      <point x="166" y="110"/>
      <point x="29" y="110" type="curve"/>
      <point x="29" y="0"/>
      <point x="29" y="110"/>
      <point x="29" y="0" type="curve"/>
      <point x="75" y="0"/>
      <point x="121" y="0"/>
      <point x="166" y="0" type="curve"/>
    </contour>
    <contour>
      <point x="166" y="0"/>
      <point x="166" y="110"/>
      <point x="166" y="0" type="curve"/>
      <point x="212" y="0"/>
      <point x="166" y="0"/>
      <point x="304" y="0" type="curve"/>
      <point x="304" y="110"/>
      <point x="304" y="0"/>
      <point x="304" y="110" type="curve"/>
      <point x="166" y="110"/>
      <point x="304" y="110"/>
      <point x="166" y="110" type="curve"/>
    </contour>
    <contour>
      <point x="146" y="301"/>
      <point x="190" y="389"/>
      <point x="145" y="298" type="curve"/>
      <point x="187" y="273"/>
      <point x="227" y="252"/>
      <point x="277" y="252" type="curve"/>
      <point x="418" y="254"/>
      <point x="509" y="339"/>
      <point x="509" y="479" type="curve"/>
      <point x="509" y="624"/>
      <point x="417" y="722"/>
      <point x="273" y="722" type="curve"/>
      <point x="238" y="722"/>
      <point x="203" y="722"/>
      <point x="169" y="722" type="curve"/>
      <point x="169" y="612"/>
      <point x="169" y="722"/>
      <point x="169" y="612" type="curve"/>
      <point x="197" y="612"/>
      <point x="225" y="612"/>
      <point x="254" y="612" type="curve"/>
      <point x="327" y="612"/>
      <point x="366" y="552"/>
      <point x="366" y="474" type="curve"/>
      <point x="366" y="409"/>
      <point x="346" y="357"/>
      <point x="290" y="357" type="curve"/>
      <point x="250" y="357"/>
      <point x="224" y="369"/>
      <point x="190" y="389" type="curve"/>
    </contour>
    <contour>
      <point x="237" y="0"/>
      <point x="94" y="0"/>
      <point x="237" y="0" type="curve"/>
      <point x="237" y="241"/>
      <point x="237" y="481"/>
      <point x="237" y="722" type="curve"/>
      <point x="94" y="722"/>
      <point x="237" y="722"/>
      <point x="94" y="722" type="curve"/>
      <point x="94" y="481"/>
      <point x="94" y="241"/>
      <point x="94" y="0" type="curve"/>
    </contour>
  </outline>
</glyph>
<glyph name="Q" format="1">
  <advance width="675"/>
  <unicode hex="0051"/>
  <outline>
    <contour>
      <point x="286" y="27"/>
      <point x="409" y="82"/>
      <point x="286" y="27" type="curve"/>
      <point x="364" y="-141"/>
      <point x="471" y="-211"/>
      <point x="645" y="-211" type="curve"/>
      <point x="645" y="-95"/>
      <point x="645" y="-211"/>
      <point x="645" y="-95" type="curve"/>
      <point x="527" y="-95"/>
      <point x="464" y="-34"/>
      <point x="409" y="82" type="curve"/>
    </contour>
    <contour>
      <point x="195" y="360"/>
      <point x="52" y="360"/>
      <point x="195" y="360" type="curve"/>
      <point x="195" y="493"/>
      <point x="222" y="605"/>
      <point x="337" y="605" type="curve"/>
      <point x="454" y="605"/>
      <point x="487" y="495"/>
      <point x="487" y="360" type="curve"/>
      <point x="487" y="226"/>
      <point x="462" y="110"/>
      <point x="346" y="110" type="curve"/>
      <point x="227" y="111"/>
      <point x="195" y="224"/>
      <point x="195" y="360" type="curve"/>
      <point x="52" y="360"/>
      <point x="195" y="360"/>
      <point x="52" y="360" type="curve"/>
      <point x="52" y="151"/>
      <point x="147" y="-5"/>
      <point x="339" y="-5" type="curve"/>
      <point x="535" y="-5"/>
      <point x="630" y="154"/>
      <point x="630" y="366" type="curve"/>
      <point x="630" y="574"/>
      <point x="540" y="732"/>
      <point x="348" y="732" type="curve"/>
      <point x="151" y="732"/>
      <point x="52" y="572"/>
      <point x="52" y="360" type="curve"/>
    </contour>
  </outline>
</glyph>
<glyph name="Z" format="1">
  <advance width="563"/>
  <unicode hex="005A"/>
  <outline>
    <contour>
      <point x="55" y="667"/>
      <point x="167" y="667"/>
      <point x="55" y="667" type="curve"/>
      <point x="55" y="547"/>
      <point x="55" y="667"/>
      <point x="55" y="547" type="curve"/>
      <point x="167" y="547"/>
      <point x="55" y="547"/>
      <point x="167" y="547" type="curve"/>
      <point x="167" y="667"/>
      <point x="167" y="547"/>
      <point x="167" y="667" type="curve"/>
    </contour>
    <contour>
      <point x="548" y="55"/>
      <point x="436" y="55"/>
      <point x="548" y="55" type="curve"/>
      <point x="548" y="175"/>
      <point x="548" y="55"/>
      <point x="548" y="175" type="curve"/>
      <point x="436" y="175"/>
      <point x="548" y="175"/>
      <point x="436" y="175" type="curve"/>
      <point x="436" y="55"/>
      <point x="436" y="175"/>
      <point x="436" y="55" type="curve"/>
    </contour>
    <contour>
      <point x="55" y="612"/>
      <point x="55" y="722"/>
      <point x="55" y="612" type="curve"/>
      <point x="176" y="612"/>
      <point x="351" y="612"/>
      <point x="473" y="612" type="curve"/>
      <point x="461" y="622"/>
      <point x="442" y="620"/>
      <point x="431" y="631" type="curve"/>
      <point x="420" y="640"/>
      <point x="423" y="658"/>
      <point x="413" y="668" type="curve"/>
      <point x="406" y="658"/>
      <point x="390" y="668"/>
      <point x="384" y="658" type="curve"/>
      <point x="267" y="475"/>
      <point x="384" y="658"/>
      <point x="30" y="110" type="curve"/>
      <point x="30" y="54"/>
      <point x="30" y="110"/>
      <point x="30" y="54" type="curve"/>
      <point x="30" y="0"/>
      <point x="30" y="54"/>
      <point x="30" y="0" type="curve"/>
      <point x="83" y="0"/>
      <point x="30" y="0"/>
      <point x="83" y="0" type="curve"/>
      <point x="517" y="0"/>
      <point x="403" y="0"/>
      <point x="548" y="0" type="curve"/>
      <point x="548" y="110"/>
      <point x="548" y="0"/>
      <point x="548" y="110" type="curve"/>
      <point x="403" y="110"/>
      <point x="227" y="110"/>
      <point x="83" y="110" type="curve"/>
      <point x="93" y="102"/>
      <point x="109" y="103"/>
      <point x="119" y="95" type="curve"/>
      <point x="130" y="84"/>
      <point x="129" y="65"/>
      <point x="140" y="54" type="curve"/>
      <point x="147" y="64"/>
      <point x="163" y="55"/>
      <point x="170" y="64" type="curve"/>
      <point x="288" y="248"/>
      <point x="170" y="64"/>
      <point x="530" y="612" type="curve"/>
      <point x="530" y="668"/>
      <point x="530" y="612"/>
      <point x="530" y="668" type="curve"/>
      <point x="530" y="722"/>
      <point x="530" y="668"/>
      <point x="530" y="722" type="curve"/>
      <point x="473" y="722"/>
      <point x="530" y="722"/>
      <point x="473" y="722" type="curve"/>
      <point x="351" y="722"/>
      <point x="176" y="722"/>
      <point x="55" y="722" type="curve"/>
    </contour>
  </outline>
</glyph>
<glyph name="bracketleft" format="1">
  <advance width="376"/>
  <unicode hex="005B"/>
  <outline>
    <contour>
      <point x="271" y="769"/>
      <point x="271" y="648"/>
      <point x="271" y="769" type="curve"/>
      <point x="233" y="769"/>
      <point x="195" y="769"/>
      <point x="157" y="769" type="curve"/>
      <point x="141" y="769"/>
      <point x="105" y="769"/>
      <point x="90" y="769" type="curve"/>
      <point x="90" y="752"/>
      <point x="90" y="731"/>
      <point x="90" y="714" type="curve"/>
      <point x="90" y="456"/>
      <point x="90" y="199"/>
      <point x="90" y="-59" type="curve"/>
      <point x="90" y="-77"/>
      <point x="90" y="-89"/>
      <point x="90" y="-113" type="curve"/>
      <point x="105" y="-113"/>
      <point x="139" y="-113"/>
      <point x="156" y="-113" type="curve"/>
      <point x="194" y="-113"/>
      <point x="233" y="-113"/>
      <point x="271" y="-113" type="curve"/>
      <point x="271" y="9"/>
      <point x="271" y="-113"/>
      <point x="271" y="9" type="curve"/>
      <point x="233" y="9"/>
      <point x="194" y="9"/>
      <point x="156" y="9" type="curve"/>
      <point x="233" y="9"/>
      <point x="156" y="9"/>
      <point x="233" y="9" type="curve"/>
      <point x="233" y="-59"/>
      <point x="233" y="9"/>
      <point x="233" y="-59" type="curve"/>
      <point x="233" y="199"/>
      <point x="233" y="456"/>
      <point x="233" y="714" type="curve"/>
      <point x="233" y="648"/>
      <point x="233" y="714"/>
      <point x="233" y="648" type="curve"/>
      <point x="157" y="648"/>
      <point x="233" y="648"/>
      <point x="157" y="648" type="curve"/>
      <point x="195" y="648"/>
      <point x="233" y="648"/>
      <point x="271" y="648" type="curve"/>
    </contour>
  </outline>
</glyph>
<glyph name="b" format="1">
  <advance width="579"/>
  <unicode hex="0062"/>
  <outline>
    <contour>
      <point x="171" y="800"/>
      <point x="171" y="689"/>
      <point x="171" y="800" type="curve"/>
      <point x="124" y="800"/>
      <point x="79" y="800"/>
      <point x="34" y="800" type="curve"/>
      <point x="33.0000826378" y="690.009090158"/>
      <point x="33.9999586802" y="799.995454827"/>
      <point x="33" y="690" type="curve"/>
      <point x="170.999946917" y="688.992701117"/>
      <point x="32.9999992335" y="690.000000006"/>
      <point x="171" y="689" type="curve"/>
    </contour>
    <contour>
      <point x="208" y="349"/>
      <point x="148" y="396"/>
      <point x="208" y="349" type="curve"/>
      <point x="231" y="379"/>
      <point x="271" y="423"/>
      <point x="326" y="423" type="curve"/>
      <point x="399" y="423"/>
      <point x="413" y="346"/>
      <point x="413" y="261" type="curve"/>
      <point x="414" y="180"/>
      <point x="397" y="110"/>
      <point x="328" y="110" type="curve"/>
      <point x="282" y="110"/>
      <point x="249" y="130"/>
      <point x="218" y="165" type="curve"/>
      <point x="146" y="117"/>
      <point x="218" y="165"/>
      <point x="146" y="117" type="curve"/>
      <point x="193" y="47"/>
      <point x="248" y="-5"/>
      <point x="343" y="-5" type="curve"/>
      <point x="479" y="-5"/>
      <point x="556" y="112"/>
      <point x="556" y="267" type="curve"/>
      <point x="556" y="421"/>
      <point x="481" y="538"/>
      <point x="346" y="538" type="curve"/>
      <point x="249" y="538"/>
      <point x="188" y="464"/>
      <point x="148" y="396" type="curve"/>
    </contour>
    <contour>
      <point x="241" y="0"/>
      <point x="98" y="0"/>
      <point x="241" y="0" type="curve"/>
      <point x="241" y="267"/>
      <point x="241" y="533"/>
      <point x="241" y="800" type="curve"/>
      <point x="98" y="800"/>
      <point x="241" y="800"/>
      <point x="98" y="800" type="curve"/>
      <point x="98" y="533"/>
      <point x="98" y="267"/>
      <point x="98" y="0" type="curve"/>
    </contour>
    <contour>
      <point x="171" y="110"/>
      <point x="171.0" y="0.0"/>
      <point x="171" y="110" type="curve"/>
      <point x="34.0" y="110.0"/>
      <point x="171" y="110"/>
      <point x="34" y="110" type="curve"/>
      <point x="34" y="0"/>
      <point x="34.0" y="110.0"/>
      <point x="34" y="0" type="curve"/>
      <point x="79" y="0"/>
      <point x="125.333333333" y="0.0"/>
      <point x="171" y="0" type="curve"/>
    </contour>
  </outline>
</glyph>
<glyph name="c" format="1">
  <advance width="470"/>
  <unicode hex="0063"/>
  <outline>
    <contour>
      <point x="315" y="469"/>
      <point x="427" y="469"/>
      <point x="315" y="469" type="curve"/>
      <point x="315" y="349"/>
      <point x="315" y="469"/>
      <point x="315" y="349" type="curve"/>
      <point x="427" y="349"/>
      <point x="315" y="349"/>
      <point x="427" y="349" type="curve"/>
      <point x="427" y="469"/>
      <point x="427" y="349"/>
      <point x="427" y="469" type="curve"/>
    </contour>
    <contour>
      <point x="427" y="469"/>
      <point x="342" y="392"/>
      <point x="427" y="469" type="curve"/>
      <point x="385" y="507"/>
      <point x="330" y="538"/>
      <point x="271" y="538" type="curve"/>
      <point x="113" y="538"/>
      <point x="29" y="435"/>
      <point x="29" y="267" type="curve"/>
      <point x="29" y="100"/>
      <point x="108" y="-5"/>
      <point x="264" y="-5" type="curve"/>
      <point x="333" y="-5"/>
      <point x="400" y="24"/>
      <point x="438" y="95" type="curve"/>
      <point x="343" y="162"/>
      <point x="438" y="95"/>
      <point x="343" y="162" type="curve"/>
      <point x="324" y="137"/>
      <point x="302" y="110"/>
      <point x="271" y="110" type="curve"/>
      <point x="194" y="110"/>
      <point x="172" y="177"/>
      <point x="172" y="267" type="curve"/>
      <point x="172" y="356"/>
      <point x="190" y="423"/>
      <point x="265" y="423" type="curve"/>
      <point x="294" y="423"/>
      <point x="321" y="410"/>
      <point x="342" y="392" type="curve"/>
    </contour>
  </outline>
</glyph>
<glyph name="e" format="1">
  <advance width="490"/>
  <unicode hex="0065"/>
  <outline>
    <contour>
      <point x="103" y="226"/>
      <point x="103" y="336"/>
      <point x="103" y="226" type="curve"/>
      <point x="201" y="226"/>
      <point x="299" y="226"/>
      <point x="397" y="226" type="curve"/>
      <point x="458" y="226"/>
      <point x="397" y="226"/>
      <point x="458" y="226" type="curve"/>
      <point x="458" y="274"/>
      <point x="458" y="226"/>
      <point x="458" y="274" type="curve"/>
      <point x="458" y="280"/>
      <point x="458" y="286"/>
      <point x="458" y="292" type="curve"/>
      <point x="458.0" y="442.049792531"/>
      <point x="391.0" y="538.0"/>
      <point x="253" y="538" type="curve"/>
      <point x="105.0" y="538.0"/>
      <point x="31.0" y="438.078431373"/>
      <point x="31" y="278" type="curve"/>
      <point x="31.0" y="105.960431655"/>
      <point x="110.0" y="-5.0"/>
      <point x="269" y="-5" type="curve"/>
      <point x="339.0" y="-5.0"/>
      <point x="383" y="22"/>
      <point x="436" y="73" type="curve"/>
      <point x="350" y="151"/>
      <point x="436" y="73"/>
      <point x="350" y="151" type="curve"/>
      <point x="326" y="125"/>
      <point x="304" y="111"/>
      <point x="269" y="111" type="curve"/>
      <point x="188" y="111"/>
      <point x="174" y="184"/>
      <point x="174" y="278" type="curve"/>
      <point x="174" y="358"/>
      <point x="179" y="423"/>
      <point x="247" y="423" type="curve"/>
      <point x="306" y="423"/>
      <point x="322" y="372"/>
      <point x="322" y="303" type="curve"/>
      <point x="322" y="293"/>
      <point x="322" y="284"/>
      <point x="322" y="274" type="curve"/>
      <point x="334" y="286"/>
      <point x="346" y="296"/>
      <point x="358" y="308" type="curve"/>
      <point x="369" y="319"/>
      <point x="386" y="324"/>
      <point x="397" y="336" type="curve"/>
      <point x="299" y="336"/>
      <point x="201" y="336"/>
      <point x="103" y="336" type="curve"/>
    </contour>
  </outline>
</glyph>
<glyph name="g" format="1">
  <advance width="522"/>
  <unicode hex="0067"/>
  <outline>
    <contour>
      <point x="401" y="386"/>
      <point x="323" y="474"/>
      <point x="401" y="386" type="curve"/>
      <point x="433" y="405"/>
      <point x="467" y="421"/>
      <point x="499" y="440" type="curve"/>
      <point x="427" y="545"/>
      <point x="499" y="440"/>
      <point x="427" y="545" type="curve"/>
      <point x="392" y="523"/>
      <point x="359" y="497"/>
      <point x="323" y="474" type="curve"/>
    </contour>
    <contour>
      <point x="200" y="336"/>
      <point x="57" y="330"/>
      <point x="200" y="336" type="curve"/>
      <point x="200" y="384"/>
      <point x="217" y="427"/>
      <point x="260" y="427" type="curve"/>
      <point x="304" y="427"/>
      <point x="317" y="383"/>
      <point x="317" y="334" type="curve"/>
      <point x="317" y="290"/>
      <point x="304" y="250"/>
      <point x="264" y="250" type="curve"/>
      <point x="221" y="250"/>
      <point x="200" y="289"/>
      <point x="200" y="336" type="curve"/>
      <point x="57" y="330"/>
      <point x="200" y="336"/>
      <point x="57" y="330" type="curve"/>
      <point x="57" y="216"/>
      <point x="136" y="140"/>
      <point x="251" y="140" type="curve"/>
      <point x="374" y="140"/>
      <point x="460" y="218"/>
      <point x="460" y="339" type="curve"/>
      <point x="460" y="457"/>
      <point x="379" y="537"/>
      <point x="260" y="537" type="curve"/>
      <point x="137" y="537"/>
      <point x="57" y="453"/>
      <point x="57" y="330" type="curve"/>
    </contour>
    <contour>
      <point x="152" y="246"/>
      <point x="226" y="174"/>
      <point x="152" y="246" type="curve"/>
      <point x="98" y="213"/>
      <point x="60" y="174"/>
      <point x="60" y="112" type="curve"/>
      <point x="60" y="18"/>
      <point x="142" y="-24"/>
      <point x="243" y="-34" type="curve"/>
      <point x="307.079253929" y="-40.0074300559"/>
      <point x="365.0" y="-55.5333333333"/>
      <point x="365" y="-119" type="curve"/>
      <point x="365.0" y="-172.906976744"/>
      <point x="317.0" y="-195.0"/>
      <point x="259" y="-195" type="curve"/>
      <point x="205.0" y="-195.0"/>
      <point x="167.0" y="-159.861386139"/>
      <point x="167" y="-104" type="curve"/>
      <point x="167.0" y="-56.5670103093"/>
      <point x="180.252429756" y="-15.3541122209"/>
      <point x="219" y="3" type="curve"/>
      <point x="147" y="69"/>
      <point x="219" y="3"/>
      <point x="147" y="69" type="curve"/>
      <point x="72.1754011497" y="33.6099870303"/>
      <point x="24.0" y="-23.1785714286"/>
      <point x="24" y="-109" type="curve"/>
      <point x="24.0" y="-234.59223301"/>
      <point x="122.0" y="-305.0"/>
      <point x="253" y="-305" type="curve"/>
      <point x="389.0" y="-305.0"/>
      <point x="496.903403063" y="-237.431408288"/>
      <point x="495" y="-108" type="curve"/>
      <point x="495.0" y="10.6272189349"/>
      <point x="392.059441745" y="59.9946840716"/>
      <point x="269" y="71" type="curve"/>
      <point x="233" y="74"/>
      <point x="203" y="89"/>
      <point x="203" y="123" type="curve"/>
      <point x="203" y="146"/>
      <point x="209" y="159"/>
      <point x="226" y="174" type="curve"/>
    </contour>
  </outline>
</glyph>
<glyph name="h" format="1">
  <advance width="596"/>
  <unicode hex="0068"/>
  <outline>
    <contour>
      <point x="436" y="-1"/>
      <point x="436" y="110"/>
      <point x="436" y="-1" type="curve"/>
      <point x="482" y="-1"/>
      <point x="527" y="0"/>
      <point x="573" y="0" type="curve"/>
      <point x="573" y="110"/>
      <point x="573" y="0"/>
      <point x="573" y="110" type="curve"/>
      <point x="436" y="110"/>
      <point x="573" y="110"/>
      <point x="436" y="110" type="curve"/>
    </contour>
    <contour>
      <point x="158" y="-1"/>
      <point x="158" y="110"/>
      <point x="158" y="-1" type="curve"/>
      <point x="200.007692308" y="-1.0"/>
      <point x="157.999820399" y="-0.976924458467"/>
      <point x="285" y="0" type="curve"/>
      <point x="285" y="110"/>
      <point x="285" y="0"/>
      <point x="285" y="110" type="curve"/>
      <point x="158.0" y="110.0"/>
      <point x="285.0" y="110.0"/>
      <point x="158" y="110" type="curve"/>
    </contour>
    <contour>
      <point x="158" y="799"/>
      <point x="158" y="689"/>
      <point x="158" y="799" type="curve"/>
      <point x="112" y="799"/>
      <point x="66" y="800"/>
      <point x="21" y="800" type="curve"/>
      <point x="20" y="690"/>
      <point x="21" y="800"/>
      <point x="20" y="690" type="curve"/>
      <point x="158" y="689"/>
      <point x="20" y="690"/>
      <point x="158" y="689" type="curve"/>
    </contour>
    <contour>
      <point x="158" y="110"/>
      <point x="158" y="-1"/>
      <point x="158" y="110" type="curve"/>
      <point x="21" y="110"/>
      <point x="158" y="110"/>
      <point x="21" y="110" type="curve"/>
      <point x="20" y="0"/>
      <point x="21" y="110"/>
      <point x="20" y="0" type="curve"/>
      <point x="66" y="0"/>
      <point x="112" y="-1"/>
      <point x="158" y="-1" type="curve"/>
    </contour>
    <contour>
      <point x="436" y="110"/>
      <point x="436" y="-1"/>
      <point x="436" y="110" type="curve"/>
      <point x="309.0" y="110.0"/>
      <point x="436.0" y="110.0"/>
      <point x="309" y="110" type="curve"/>
      <point x="309" y="0"/>
      <point x="309" y="110"/>
      <point x="309" y="0" type="curve"/>
      <point x="351.984615385" y="0.0"/>
      <point x="393.992307692" y="-1.0"/>
      <point x="436" y="-1" type="curve"/>
    </contour>
    <contour>
      <point x="197" y="301"/>
      <point x="161" y="356"/>
      <point x="197" y="301" type="curve"/>
      <point x="216" y="361"/>
      <point x="250" y="423"/>
      <point x="310" y="423" type="curve"/>
      <point x="364" y="423"/>
      <point x="365" y="371"/>
      <point x="365" y="308" type="curve"/>
      <point x="365" y="205"/>
      <point x="365" y="103"/>
      <point x="365" y="0" type="curve"/>
      <point x="508" y="0"/>
      <point x="365" y="0"/>
      <point x="508" y="0" type="curve"/>
      <point x="508" y="106"/>
      <point x="508" y="213"/>
      <point x="508" y="319" type="curve"/>
      <point x="508.0" y="444.0"/>
      <point x="473" y="533"/>
      <point x="353" y="533" type="curve"/>
      <point x="259" y="533"/>
      <point x="183.932654967" y="454.710123553"/>
      <point x="161" y="356" type="curve"/>
    </contour>
    <contour>
      <point x="229" y="0"/>
      <point x="86" y="0"/>
      <point x="229" y="0" type="curve"/>
      <point x="229" y="267"/>
      <point x="229" y="533"/>
      <point x="229" y="800" type="curve"/>
      <point x="86" y="800"/>
      <point x="229" y="800"/>
      <point x="86" y="800" type="curve"/>
      <point x="86" y="533"/>
      <point x="86" y="267"/>
      <point x="86" y="0" type="curve"/>
    </contour>
  </outline>
</glyph>
<glyph name="l" format="1">
  <advance width="337"/>
  <unicode hex="006C"/>
  <outline>
    <contour>
      <point x="169" y="110"/>
      <point x="169" y="-1"/>
      <point x="169" y="110" type="curve"/>
      <point x="32" y="110"/>
      <point x="169" y="110"/>
      <point x="32" y="110" type="curve"/>
      <point x="32" y="0"/>
      <point x="32" y="110"/>
      <point x="32" y="0" type="curve"/>
      <point x="78" y="0"/>
      <point x="123" y="-1"/>
      <point x="169" y="-1" type="curve"/>
    </contour>
    <contour>
      <point x="171" y="799"/>
      <point x="171" y="689"/>
      <point x="171" y="799" type="curve"/>
      <point x="125" y="799"/>
      <point x="79" y="800"/>
      <point x="34" y="800" type="curve"/>
      <point x="33" y="690"/>
      <point x="34" y="800"/>
      <point x="33" y="690" type="curve"/>
      <point x="171" y="689"/>
      <point x="33" y="690"/>
      <point x="171" y="689" type="curve"/>
    </contour>
    <contour>
      <point x="169" y="-1"/>
      <point x="169" y="110"/>
      <point x="169" y="-1" type="curve"/>
      <point x="215" y="-1"/>
      <point x="261" y="0"/>
      <point x="307" y="0" type="curve"/>
      <point x="307" y="110"/>
      <point x="307" y="0"/>
      <point x="307" y="110" type="curve"/>
      <point x="169" y="110"/>
      <point x="307" y="110"/>
      <point x="169" y="110" type="curve"/>
    </contour>
    <contour>
      <point x="240" y="0"/>
      <point x="97" y="0"/>
      <point x="240" y="0" type="curve"/>
      <point x="240" y="267"/>
      <point x="240" y="533"/>
      <point x="240" y="800" type="curve"/>
      <point x="97" y="800"/>
      <point x="240" y="800"/>
      <point x="97" y="800" type="curve"/>
      <point x="97" y="533"/>
      <point x="97" y="267"/>
      <point x="97" y="0" type="curve"/>
    </contour>
  </outline>
</glyph>
<glyph name="m" format="1">
  <advance width="826"/>
  <unicode hex="006D"/>
  <outline>
    <contour>
      <point x="418" y="0"/>
      <point x="418" y="110"/>
      <point x="418" y="0" type="curve"/>
      <point x="530" y="0"/>
      <point x="418" y="0"/>
      <point x="530" y="0" type="curve"/>
      <point x="530" y="110"/>
      <point x="530" y="0"/>
      <point x="530" y="110" type="curve"/>
      <point x="418" y="110"/>
      <point x="530" y="110"/>
      <point x="418" y="110" type="curve"/>
    </contour>
    <contour>
      <point x="418" y="110"/>
      <point x="418" y="0"/>
      <point x="418" y="110" type="curve"/>
      <point x="306" y="110"/>
      <point x="418" y="110"/>
      <point x="306" y="110" type="curve"/>
      <point x="306" y="0"/>
      <point x="306" y="110"/>
      <point x="306" y="0" type="curve"/>
      <point x="418" y="0"/>
      <point x="306" y="0"/>
      <point x="418" y="0" type="curve"/>
    </contour>
    <contour>
      <point x="668" y="0"/>
      <point x="668" y="110"/>
      <point x="668" y="0" type="curve"/>
      <point x="713" y="0"/>
      <point x="759" y="0"/>
      <point x="805" y="0" type="curve"/>
      <point x="805" y="110"/>
      <point x="805" y="0"/>
      <point x="805" y="110" type="curve"/>
      <point x="668" y="110"/>
      <point x="805" y="110"/>
      <point x="668" y="110" type="curve"/>
    </contour>
    <contour>
      <point x="169" y="110"/>
      <point x="169" y="0"/>
      <point x="169" y="110" type="curve"/>
      <point x="32" y="110"/>
      <point x="169" y="110"/>
      <point x="32" y="110" type="curve"/>
      <point x="31" y="0"/>
      <point x="32" y="110"/>
      <point x="31" y="0" type="curve"/>
      <point x="77" y="0"/>
      <point x="123" y="0"/>
      <point x="169" y="0" type="curve"/>
    </contour>
    <contour>
      <point x="169" y="0"/>
      <point x="169" y="110"/>
      <point x="169" y="0" type="curve"/>
      <point x="206" y="0"/>
      <point x="169" y="0"/>
      <point x="281" y="0" type="curve"/>
      <point x="281" y="110"/>
      <point x="281" y="0"/>
      <point x="281" y="110" type="curve"/>
      <point x="169" y="110"/>
      <point x="281" y="110"/>
      <point x="169" y="110" type="curve"/>
    </contour>
    <contour>
      <point x="169" y="533"/>
      <point x="169" y="423"/>
      <point x="169" y="533" type="curve"/>
      <point x="123" y="533"/>
      <point x="77" y="533"/>
      <point x="32" y="533" type="curve"/>
      <point x="31" y="423"/>
      <point x="32" y="533"/>
      <point x="31" y="423" type="curve"/>
      <point x="169" y="423"/>
      <point x="31" y="423"/>
      <point x="169" y="423" type="curve"/>
    </contour>
    <contour>
      <point x="668" y="110"/>
      <point x="668" y="0"/>
      <point x="668" y="110" type="curve"/>
      <point x="555" y="110"/>
      <point x="668" y="110"/>
      <point x="555" y="110" type="curve"/>
      <point x="555" y="0"/>
      <point x="555" y="110"/>
      <point x="555" y="0" type="curve"/>
      <point x="593" y="0"/>
      <point x="630" y="0"/>
      <point x="668" y="0" type="curve"/>
    </contour>
    <contour>
      <point x="457" y="301"/>
      <point x="421" y="356"/>
      <point x="457" y="301" type="curve"/>
      <point x="475" y="360"/>
      <point x="489" y="423"/>
      <point x="547" y="423" type="curve"/>
      <point x="605" y="423"/>
      <point x="595" y="374"/>
      <point x="595" y="308" type="curve"/>
      <point x="595" y="205"/>
      <point x="595" y="103"/>
      <point x="595" y="0" type="curve"/>
      <point x="738" y="0"/>
      <point x="595" y="0"/>
      <point x="738" y="0" type="curve"/>
      <point x="738" y="106"/>
      <point x="738" y="213"/>
      <point x="738" y="319" type="curve"/>
      <point x="738.0" y="451.014018692"/>
      <point x="727.0" y="538.0"/>
      <point x="599" y="538" type="curve"/>
      <point x="505.0" y="538.0"/>
      <point x="444.619263411" y="461.773223102"/>
      <point x="421" y="356" type="curve"/>
    </contour>
    <contour>
      <point x="208" y="301"/>
      <point x="172" y="356"/>
      <point x="208" y="301" type="curve"/>
      <point x="227" y="361"/>
      <point x="239" y="423"/>
      <point x="298" y="423" type="curve"/>
      <point x="355" y="423"/>
      <point x="346" y="374"/>
      <point x="346" y="308" type="curve"/>
      <point x="346" y="205"/>
      <point x="346" y="103"/>
      <point x="346" y="0" type="curve"/>
      <point x="489" y="0"/>
      <point x="346" y="0"/>
      <point x="489" y="0" type="curve"/>
      <point x="489" y="106"/>
      <point x="489" y="213"/>
      <point x="489" y="319" type="curve"/>
      <point x="489.0" y="451.014018692"/>
      <point x="478.0" y="538.0"/>
      <point x="350" y="538" type="curve"/>
      <point x="255.0" y="538.0"/>
      <point x="196.644134595" y="462.79124991"/>
      <point x="172" y="356" type="curve"/>
    </contour>
    <contour>
      <point x="240" y="0"/>
      <point x="97" y="0"/>
      <point x="240" y="0" type="curve"/>
      <point x="240" y="178"/>
      <point x="240" y="355"/>
      <point x="240" y="533" type="curve"/>
      <point x="97" y="533"/>
      <point x="240" y="533"/>
      <point x="97" y="533" type="curve"/>
      <point x="97" y="355"/>
      <point x="97" y="178"/>
      <point x="97" y="0" type="curve"/>
    </contour>
  </outline>
</glyph>
<glyph name="n" format="1">
  <advance width="585"/>
  <unicode hex="006E"/>
  <outline>
    <contour>
      <point x="196" y="301"/>
      <point x="160" y="356"/>
      <point x="196" y="301" type="curve"/>
      <point x="214" y="360"/>
      <point x="243" y="423"/>
      <point x="301" y="423" type="curve"/>
      <point x="357" y="423"/>
      <point x="364" y="372"/>
      <point x="364" y="308" type="curve"/>
      <point x="364" y="205"/>
      <point x="364" y="103"/>
      <point x="364" y="0" type="curve"/>
      <point x="507" y="0"/>
      <point x="364" y="0"/>
      <point x="507" y="0" type="curve"/>
      <point x="507" y="106"/>
      <point x="507" y="213"/>
      <point x="507" y="319" type="curve"/>
      <point x="507.0" y="445.897196262"/>
      <point x="476.0" y="538.0"/>
      <point x="354" y="538" type="curve"/>
      <point x="259.0" y="538.0"/>
      <point x="183.53739649" y="459.359871545"/>
      <point x="160" y="356" type="curve"/>
    </contour>
    <contour>
      <point x="435" y="0"/>
      <point x="435" y="110"/>
      <point x="435" y="0" type="curve"/>
      <point x="480" y="0"/>
      <point x="526" y="0"/>
      <point x="572" y="0" type="curve"/>
      <point x="572" y="110"/>
      <point x="572" y="0"/>
      <point x="572" y="110" type="curve"/>
      <point x="435" y="110"/>
      <point x="572" y="110"/>
      <point x="435" y="110" type="curve"/>
    </contour>
    <contour>
      <point x="157" y="110"/>
      <point x="157" y="0"/>
      <point x="157" y="110" type="curve"/>
      <point x="19" y="110"/>
      <point x="157" y="110"/>
      <point x="19" y="110" type="curve"/>
      <point x="19" y="0"/>
      <point x="19" y="110"/>
      <point x="19" y="0" type="curve"/>
      <point x="65" y="0"/>
      <point x="111" y="0"/>
      <point x="157" y="0" type="curve"/>
    </contour>
    <contour>
      <point x="157" y="0"/>
      <point x="157" y="110"/>
      <point x="157" y="0" type="curve"/>
      <point x="200" y="0"/>
      <point x="157" y="0"/>
      <point x="286" y="0" type="curve"/>
      <point x="286" y="110"/>
      <point x="286" y="0"/>
      <point x="286" y="110" type="curve"/>
      <point x="157" y="110"/>
      <point x="286" y="110"/>
      <point x="157" y="110" type="curve"/>
    </contour>
    <contour>
      <point x="228" y="0"/>
      <point x="85" y="0"/>
      <point x="228" y="0" type="curve"/>
      <point x="228" y="178"/>
      <point x="228" y="355"/>
      <point x="228" y="533" type="curve"/>
      <point x="85" y="533"/>
      <point x="228" y="533"/>
      <point x="85" y="533" type="curve"/>
      <point x="85" y="355"/>
      <point x="85" y="178"/>
      <point x="85" y="0" type="curve"/>
    </contour>
    <contour>
      <point x="157" y="533"/>
      <point x="157" y="423"/>
      <point x="157" y="533" type="curve"/>
      <point x="111" y="533"/>
      <point x="65" y="533"/>
      <point x="19" y="533" type="curve"/>
      <point x="19" y="423"/>
      <point x="19" y="533"/>
      <point x="19" y="423" type="curve"/>
      <point x="157" y="423"/>
      <point x="19" y="423"/>
      <point x="157" y="423" type="curve"/>
    </contour>
    <contour>
      <point x="435" y="110"/>
      <point x="435" y="0"/>
      <point x="435" y="110" type="curve"/>
      <point x="305" y="110"/>
      <point x="435" y="110"/>
      <point x="305" y="110" type="curve"/>
      <point x="305" y="0"/>
      <point x="305" y="110"/>
      <point x="305" y="0" type="curve"/>
      <point x="348" y="0"/>
      <point x="392" y="0"/>
      <point x="435" y="0" type="curve"/>
    </contour>
  </outline>
</glyph>
<glyph name="p" format="1">
  <advance width="560"/>
  <unicode hex="0070"/>
  <outline>
    <contour>
      <point x="155.0" y="-189.0"/>
      <point x="155" y="-300"/>
      <point x="155" y="-189" type="curve"/>
      <point x="18" y="-189"/>
      <point x="155" y="-189"/>
      <point x="18" y="-189" type="curve"/>
      <point x="18" y="-300"/>
      <point x="18.0" y="-189.0"/>
      <point x="18" y="-300" type="curve"/>
      <point x="64.0" y="-300.0"/>
      <point x="109" y="-300"/>
      <point x="155" y="-300" type="curve"/>
    </contour>
    <contour>
      <point x="155" y="-300"/>
      <point x="155.0" y="-189.0"/>
      <point x="155" y="-300" type="curve"/>
      <point x="199.0" y="-300.0"/>
      <point x="242.0" y="-300.0"/>
      <point x="285" y="-300" type="curve"/>
      <point x="285.0" y="-189.0"/>
      <point x="285.0" y="-300.0"/>
      <point x="285" y="-189" type="curve"/>
      <point x="155" y="-189"/>
      <point x="285" y="-189"/>
      <point x="155" y="-189" type="curve"/>
    </contour>
    <contour>
      <point x="156" y="533"/>
      <point x="156" y="423"/>
      <point x="156" y="533" type="curve"/>
      <point x="110" y="533"/>
      <point x="65.0" y="533.0"/>
      <point x="19" y="533" type="curve"/>
      <point x="19" y="423"/>
      <point x="19" y="533"/>
      <point x="19" y="423" type="curve"/>
      <point x="156" y="423"/>
      <point x="19" y="423"/>
      <point x="156" y="423" type="curve"/>
    </contour>
    <contour>
      <point x="191" y="346"/>
      <point x="161" y="423"/>
      <point x="191" y="346" type="curve"/>
      <point x="213" y="379"/>
      <point x="255" y="424"/>
      <point x="312" y="424" type="curve"/>
      <point x="391" y="424"/>
      <point x="399" y="346"/>
      <point x="399" y="261" type="curve"/>
      <point x="400" y="179"/>
      <point x="389" y="105"/>
      <point x="314" y="105" type="curve"/>
      <point x="266" y="105"/>
      <point x="231" y="125"/>
      <point x="201" y="162" type="curve"/>
      <point x="152" y="102"/>
      <point x="201" y="162"/>
      <point x="152" y="102" type="curve"/>
      <point x="203" y="33"/>
      <point x="259" y="-5"/>
      <point x="341" y="-5" type="curve"/>
      <point x="488" y="-5"/>
      <point x="542" y="119"/>
      <point x="542" y="267" type="curve"/>
      <point x="542" y="413"/>
      <point x="490" y="539"/>
      <point x="341" y="539" type="curve"/>
      <point x="259" y="539"/>
      <point x="197" y="481"/>
      <point x="161" y="423" type="curve"/>
    </contour>
    <contour>
      <point x="227" y="-300"/>
      <point x="84" y="-300"/>
      <point x="227" y="-300" type="curve"/>
      <point x="227" y="-22"/>
      <point x="227" y="255"/>
      <point x="227" y="533" type="curve"/>
      <point x="84" y="533"/>
      <point x="227" y="533"/>
      <point x="84" y="533" type="curve"/>
      <point x="84" y="255"/>
      <point x="84" y="-22"/>
      <point x="84" y="-300" type="curve"/>
    </contour>
  </outline>
</glyph>
<glyph name="q" format="1">
  <advance width="574"/>
  <unicode hex="0071"/>
  <outline>
    <contour>
      <point x="402" y="423"/>
      <point x="402" y="533"/>
      <point x="402" y="423" type="curve"/>
      <point x="529" y="423"/>
      <point x="402" y="423"/>
      <point x="531" y="423" type="curve"/>
      <point x="531" y="533"/>
      <point x="531" y="423"/>
      <point x="531" y="533" type="curve"/>
      <point x="488" y="533"/>
      <point x="445" y="533"/>
      <point x="402" y="533" type="curve"/>
    </contour>
    <contour>
      <point x="400" y="-189"/>
      <point x="400" y="-300"/>
      <point x="400" y="-189" type="curve"/>
      <point x="263" y="-189"/>
      <point x="400" y="-189"/>
      <point x="263" y="-189" type="curve"/>
      <point x="263" y="-300"/>
      <point x="263" y="-189"/>
      <point x="263" y="-300" type="curve"/>
      <point x="309" y="-300"/>
      <point x="354" y="-300"/>
      <point x="400" y="-300" type="curve"/>
    </contour>
    <contour>
      <point x="400" y="-300"/>
      <point x="400" y="-189"/>
      <point x="400" y="-300" type="curve"/>
      <point x="444" y="-300"/>
      <point x="487" y="-300"/>
      <point x="530" y="-300" type="curve"/>
      <point x="530" y="-189"/>
      <point x="530" y="-300"/>
      <point x="530" y="-189" type="curve"/>
      <point x="400" y="-189"/>
      <point x="530" y="-189"/>
      <point x="400" y="-189" type="curve"/>
    </contour>
    <contour>
      <point x="395" y="436"/>
      <point x="366" y="370"/>
      <point x="395" y="436" type="curve"/>
      <point x="342" y="489"/>
      <point x="297" y="538"/>
      <point x="219" y="538" type="curve"/>
      <point x="64" y="538"/>
      <point x="10" y="414"/>
      <point x="11" y="265" type="curve"/>
      <point x="11" y="115"/>
      <point x="72" y="-5"/>
      <point x="224" y="-5" type="curve"/>
      <point x="300" y="-5"/>
      <point x="360" y="54"/>
      <point x="400" y="124" type="curve"/>
      <point x="358" y="185"/>
      <point x="400" y="124"/>
      <point x="358" y="185" type="curve"/>
      <point x="332" y="140"/>
      <point x="291" y="105"/>
      <point x="240" y="105" type="curve"/>
      <point x="162" y="105"/>
      <point x="154" y="184"/>
      <point x="154" y="271" type="curve"/>
      <point x="154" y="351"/>
      <point x="163" y="424"/>
      <point x="241" y="424" type="curve"/>
      <point x="288" y="424"/>
      <point x="331" y="403"/>
      <point x="366" y="370" type="curve"/>
    </contour>
    <contour>
      <point x="475" y="-300"/>
      <point x="326" y="-300"/>
      <point x="475" y="-300" type="curve"/>
      <point x="475" y="-22"/>
      <point x="475" y="255"/>
      <point x="475" y="533" type="curve"/>
      <point x="326" y="533"/>
      <point x="475" y="533"/>
      <point x="326" y="533" type="curve"/>
      <point x="326" y="255"/>
      <point x="326" y="-22"/>
      <point x="326" y="-300" type="curve"/>
    </contour>
  </outline>
</glyph>
<glyph name="u" format="1">
  <advance width="584"/>
  <unicode hex="0075"/>
  <outline>
    <contour>
      <point x="431" y="533"/>
      <point x="431" y="423"/>
      <point x="431" y="533" type="curve"/>
      <point x="385" y="533"/>
      <point x="339" y="533"/>
      <point x="293" y="533" type="curve"/>
      <point x="293" y="423"/>
      <point x="293" y="533"/>
      <point x="293" y="423" type="curve"/>
      <point x="431" y="423"/>
      <point x="293" y="423"/>
      <point x="431" y="423" type="curve"/>
    </contour>
    <contour>
      <point x="157" y="533"/>
      <point x="157" y="423"/>
      <point x="157" y="533" type="curve"/>
      <point x="111" y="533"/>
      <point x="65" y="533"/>
      <point x="20" y="533" type="curve"/>
      <point x="19" y="423"/>
      <point x="20" y="533"/>
      <point x="19" y="423" type="curve"/>
      <point x="157" y="423"/>
      <point x="19" y="423"/>
      <point x="157" y="423" type="curve"/>
    </contour>
    <contour>
      <point x="431" y="0"/>
      <point x="431" y="110"/>
      <point x="431" y="0" type="curve"/>
      <point x="474" y="0"/>
      <point x="517" y="0"/>
      <point x="560" y="0" type="curve"/>
      <point x="560" y="110"/>
      <point x="560" y="0"/>
      <point x="560" y="110" type="curve"/>
      <point x="431" y="110"/>
      <point x="560" y="110"/>
      <point x="431" y="110" type="curve"/>
    </contour>
    <contour>
      <point x="502" y="0"/>
      <point x="359" y="0"/>
      <point x="502" y="0" type="curve"/>
      <point x="502" y="178"/>
      <point x="502" y="355"/>
      <point x="502" y="533" type="curve"/>
      <point x="359" y="533"/>
      <point x="502" y="533"/>
      <point x="359" y="533" type="curve"/>
      <point x="359" y="355"/>
      <point x="359" y="178"/>
      <point x="359" y="0" type="curve"/>
    </contour>
    <contour>
      <point x="382" y="214"/>
      <point x="437" y="164"/>
      <point x="382" y="214" type="curve"/>
      <point x="363" y="169"/>
      <point x="337" y="111"/>
      <point x="287" y="111" type="curve"/>
      <point x="234" y="111"/>
      <point x="228" y="159"/>
      <point x="228" y="219" type="curve"/>
      <point x="228.0" y="323.666666667"/>
      <point x="228.0" y="428.333333333"/>
      <point x="228" y="533" type="curve"/>
      <point x="85" y="533"/>
      <point x="228" y="533"/>
      <point x="85" y="533" type="curve"/>
      <point x="85.0" y="426.334375"/>
      <point x="85.0" y="319.66875"/>
      <point x="85" y="214" type="curve"/>
      <point x="85.0" y="83.4225352113"/>
      <point x="131.0" y="-5.0"/>
      <point x="265" y="-5" type="curve"/>
      <point x="353" y="-5"/>
      <point x="404.517203454" y="79.7477464579"/>
      <point x="437" y="164" type="curve"/>
    </contour>
  </outline>
</glyph>
<glyph name="dvA" format="1">
  <advance width="669"/>
  <unicode hex="0905"/>
  <outline>
    <contour>
      <point x="502" y="450"/>
      <point x="547" y="361"/>
      <point x="502" y="450" type="curve"/>
      <point x="411" y="400"/>
      <point x="332" y="395"/>
      <point x="230" y="415" type="curve"/>
      <point x="198" y="349"/>
      <point x="230" y="415"/>
      <point x="198" y="349" type="curve"/>
      <point x="330" y="321"/>
      <point x="424" y="290"/>
      <point x="547" y="361" type="curve"/>
    </contour>
    <contour>
      <point x="133" y="566"/>
      <point x="49" y="660"/>
      <point x="133" y="566" type="curve"/>
      <point x="157" y="587"/>
      <point x="175" y="604"/>
      <point x="211" y="604" type="curve"/>
      <point x="255" y="604"/>
      <point x="272" y="567"/>
      <point x="271" y="522" type="curve"/>
      <point x="271" y="465"/>
      <point x="227" y="435"/>
      <point x="167" y="435" type="curve"/>
      <point x="167" y="336"/>
      <point x="167" y="435"/>
      <point x="167" y="336" type="curve"/>
      <point x="309" y="336"/>
      <point x="414" y="400"/>
      <point x="414" y="533" type="curve"/>
      <point x="414" y="650"/>
      <point x="342" y="727"/>
      <point x="227" y="727" type="curve"/>
      <point x="154" y="727"/>
      <point x="104" y="707"/>
      <point x="49" y="660" type="curve"/>
    </contour>
    <contour>
      <point x="134" y="117"/>
      <point x="22" y="117"/>
      <point x="134" y="117" type="curve"/>
      <point x="134" y="260"/>
      <point x="134" y="117"/>
      <point x="134" y="260" type="curve"/>
      <point x="22" y="260"/>
      <point x="134" y="260"/>
      <point x="22" y="260" type="curve"/>
      <point x="22" y="117"/>
      <point x="22" y="260"/>
      <point x="22" y="117" type="curve"/>
    </contour>
    <contour>
      <point x="22" y="117"/>
      <point x="120" y="189"/>
      <point x="22" y="117" type="curve"/>
      <point x="65" y="60"/>
      <point x="131" y="26"/>
      <point x="202" y="26" type="curve"/>
      <point x="341" y="21"/>
      <point x="439" y="96"/>
      <point x="438" y="230" type="curve"/>
      <point x="436" y="363"/>
      <point x="315" y="411"/>
      <point x="167" y="411" type="curve"/>
      <point x="167" y="318"/>
      <point x="167" y="411"/>
      <point x="167" y="318" type="curve"/>
      <point x="239" y="318"/>
      <point x="294" y="286"/>
      <point x="295" y="219" type="curve"/>
      <point x="295" y="168"/>
      <point x="265" y="135"/>
      <point x="215" y="137" type="curve"/>
      <point x="176" y="137"/>
      <point x="144" y="159"/>
      <point x="120" y="189" type="curve"/>
    </contour>
    <contour>
      <point x="527" y="0"/>
      <point x="527" y="110"/>
      <point x="527" y="0" type="curve"/>
      <point x="561" y="0"/>
      <point x="596" y="0"/>
      <point x="630" y="0" type="curve"/>
      <point x="630" y="110"/>
      <point x="630" y="0"/>
      <point x="630" y="110" type="curve"/>
      <point x="527" y="110"/>
      <point x="630" y="110"/>
      <point x="527" y="110" type="curve"/>
    </contour>
    <contour>
      <point x="527" y="110"/>
      <point x="527" y="0"/>
      <point x="527" y="110" type="curve"/>
      <point x="422" y="110"/>
      <point x="527" y="110"/>
      <point x="422" y="110" type="curve"/>
      <point x="422" y="0"/>
      <point x="422" y="110"/>
      <point x="422" y="0" type="curve"/>
      <point x="457" y="0"/>
      <point x="492" y="0"/>
      <point x="527" y="0" type="curve"/>
    </contour>
    <contour>
      <point x="598" y="0"/>
      <point x="455" y="0"/>
      <point x="598" y="0" type="curve"/>
      <point x="598" y="241"/>
      <point x="598" y="481"/>
      <point x="598" y="722" type="curve"/>
      <point x="455" y="722"/>
      <point x="598" y="722"/>
      <point x="455" y="722" type="curve"/>
      <point x="455" y="481"/>
      <point x="455" y="241"/>
      <point x="455" y="0" type="curve"/>
    </contour>
    <contour>
      <point x="518" y="600"/>
      <point x="518" y="722"/>
      <point x="518" y="600" type="curve"/>
      <point x="584" y="600"/>
      <point x="616" y="600"/>
      <point x="682" y="600" type="curve"/>
      <point x="682" y="722"/>
      <point x="682" y="600"/>
      <point x="682" y="722" type="curve"/>
      <point x="616" y="722"/>
      <point x="584" y="722"/>
      <point x="518" y="722" type="curve"/>
    </contour>
  </outline>
</glyph>
<glyph name="dvAA" format="1">
  <advance width="918"/>
  <unicode hex="0906"/>
  <outline>
    <contour>
      <point x="767" y="0"/>
      <point x="767" y="110"/>
      <point x="767" y="0" type="curve"/>
      <point x="808" y="0"/>
      <point x="849" y="0"/>
      <point x="890" y="0" type="curve"/>
      <point x="890" y="110"/>
      <point x="890" y="0"/>
      <point x="890" y="110" type="curve"/>
      <point x="767" y="110"/>
      <point x="890" y="110"/>
      <point x="767" y="110" type="curve"/>
    </contour>
    <contour>
      <point x="767" y="110"/>
      <point x="767" y="0"/>
      <point x="767" y="110" type="curve"/>
      <point x="662" y="110"/>
      <point x="767" y="110"/>
      <point x="662" y="110" type="curve"/>
      <point x="662" y="0"/>
      <point x="662" y="110"/>
      <point x="662" y="0" type="curve"/>
      <point x="697" y="0"/>
      <point x="732" y="0"/>
      <point x="767" y="0" type="curve"/>
    </contour>
    <contour>
      <point x="758" y="600"/>
      <point x="758" y="722"/>
      <point x="758" y="600" type="curve"/>
      <point x="818" y="600"/>
      <point x="876" y="600"/>
      <point x="936" y="600" type="curve"/>
      <point x="936" y="722"/>
      <point x="936" y="600"/>
      <point x="936" y="722" type="curve"/>
      <point x="876" y="722"/>
      <point x="818" y="722"/>
      <point x="758" y="722" type="curve"/>
    </contour>
    <contour>
      <point x="838" y="0"/>
      <point x="695" y="0"/>
      <point x="838" y="0" type="curve"/>
      <point x="838" y="241"/>
      <point x="838" y="481"/>
      <point x="838" y="722" type="curve"/>
      <point x="695" y="722"/>
      <point x="838" y="722"/>
      <point x="695" y="722" type="curve"/>
      <point x="695" y="481"/>
      <point x="695" y="241"/>
      <point x="695" y="0" type="curve"/>
    </contour>
    <contour>
      <point x="529" y="600"/>
      <point x="529" y="722"/>
      <point x="529" y="600" type="curve"/>
      <point x="595" y="600"/>
      <point x="659" y="600"/>
      <point x="725" y="600" type="curve"/>
      <point x="725" y="722"/>
      <point x="725" y="600"/>
      <point x="725" y="722" type="curve"/>
      <point x="659" y="722"/>
      <point x="595" y="722"/>
      <point x="529" y="722" type="curve"/>
    </contour>
    <contour>
      <point x="538" y="0"/>
      <point x="538" y="110"/>
      <point x="538" y="0" type="curve"/>
      <point x="572" y="0"/>
      <point x="607" y="0"/>
      <point x="641" y="0" type="curve"/>
      <point x="641" y="110"/>
      <point x="641" y="0"/>
      <point x="641" y="110" type="curve"/>
      <point x="538" y="110"/>
      <point x="641" y="110"/>
      <point x="538" y="110" type="curve"/>
    </contour>
    <contour>
      <point x="538" y="110"/>
      <point x="538" y="0"/>
      <point x="538" y="110" type="curve"/>
      <point x="433" y="110"/>
      <point x="538" y="110"/>
      <point x="433" y="110" type="curve"/>
      <point x="433" y="0"/>
      <point x="433" y="110"/>
      <point x="433" y="0" type="curve"/>
      <point x="468" y="0"/>
      <point x="503" y="0"/>
      <point x="538" y="0" type="curve"/>
    </contour>
    <contour>
      <point x="609" y="0"/>
      <point x="466" y="0"/>
      <point x="609" y="0" type="curve"/>
      <point x="609" y="241"/>
      <point x="609" y="481"/>
      <point x="609" y="722" type="curve"/>
      <point x="466" y="722"/>
      <point x="609" y="722"/>
      <point x="466" y="722" type="curve"/>
      <point x="466" y="481"/>
      <point x="466" y="241"/>
      <point x="466" y="0" type="curve"/>
    </contour>
    <contour>
      <point x="145" y="117"/>
      <point x="33" y="117"/>
      <point x="145" y="117" type="curve"/>
      <point x="145" y="260"/>
      <point x="145" y="117"/>
      <point x="145" y="260" type="curve"/>
      <point x="33" y="260"/>
      <point x="145" y="260"/>
      <point x="33" y="260" type="curve"/>
      <point x="33" y="117"/>
      <point x="33" y="260"/>
      <point x="33" y="117" type="curve"/>
    </contour>
    <contour>
      <point x="33" y="117"/>
      <point x="131" y="189"/>
      <point x="33" y="117" type="curve"/>
      <point x="76" y="60"/>
      <point x="142" y="26"/>
      <point x="213" y="26" type="curve"/>
      <point x="352" y="21"/>
      <point x="450" y="96"/>
      <point x="449" y="230" type="curve"/>
      <point x="447" y="363"/>
      <point x="326" y="411"/>
      <point x="178" y="411" type="curve"/>
      <point x="178" y="318"/>
      <point x="178" y="411"/>
      <point x="178" y="318" type="curve"/>
      <point x="250" y="318"/>
      <point x="305" y="286"/>
      <point x="306" y="219" type="curve"/>
      <point x="306" y="168"/>
      <point x="276" y="135"/>
      <point x="226" y="137" type="curve"/>
      <point x="187" y="137"/>
      <point x="155" y="159"/>
      <point x="131" y="189" type="curve"/>
    </contour>
    <contour>
      <point x="513" y="450"/>
      <point x="558" y="361"/>
      <point x="513" y="450" type="curve"/>
      <point x="422" y="400"/>
      <point x="343" y="395"/>
      <point x="241" y="415" type="curve"/>
      <point x="209" y="349"/>
      <point x="241" y="415"/>
      <point x="209" y="349" type="curve"/>
      <point x="341" y="321"/>
      <point x="435" y="290"/>
      <point x="558" y="361" type="curve"/>
    </contour>
    <contour>
      <point x="144" y="566"/>
      <point x="60" y="660"/>
      <point x="144" y="566" type="curve"/>
      <point x="168" y="587"/>
      <point x="186" y="604"/>
      <point x="222" y="604" type="curve"/>
      <point x="266" y="604"/>
      <point x="283" y="567"/>
      <point x="282" y="522" type="curve"/>
      <point x="282" y="465"/>
      <point x="238" y="435"/>
      <point x="178" y="435" type="curve"/>
      <point x="178" y="336"/>
      <point x="178" y="435"/>
      <point x="178" y="336" type="curve"/>
      <point x="320" y="336"/>
      <point x="425" y="400"/>
      <point x="425" y="533" type="curve"/>
      <point x="425" y="650"/>
      <point x="353" y="727"/>
      <point x="238" y="727" type="curve"/>
      <point x="165" y="727"/>
      <point x="115" y="707"/>
      <point x="60" y="660" type="curve"/>
    </contour>
  </outline>
</glyph>
<glyph name="dvI" format="1">
  <advance width="516"/>
  <unicode hex="0907"/>
  <outline>
    <contour>
      <point x="-9" y="612"/>
      <point x="-9" y="722"/>
      <point x="-9" y="612" type="curve"/>
      <point x="137" y="612"/>
      <point x="383" y="612"/>
      <point x="529" y="612" type="curve"/>
      <point x="529" y="722"/>
      <point x="529" y="612"/>
      <point x="529" y="722" type="curve"/>
      <point x="383" y="722"/>
      <point x="137" y="722"/>
      <point x="-9" y="722" type="curve"/>
    </contour>
    <contour>
      <point x="162" y="221"/>
      <point x="185" y="342"/>
      <point x="162" y="221" type="curve"/>
      <point x="200" y="247"/>
      <point x="235" y="270"/>
      <point x="286" y="270" type="curve"/>
      <point x="326" y="270"/>
      <point x="342.0" y="246.0"/>
      <point x="342" y="211" type="curve"/>
      <point x="342" y="164"/>
      <point x="308.0" y="139.0"/>
      <point x="254" y="139" type="curve"/>
      <point x="214" y="139"/>
      <point x="198" y="168"/>
      <point x="188" y="209" type="curve"/>
      <point x="71" y="132"/>
      <point x="188" y="209"/>
      <point x="71" y="132" type="curve"/>
      <point x="88" y="44"/>
      <point x="158" y="23"/>
      <point x="254" y="23" type="curve"/>
      <point x="393" y="23"/>
      <point x="485" y="87"/>
      <point x="485" y="218" type="curve"/>
      <point x="483" y="322"/>
      <point x="421" y="381"/>
      <point x="315" y="381" type="curve"/>
      <point x="262" y="381"/>
      <point x="219" y="366"/>
      <point x="185" y="342" type="curve"/>
    </contour>
    <contour>
      <point x="71" y="132"/>
      <point x="188" y="209"/>
      <point x="71" y="132" type="curve"/>
      <point x="128" y="52"/>
      <point x="181" y="-31"/>
      <point x="239" y="-111" type="curve"/>
      <point x="369" y="-28"/>
      <point x="239" y="-111"/>
      <point x="369" y="-28" type="curve"/>
      <point x="310" y="52"/>
      <point x="247" y="129"/>
      <point x="188" y="209" type="curve"/>
    </contour>
    <contour>
      <point x="438" y="456"/>
      <point x="295" y="566"/>
      <point x="438" y="456" type="curve"/>
      <point x="438" y="526"/>
      <point x="438" y="596"/>
      <point x="438" y="666" type="curve"/>
      <point x="295" y="666"/>
      <point x="438" y="666"/>
      <point x="295" y="666" type="curve"/>
      <point x="295" y="633"/>
      <point x="295" y="599"/>
      <point x="295" y="566" type="curve"/>
    </contour>
    <contour>
      <point x="295" y="566"/>
      <point x="438" y="456"/>
      <point x="295" y="566" type="curve"/>
      <point x="269" y="566"/>
      <point x="244" y="566"/>
      <point x="218" y="566" type="curve"/>
      <point x="108" y="566"/>
      <point x="34" y="517"/>
      <point x="34" y="410" type="curve"/>
      <point x="34" y="317"/>
      <point x="90" y="275"/>
      <point x="162" y="221" type="curve"/>
      <point x="185" y="342"/>
      <point x="162" y="221"/>
      <point x="185" y="342" type="curve"/>
      <point x="171" y="363"/>
      <point x="162" y="385"/>
      <point x="162" y="404" type="curve"/>
      <point x="162" y="437"/>
      <point x="182.487804878" y="456.0"/>
      <point x="218" y="456" type="curve"/>
      <point x="291" y="456"/>
      <point x="365" y="456"/>
      <point x="438" y="456" type="curve"/>
    </contour>
  </outline>
</glyph>
<glyph name="dvII" format="1">
  <advance width="526"/>
  <unicode hex="0908"/>
  <outline>
    <contour>
      <point x="436" y="456"/>
      <point x="293" y="566"/>
      <point x="436" y="456" type="curve"/>
      <point x="436" y="526"/>
      <point x="436" y="596"/>
      <point x="436" y="666" type="curve"/>
      <point x="293" y="666"/>
      <point x="436" y="666"/>
      <point x="293" y="666" type="curve"/>
      <point x="293" y="633"/>
      <point x="293" y="599"/>
      <point x="293" y="566" type="curve"/>
    </contour>
    <contour>
      <point x="160" y="221"/>
      <point x="182" y="347"/>
      <point x="160" y="221" type="curve"/>
      <point x="208.500503801" y="247.627727577"/>
      <point x="237" y="270"/>
      <point x="291" y="270" type="curve"/>
      <point x="325" y="270"/>
      <point x="340.0" y="245.0"/>
      <point x="340" y="209" type="curve"/>
      <point x="340" y="163"/>
      <point x="306.0" y="139.0"/>
      <point x="252" y="139" type="curve"/>
      <point x="212" y="139"/>
      <point x="196" y="168"/>
      <point x="186" y="209" type="curve"/>
      <point x="69" y="132"/>
      <point x="186" y="209"/>
      <point x="69" y="132" type="curve"/>
      <point x="86" y="44"/>
      <point x="156" y="23"/>
      <point x="252" y="23" type="curve"/>
      <point x="391.0" y="23.0"/>
      <point x="483" y="84"/>
      <point x="483" y="209" type="curve"/>
      <point x="481" y="319"/>
      <point x="419.0" y="381.0"/>
      <point x="313" y="381" type="curve"/>
      <point x="261" y="381"/>
      <point x="233" y="373"/>
      <point x="182" y="347" type="curve"/>
    </contour>
    <contour>
      <point x="293" y="566"/>
      <point x="436" y="456"/>
      <point x="293" y="566" type="curve"/>
      <point x="267" y="566"/>
      <point x="242" y="566"/>
      <point x="216" y="566" type="curve"/>
      <point x="106" y="566"/>
      <point x="32" y="517"/>
      <point x="32" y="410" type="curve"/>
      <point x="32" y="317"/>
      <point x="88" y="274"/>
      <point x="160" y="221" type="curve"/>
      <point x="182" y="347"/>
      <point x="160" y="221"/>
      <point x="182" y="347" type="curve"/>
      <point x="164.928555705" y="370.710339299"/>
      <point x="161" y="389"/>
      <point x="161" y="410" type="curve"/>
      <point x="161" y="439"/>
      <point x="178.711864407" y="456.0"/>
      <point x="216" y="456" type="curve"/>
      <point x="289" y="456"/>
      <point x="363" y="456"/>
      <point x="436" y="456" type="curve"/>
    </contour>
    <contour>
      <point x="-11" y="612"/>
      <point x="-11" y="722"/>
      <point x="-11" y="612" type="curve"/>
      <point x="135" y="612"/>
      <point x="387" y="612"/>
      <point x="533" y="612" type="curve"/>
      <point x="533" y="722"/>
      <point x="533" y="612"/>
      <point x="533" y="722" type="curve"/>
      <point x="387" y="722"/>
      <point x="135" y="722"/>
      <point x="-11" y="722" type="curve"/>
    </contour>
    <contour>
      <point x="69" y="132"/>
      <point x="186" y="209"/>
      <point x="69" y="132" type="curve"/>
      <point x="126" y="52"/>
      <point x="179" y="-31"/>
      <point x="237" y="-111" type="curve"/>
      <point x="367" y="-28"/>
      <point x="237" y="-111"/>
      <point x="367" y="-28" type="curve"/>
      <point x="308" y="52"/>
      <point x="245" y="129"/>
      <point x="186" y="209" type="curve"/>
    </contour>
    <contour>
      <point x="411" y="722"/>
      <point x="411" y="612"/>
      <point x="411" y="722" type="curve"/>
      <point x="358" y="722"/>
      <point x="327" y="771"/>
      <point x="327" y="824" type="curve"/>
      <point x="328" y="863"/>
      <point x="352" y="895"/>
      <point x="388" y="895" type="curve"/>
      <point x="412" y="895"/>
      <point x="427" y="892"/>
      <point x="453" y="877" type="curve"/>
      <point x="512" y="971"/>
      <point x="453" y="877"/>
      <point x="512" y="971" type="curve"/>
      <point x="471" y="997"/>
      <point x="445" y="1009"/>
      <point x="397" y="1009" type="curve"/>
      <point x="273" y="1009"/>
      <point x="190" y="930"/>
      <point x="190" y="813" type="curve"/>
      <point x="190" y="694"/>
      <point x="288" y="612"/>
      <point x="411" y="612" type="curve"/>
    </contour>
  </outline>
</glyph>
<glyph name="dvU" format="1">
  <advance width="460"/>
  <unicode hex="0909"/>
  <outline>
    <contour>
      <point x="14" y="104"/>
      <point x="111" y="176"/>
      <point x="14" y="104" type="curve"/>
      <point x="56" y="47"/>
      <point x="116" y="9"/>
      <point x="194" y="9" type="curve"/>
      <point x="330" y="2"/>
      <point x="429" y="84"/>
      <point x="429" y="213" type="curve"/>
      <point x="429" y="351"/>
      <point x="307" y="421"/>
      <point x="158" y="421" type="curve"/>
      <point x="158" y="327"/>
      <point x="158" y="421"/>
      <point x="158" y="327" type="curve"/>
      <point x="232" y="327"/>
      <point x="286" y="277"/>
      <point x="286" y="207" type="curve"/>
      <point x="286" y="158"/>
      <point x="256" y="117"/>
      <point x="207" y="119" type="curve"/>
      <point x="164" y="119"/>
      <point x="136" y="146"/>
      <point x="111" y="176" type="curve"/>
    </contour>
    <contour>
      <point x="207.0" y="612.0"/>
      <point x="207" y="716"/>
      <point x="207" y="612" type="curve"/>
      <point x="256.0" y="612.0"/>
      <point x="270" y="569"/>
      <point x="270" y="520" type="curve"/>
      <point x="270" y="460"/>
      <point x="219.0" y="426.0"/>
      <point x="158" y="426" type="curve"/>
      <point x="158" y="327"/>
      <point x="158" y="426"/>
      <point x="158" y="327" type="curve"/>
      <point x="298" y="327"/>
      <point x="413" y="390"/>
      <point x="413" y="519" type="curve"/>
      <point x="413" y="637"/>
      <point x="328" y="716"/>
      <point x="207" y="716" type="curve"/>
    </contour>
    <contour>
      <point x="473" y="722"/>
      <point x="473" y="612"/>
      <point x="473" y="722" type="curve"/>
      <point x="308.467956469" y="722.0"/>
      <point x="143.978401728" y="722.0"/>
      <point x="-20" y="722" type="curve"/>
      <point x="-21" y="612"/>
      <point x="-20" y="722"/>
      <point x="-21" y="612" type="curve"/>
      <point x="144.021551724" y="612.0"/>
      <point x="308.134220073" y="612.0"/>
      <point x="473" y="612" type="curve"/>
    </contour>
  </outline>
</glyph>
<glyph name="dvUU" format="1">
  <advance width="723"/>
  <unicode hex="090A"/>
  <outline>
    <contour>
      <point x="730" y="722"/>
      <point x="730" y="612"/>
      <point x="730" y="722" type="curve"/>
      <point x="514" y="722"/>
      <point x="207" y="722"/>
      <point x="-9" y="722" type="curve"/>
      <point x="-10" y="612"/>
      <point x="-9" y="722"/>
      <point x="-10" y="612" type="curve"/>
      <point x="207" y="612"/>
      <point x="514" y="612"/>
      <point x="730" y="612" type="curve"/>
    </contour>
    <contour>
      <point x="228" y="616"/>
      <point x="228" y="716"/>
      <point x="228" y="616" type="curve"/>
      <point x="277" y="616"/>
      <point x="291" y="565"/>
      <point x="291" y="508" type="curve"/>
      <point x="291" y="456"/>
      <point x="240" y="426"/>
      <point x="179" y="426" type="curve"/>
      <point x="179" y="327"/>
      <point x="179" y="426"/>
      <point x="179" y="327" type="curve"/>
      <point x="319" y="327"/>
      <point x="434" y="390"/>
      <point x="434" y="519" type="curve"/>
      <point x="434" y="637"/>
      <point x="349" y="716"/>
      <point x="228" y="716" type="curve"/>
    </contour>
    <contour>
      <point x="35" y="104"/>
      <point x="132" y="176"/>
      <point x="35" y="104" type="curve"/>
      <point x="77" y="47"/>
      <point x="137" y="9"/>
      <point x="215" y="9" type="curve"/>
      <point x="351" y="2"/>
      <point x="450" y="84"/>
      <point x="450" y="213" type="curve"/>
      <point x="450" y="351"/>
      <point x="328" y="421"/>
      <point x="179" y="421" type="curve"/>
      <point x="179" y="327"/>
      <point x="179" y="421"/>
      <point x="179" y="327" type="curve"/>
      <point x="253" y="327"/>
      <point x="307" y="277"/>
      <point x="307" y="207" type="curve"/>
      <point x="307" y="158"/>
      <point x="277" y="117"/>
      <point x="228" y="119" type="curve"/>
      <point x="185" y="119"/>
      <point x="157" y="146"/>
      <point x="132" y="176" type="curve"/>
    </contour>
    <contour>
      <point x="413" y="258"/>
      <point x="303" y="324"/>
      <point x="413" y="258" type="curve"/>
      <point x="425" y="309"/>
      <point x="442" y="356"/>
      <point x="493" y="356" type="curve"/>
      <point x="532" y="356"/>
      <point x="556" y="315"/>
      <point x="556" y="270" type="curve"/>
      <point x="557" y="215"/>
      <point x="531" y="167"/>
      <point x="483" y="167" type="curve"/>
      <point x="483" y="45"/>
      <point x="483" y="167"/>
      <point x="483" y="45" type="curve"/>
      <point x="607" y="45"/>
      <point x="692" y="134"/>
      <point x="692" y="259" type="curve"/>
      <point x="692" y="381"/>
      <point x="606" y="467"/>
      <point x="484" y="467" type="curve"/>
      <point x="391" y="467"/>
      <point x="352" y="402"/>
      <point x="303" y="324" type="curve"/>
    </contour>
  </outline>
</glyph>
<glyph name="dvEcandra" format="1">
  <advance width="509"/>
  <unicode hex="090D"/>
  <outline>
    <contour>
      <point x="314" y="964"/>
      <point x="450" y="964"/>
      <point x="314" y="964" type="curve"/>
      <point x="314" y="921"/>
      <point x="301" y="887"/>
      <point x="263" y="887" type="curve"/>
      <point x="222" y="887"/>
      <point x="203" y="919"/>
      <point x="203" y="964" type="curve"/>
      <point x="66" y="964"/>
      <point x="203" y="964"/>
      <point x="66" y="964" type="curve"/>
      <point x="66" y="842"/>
      <point x="133" y="760"/>
      <point x="250" y="760" type="curve"/>
      <point x="374" y="760"/>
      <point x="450" y="839"/>
      <point x="450" y="964" type="curve"/>
    </contour>
    <contour>
      <point x="380" y="100"/>
      <point x="335" y="-10"/>
      <point x="380" y="100" type="curve"/>
      <point x="242" y="166"/>
      <point x="183" y="280"/>
      <point x="183" y="434" type="curve"/>
      <point x="183" y="511"/>
      <point x="183" y="589"/>
      <point x="183" y="666" type="curve"/>
      <point x="40" y="666"/>
      <point x="183" y="666"/>
      <point x="40" y="666" type="curve"/>
      <point x="39" y="581"/>
      <point x="39" y="496"/>
      <point x="39" y="412" type="curve"/>
      <point x="39" y="209"/>
      <point x="148" y="75"/>
      <point x="335" y="-10" type="curve"/>
    </contour>
    <contour>
      <point x="512" y="722"/>
      <point x="512" y="612"/>
      <point x="512" y="722" type="curve"/>
      <point x="358" y="722"/>
      <point x="144" y="722"/>
      <point x="-10" y="722" type="curve"/>
      <point x="-10" y="612"/>
      <point x="-10" y="722"/>
      <point x="-10" y="612" type="curve"/>
      <point x="144" y="612"/>
      <point x="358" y="612"/>
      <point x="512" y="612" type="curve"/>
    </contour>
    <contour>
      <point x="333" y="225"/>
      <point x="248" y="324"/>
      <point x="333" y="225" type="curve"/>
      <point x="426" y="294"/>
      <point x="466" y="380"/>
      <point x="466" y="497" type="curve"/>
      <point x="466" y="553"/>
      <point x="466" y="610"/>
      <point x="466" y="666" type="curve"/>
      <point x="323" y="666"/>
      <point x="466" y="666"/>
      <point x="323" y="666" type="curve"/>
      <point x="323" y="604"/>
      <point x="323" y="542"/>
      <point x="323" y="480" type="curve"/>
      <point x="323" y="414"/>
      <point x="302" y="364"/>
      <point x="248" y="324" type="curve"/>
    </contour>
  </outline>
</glyph>
<glyph name="dvE" format="1">
  <advance width="540"/>
  <unicode hex="090F"/>
  <outline>
    <contour>
      <point x="347" y="225"/>
      <point x="262" y="324"/>
      <point x="347" y="225" type="curve"/>
      <point x="440" y="294"/>
      <point x="480" y="380"/>
      <point x="480" y="497" type="curve"/>
      <point x="480" y="553"/>
      <point x="480" y="610"/>
      <point x="480" y="666" type="curve"/>
      <point x="337" y="666"/>
      <point x="480" y="666"/>
      <point x="337" y="666" type="curve"/>
      <point x="337" y="604"/>
      <point x="337" y="542"/>
      <point x="337" y="480" type="curve"/>
      <point x="337" y="414"/>
      <point x="316" y="364"/>
      <point x="262" y="324" type="curve"/>
    </contour>
    <contour>
      <point x="543" y="722"/>
      <point x="543" y="612"/>
      <point x="543" y="722" type="curve"/>
      <point x="358.882063882" y="722.0"/>
      <point x="176.0" y="722.0"/>
      <point x="-8" y="722" type="curve"/>
      <point x="-8" y="612"/>
      <point x="-8" y="722"/>
      <point x="-8" y="612" type="curve"/>
      <point x="176.0" y="612.0"/>
      <point x="358.882063882" y="612.0"/>
      <point x="543" y="612" type="curve"/>
    </contour>
    <contour>
      <point x="394" y="100"/>
      <point x="349" y="-10"/>
      <point x="394" y="100" type="curve"/>
      <point x="256" y="166"/>
      <point x="197" y="280"/>
      <point x="197" y="434" type="curve"/>
      <point x="197" y="511"/>
      <point x="197" y="589"/>
      <point x="197" y="666" type="curve"/>
      <point x="54" y="666"/>
      <point x="197" y="666"/>
      <point x="54" y="666" type="curve"/>
      <point x="53" y="581"/>
      <point x="53" y="496"/>
      <point x="53" y="412" type="curve"/>
      <point x="53" y="209"/>
      <point x="162" y="75"/>
      <point x="349" y="-10" type="curve"/>
    </contour>
  </outline>
</glyph>
<glyph name="dvAI" format="1">
  <advance width="534"/>
  <unicode hex="0910"/>
  <outline>
    <contour>
      <point x="353" y="225"/>
      <point x="268" y="324"/>
      <point x="353" y="225" type="curve"/>
      <point x="446" y="294"/>
      <point x="486" y="380"/>
      <point x="486" y="497" type="curve"/>
      <point x="486" y="551"/>
      <point x="486" y="606"/>
      <point x="486" y="661" type="curve"/>
      <point x="343" y="661"/>
      <point x="486" y="661"/>
      <point x="343" y="661" type="curve"/>
      <point x="343" y="601"/>
      <point x="343" y="540"/>
      <point x="343" y="480" type="curve"/>
      <point x="343" y="414"/>
      <point x="322" y="364"/>
      <point x="268" y="324" type="curve"/>
    </contour>
    <contour>
      <point x="540" y="722"/>
      <point x="540" y="612"/>
      <point x="540" y="722" type="curve"/>
      <point x="357.636" y="722.0"/>
      <point x="176.364" y="722.0"/>
      <point x="-6" y="722" type="curve"/>
      <point x="-6" y="612"/>
      <point x="-6" y="722"/>
      <point x="-6" y="612" type="curve"/>
      <point x="176.364" y="612.0"/>
      <point x="357.636" y="612.0"/>
      <point x="540" y="612" type="curve"/>
    </contour>
    <contour>
      <point x="400" y="100"/>
      <point x="355" y="-10"/>
      <point x="400" y="100" type="curve"/>
      <point x="262" y="166"/>
      <point x="203" y="280"/>
      <point x="203" y="434" type="curve"/>
      <point x="203" y="511"/>
      <point x="203" y="589"/>
      <point x="203" y="666" type="curve"/>
      <point x="60" y="666"/>
      <point x="203" y="666"/>
      <point x="60" y="666" type="curve"/>
      <point x="59" y="581"/>
      <point x="59" y="496"/>
      <point x="59" y="412" type="curve"/>
      <point x="59" y="209"/>
      <point x="168" y="75"/>
      <point x="355" y="-10" type="curve"/>
    </contour>
    <contour>
      <point x="11" y="953"/>
      <point x="148" y="953"/>
      <point x="11" y="953" type="curve"/>
      <point x="11" y="828"/>
      <point x="104" y="783"/>
      <point x="239" y="762" type="curve"/>
      <point x="302" y="752"/>
      <point x="343" y="729"/>
      <point x="343" y="673" type="curve"/>
      <point x="486" y="673"/>
      <point x="343" y="673"/>
      <point x="486" y="673" type="curve"/>
      <point x="486" y="801"/>
      <point x="397" y="858"/>
      <point x="258" y="878" type="curve"/>
      <point x="196" y="887"/>
      <point x="148" y="901"/>
      <point x="148" y="953" type="curve"/>
    </contour>
  </outline>
</glyph>
<glyph name="dvOcandra" format="1">
  <advance width="893"/>
  <unicode hex="0911"/>
  <outline>
    <contour>
      <point x="542" y="0"/>
      <point x="542" y="110"/>
      <point x="542" y="0" type="curve"/>
      <point x="580" y="0"/>
      <point x="522" y="0"/>
      <point x="637" y="0" type="curve"/>
      <point x="637" y="110"/>
      <point x="637" y="0"/>
      <point x="637" y="110" type="curve"/>
      <point x="522" y="110"/>
      <point x="657" y="110"/>
      <point x="542" y="110" type="curve"/>
    </contour>
    <contour>
      <point x="542" y="110"/>
      <point x="542" y="0"/>
      <point x="542" y="110" type="curve"/>
      <point x="420" y="110"/>
      <point x="565" y="110"/>
      <point x="443" y="110" type="curve"/>
      <point x="443" y="0"/>
      <point x="443" y="110"/>
      <point x="443" y="0" type="curve"/>
      <point x="484" y="0"/>
      <point x="502" y="0"/>
      <point x="542" y="0" type="curve"/>
    </contour>
    <contour>
      <point x="37" y="117"/>
      <point x="135" y="189"/>
      <point x="37" y="117" type="curve"/>
      <point x="80" y="60"/>
      <point x="146" y="26"/>
      <point x="217" y="26" type="curve"/>
      <point x="356" y="21"/>
      <point x="454" y="93"/>
      <point x="453" y="226" type="curve"/>
      <point x="451" y="360"/>
      <point x="331" y="411"/>
      <point x="182" y="411" type="curve"/>
      <point x="182" y="318"/>
      <point x="182" y="411"/>
      <point x="182" y="318" type="curve"/>
      <point x="254" y="318"/>
      <point x="309" y="288"/>
      <point x="310" y="221" type="curve"/>
      <point x="310" y="170"/>
      <point x="280" y="135"/>
      <point x="230" y="137" type="curve"/>
      <point x="191" y="137"/>
      <point x="159" y="159"/>
      <point x="135" y="189" type="curve"/>
    </contour>
    <contour>
      <point x="912" y="722"/>
      <point x="912" y="612"/>
      <point x="912" y="722" type="curve"/>
      <point x="806" y="722"/>
      <point x="639" y="722"/>
      <point x="533" y="722" type="curve"/>
      <point x="533" y="612"/>
      <point x="533" y="722"/>
      <point x="533" y="612" type="curve"/>
      <point x="639" y="612"/>
      <point x="806" y="612"/>
      <point x="912" y="612" type="curve"/>
    </contour>
    <contour>
      <point x="747" y="110"/>
      <point x="747" y="0"/>
      <point x="747" y="110" type="curve"/>
      <point x="625" y="110"/>
      <point x="775" y="110"/>
      <point x="653" y="110" type="curve"/>
      <point x="653" y="0"/>
      <point x="653" y="110"/>
      <point x="653" y="0" type="curve"/>
      <point x="693" y="0"/>
      <point x="706" y="0"/>
      <point x="747" y="0" type="curve"/>
    </contour>
    <contour>
      <point x="148" y="566"/>
      <point x="64" y="660"/>
      <point x="148" y="566" type="curve"/>
      <point x="174" y="588"/>
      <point x="189" y="612"/>
      <point x="222" y="612" type="curve"/>
      <point x="268" y="612"/>
      <point x="287" y="572"/>
      <point x="286" y="522" type="curve"/>
      <point x="286" y="465"/>
      <point x="242" y="435"/>
      <point x="182" y="435" type="curve"/>
      <point x="182" y="336"/>
      <point x="182" y="435"/>
      <point x="182" y="336" type="curve"/>
      <point x="324" y="336"/>
      <point x="429" y="400"/>
      <point x="429" y="533" type="curve"/>
      <point x="429" y="648"/>
      <point x="356" y="722"/>
      <point x="242" y="722" type="curve"/>
      <point x="170" y="722"/>
      <point x="118" y="707"/>
      <point x="64" y="660" type="curve"/>
    </contour>
    <contour>
      <point x="149" y="117"/>
      <point x="37" y="117"/>
      <point x="149" y="117" type="curve"/>
      <point x="149" y="237"/>
      <point x="149" y="146"/>
      <point x="149" y="266" type="curve"/>
      <point x="37" y="266"/>
      <point x="149" y="266"/>
      <point x="37" y="266" type="curve"/>
      <point x="37" y="146"/>
      <point x="37" y="237"/>
      <point x="37" y="117" type="curve"/>
    </contour>
    <contour>
      <point x="747" y="0"/>
      <point x="747" y="110"/>
      <point x="747" y="0" type="curve"/>
      <point x="790" y="0"/>
      <point x="834" y="0"/>
      <point x="877" y="0" type="curve"/>
      <point x="877" y="110"/>
      <point x="877" y="0"/>
      <point x="877" y="110" type="curve"/>
      <point x="747" y="110"/>
      <point x="877" y="110"/>
      <point x="747" y="110" type="curve"/>
    </contour>
    <contour>
      <point x="470" y="722"/>
      <point x="613" y="722"/>
      <point x="470" y="722" type="curve"/>
      <point x="470" y="481"/>
      <point x="470" y="241"/>
      <point x="470" y="0" type="curve"/>
      <point x="613" y="0"/>
      <point x="470" y="0"/>
      <point x="613" y="0" type="curve"/>
      <point x="613" y="241"/>
      <point x="613" y="481"/>
      <point x="613" y="722" type="curve"/>
    </contour>
    <contour>
      <point x="517" y="447"/>
      <point x="562" y="364"/>
      <point x="517" y="447" type="curve"/>
      <point x="426" y="397"/>
      <point x="347" y="395"/>
      <point x="245" y="415" type="curve"/>
      <point x="213" y="349"/>
      <point x="245" y="415"/>
      <point x="213" y="349" type="curve"/>
      <point x="345" y="321"/>
      <point x="450" y="293"/>
      <point x="562" y="364" type="curve"/>
    </contour>
    <contour>
      <point x="674" y="722"/>
      <point x="817" y="722"/>
      <point x="674" y="722" type="curve"/>
      <point x="674" y="481"/>
      <point x="674" y="241"/>
      <point x="674" y="0" type="curve"/>
      <point x="817" y="0"/>
      <point x="674" y="0"/>
      <point x="817" y="0" type="curve"/>
      <point x="817" y="241"/>
      <point x="817" y="481"/>
      <point x="817" y="722" type="curve"/>
    </contour>
    <contour>
      <point x="705" y="954"/>
      <point x="841" y="954"/>
      <point x="705" y="954" type="curve"/>
      <point x="705" y="911"/>
      <point x="692" y="877"/>
      <point x="654" y="877" type="curve"/>
      <point x="613" y="877"/>
      <point x="594" y="909"/>
      <point x="594" y="954" type="curve"/>
      <point x="457" y="954"/>
      <point x="594" y="954"/>
      <point x="457" y="954" type="curve"/>
      <point x="457" y="832"/>
      <point x="523" y="750"/>
      <point x="641" y="750" type="curve"/>
      <point x="765" y="750"/>
      <point x="841" y="829"/>
      <point x="841" y="954" type="curve"/>
    </contour>
  </outline>
</glyph>
<glyph name="dvO" format="1">
  <advance width="884"/>
  <unicode hex="0913"/>
  <outline>
    <contour>
      <point x="501" y="447"/>
      <point x="546" y="364"/>
      <point x="501" y="447" type="curve"/>
      <point x="410" y="397"/>
      <point x="331" y="395"/>
      <point x="229" y="415" type="curve"/>
      <point x="197" y="349"/>
      <point x="229" y="415"/>
      <point x="197" y="349" type="curve"/>
      <point x="329" y="321"/>
      <point x="434" y="293"/>
      <point x="546" y="364" type="curve"/>
    </contour>
    <contour>
      <point x="21" y="117"/>
      <point x="119" y="189"/>
      <point x="21" y="117" type="curve"/>
      <point x="64" y="60"/>
      <point x="130" y="26"/>
      <point x="201" y="26" type="curve"/>
      <point x="340" y="21"/>
      <point x="438" y="93"/>
      <point x="437" y="226" type="curve"/>
      <point x="435" y="360"/>
      <point x="315" y="411"/>
      <point x="166" y="411" type="curve"/>
      <point x="166" y="318"/>
      <point x="166" y="411"/>
      <point x="166" y="318" type="curve"/>
      <point x="238" y="318"/>
      <point x="293" y="288"/>
      <point x="294" y="221" type="curve"/>
      <point x="294" y="170"/>
      <point x="264" y="135"/>
      <point x="214" y="137" type="curve"/>
      <point x="175" y="137"/>
      <point x="143" y="159"/>
      <point x="119" y="189" type="curve"/>
    </contour>
    <contour>
      <point x="133" y="117"/>
      <point x="21" y="117"/>
      <point x="133" y="117" type="curve"/>
      <point x="133" y="237"/>
      <point x="133" y="117"/>
      <point x="133" y="237" type="curve"/>
      <point x="21" y="237"/>
      <point x="133" y="237"/>
      <point x="21" y="237" type="curve"/>
      <point x="21" y="117"/>
      <point x="21" y="237"/>
      <point x="21" y="117" type="curve"/>
    </contour>
    <contour>
      <point x="884" y="722"/>
      <point x="884" y="612"/>
      <point x="884" y="722" type="curve"/>
      <point x="778" y="722"/>
      <point x="623" y="722"/>
      <point x="517" y="722" type="curve"/>
      <point x="517" y="612"/>
      <point x="517" y="722"/>
      <point x="517" y="612" type="curve"/>
      <point x="623" y="612"/>
      <point x="778" y="612"/>
      <point x="884" y="612" type="curve"/>
    </contour>
    <contour>
      <point x="526" y="110"/>
      <point x="526" y="0"/>
      <point x="526" y="110" type="curve"/>
      <point x="404" y="110"/>
      <point x="548" y="110"/>
      <point x="426" y="110" type="curve"/>
      <point x="426" y="0"/>
      <point x="426" y="110"/>
      <point x="426" y="0" type="curve"/>
      <point x="467" y="0"/>
      <point x="486" y="0"/>
      <point x="526" y="0" type="curve"/>
    </contour>
    <contour>
      <point x="132" y="566"/>
      <point x="48" y="660"/>
      <point x="132" y="566" type="curve"/>
      <point x="158" y="588"/>
      <point x="173" y="605"/>
      <point x="206" y="605" type="curve"/>
      <point x="252" y="605"/>
      <point x="271" y="572"/>
      <point x="270" y="522" type="curve"/>
      <point x="270" y="465"/>
      <point x="226" y="435"/>
      <point x="166" y="435" type="curve"/>
      <point x="166" y="336"/>
      <point x="166" y="435"/>
      <point x="166" y="336" type="curve"/>
      <point x="308" y="336"/>
      <point x="413" y="400"/>
      <point x="413" y="533" type="curve"/>
      <point x="413" y="648"/>
      <point x="340" y="722"/>
      <point x="226" y="722" type="curve"/>
      <point x="154" y="722"/>
      <point x="102" y="707"/>
      <point x="48" y="660" type="curve"/>
    </contour>
    <contour>
      <point x="526" y="0"/>
      <point x="526" y="110"/>
      <point x="526" y="0" type="curve"/>
      <point x="564" y="0"/>
      <point x="506" y="0"/>
      <point x="621" y="0" type="curve"/>
      <point x="621" y="110"/>
      <point x="621" y="0"/>
      <point x="621" y="110" type="curve"/>
      <point x="506" y="110"/>
      <point x="641" y="110"/>
      <point x="526" y="110" type="curve"/>
    </contour>
    <contour>
      <point x="658" y="722"/>
      <point x="801" y="722"/>
      <point x="658" y="722" type="curve"/>
      <point x="658" y="481"/>
      <point x="658" y="241"/>
      <point x="658" y="0" type="curve"/>
      <point x="801" y="0"/>
      <point x="658" y="0"/>
      <point x="801" y="0" type="curve"/>
      <point x="801" y="241"/>
      <point x="801" y="481"/>
      <point x="801" y="722" type="curve"/>
    </contour>
    <contour>
      <point x="454" y="722"/>
      <point x="597" y="722"/>
      <point x="454" y="722" type="curve"/>
      <point x="454" y="481"/>
      <point x="454" y="241"/>
      <point x="454" y="0" type="curve"/>
      <point x="597" y="0"/>
      <point x="454" y="0"/>
      <point x="597" y="0" type="curve"/>
      <point x="597" y="241"/>
      <point x="597" y="481"/>
      <point x="597" y="722" type="curve"/>
    </contour>
    <contour>
      <point x="731" y="110"/>
      <point x="731" y="0"/>
      <point x="731" y="110" type="curve"/>
      <point x="609" y="110"/>
      <point x="758" y="110"/>
      <point x="636" y="110" type="curve"/>
      <point x="636" y="0"/>
      <point x="636" y="110"/>
      <point x="636" y="0" type="curve"/>
      <point x="676" y="0"/>
      <point x="690" y="0"/>
      <point x="731" y="0" type="curve"/>
    </contour>
    <contour>
      <point x="731" y="0"/>
      <point x="731" y="110"/>
      <point x="731" y="0" type="curve"/>
      <point x="774" y="0"/>
      <point x="818" y="0"/>
      <point x="861" y="0" type="curve"/>
      <point x="861" y="110"/>
      <point x="861" y="0"/>
      <point x="861" y="110" type="curve"/>
      <point x="731" y="110"/>
      <point x="861" y="110"/>
      <point x="731" y="110" type="curve"/>
    </contour>
    <contour>
      <point x="446" y="861"/>
      <point x="381" y="983"/>
      <point x="446" y="861" type="curve"/>
      <point x="466" y="871"/>
      <point x="478" y="881"/>
      <point x="501" y="881" type="curve"/>
      <point x="617" y="881"/>
      <point x="623" y="761"/>
      <point x="667" y="649" type="curve"/>
      <point x="797" y="677"/>
      <point x="667" y="649"/>
      <point x="797" y="677" type="curve"/>
      <point x="734" y="845"/>
      <point x="692" y="1016"/>
      <point x="521" y="1016" type="curve"/>
      <point x="469" y="1016"/>
      <point x="427" y="1006"/>
      <point x="381" y="983" type="curve"/>
    </contour>
  </outline>
</glyph>
<glyph name="dvAU" format="1">
  <advance width="893"/>
  <unicode hex="0914"/>
  <outline>
    <contour>
      <point x="542" y="0"/>
      <point x="542" y="110"/>
      <point x="542" y="0" type="curve"/>
      <point x="580" y="0"/>
      <point x="522" y="0"/>
      <point x="637" y="0" type="curve"/>
      <point x="637" y="110"/>
      <point x="637" y="0"/>
      <point x="637" y="110" type="curve"/>
      <point x="522" y="110"/>
      <point x="657" y="110"/>
      <point x="542" y="110" type="curve"/>
    </contour>
    <contour>
      <point x="542" y="110"/>
      <point x="542" y="0"/>
      <point x="542" y="110" type="curve"/>
      <point x="420" y="110"/>
      <point x="565" y="110"/>
      <point x="443" y="110" type="curve"/>
      <point x="443" y="0"/>
      <point x="443" y="110"/>
      <point x="443" y="0" type="curve"/>
      <point x="484" y="0"/>
      <point x="502" y="0"/>
      <point x="542" y="0" type="curve"/>
    </contour>
    <contour>
      <point x="22" y="117"/>
      <point x="120" y="189"/>
      <point x="22" y="117" type="curve"/>
      <point x="65" y="60"/>
      <point x="131" y="26"/>
      <point x="202" y="26" type="curve"/>
      <point x="341" y="21"/>
      <point x="439" y="93"/>
      <point x="438" y="226" type="curve"/>
      <point x="436" y="360"/>
      <point x="316" y="411"/>
      <point x="167" y="411" type="curve"/>
      <point x="167" y="318"/>
      <point x="167" y="411"/>
      <point x="167" y="318" type="curve"/>
      <point x="239" y="318"/>
      <point x="294" y="288"/>
      <point x="295" y="221" type="curve"/>
      <point x="295" y="170"/>
      <point x="265" y="135"/>
      <point x="215" y="137" type="curve"/>
      <point x="176" y="137"/>
      <point x="144" y="159"/>
      <point x="120" y="189" type="curve"/>
    </contour>
    <contour>
      <point x="912" y="722"/>
      <point x="912" y="612"/>
      <point x="912" y="722" type="curve"/>
      <point x="806" y="722"/>
      <point x="639" y="722"/>
      <point x="533" y="722" type="curve"/>
      <point x="533" y="612"/>
      <point x="533" y="722"/>
      <point x="533" y="612" type="curve"/>
      <point x="639" y="612"/>
      <point x="806" y="612"/>
      <point x="912" y="612" type="curve"/>
    </contour>
    <contour>
      <point x="747" y="110"/>
      <point x="747" y="0"/>
      <point x="747" y="110" type="curve"/>
      <point x="625" y="110"/>
      <point x="775" y="110"/>
      <point x="653" y="110" type="curve"/>
      <point x="653" y="0"/>
      <point x="653" y="110"/>
      <point x="653" y="0" type="curve"/>
      <point x="693" y="0"/>
      <point x="706" y="0"/>
      <point x="747" y="0" type="curve"/>
    </contour>
    <contour>
      <point x="133" y="566"/>
      <point x="49" y="660"/>
      <point x="133" y="566" type="curve"/>
      <point x="159" y="588"/>
      <point x="174" y="612"/>
      <point x="207" y="612" type="curve"/>
      <point x="253" y="612"/>
      <point x="272" y="572"/>
      <point x="271" y="522" type="curve"/>
      <point x="271" y="465"/>
      <point x="227" y="435"/>
      <point x="167" y="435" type="curve"/>
      <point x="167" y="336"/>
      <point x="167" y="435"/>
      <point x="167" y="336" type="curve"/>
      <point x="309" y="336"/>
      <point x="414" y="400"/>
      <point x="414" y="533" type="curve"/>
      <point x="414" y="648"/>
      <point x="341" y="722"/>
      <point x="227" y="722" type="curve"/>
      <point x="155" y="722"/>
      <point x="103" y="707"/>
      <point x="49" y="660" type="curve"/>
    </contour>
    <contour>
      <point x="134" y="117"/>
      <point x="22" y="117"/>
      <point x="134" y="117" type="curve"/>
      <point x="134" y="237"/>
      <point x="134" y="146"/>
      <point x="134" y="266" type="curve"/>
      <point x="22" y="266"/>
      <point x="134" y="266"/>
      <point x="22" y="266" type="curve"/>
      <point x="22" y="146"/>
      <point x="22" y="237"/>
      <point x="22" y="117" type="curve"/>
    </contour>
    <contour>
      <point x="747" y="0"/>
      <point x="747" y="110"/>
      <point x="747" y="0" type="curve"/>
      <point x="790" y="0"/>
      <point x="834" y="0"/>
      <point x="877" y="0" type="curve"/>
      <point x="877" y="110"/>
      <point x="877" y="0"/>
      <point x="877" y="110" type="curve"/>
      <point x="747" y="110"/>
      <point x="877" y="110"/>
      <point x="747" y="110" type="curve"/>
    </contour>
    <contour>
      <point x="470" y="722"/>
      <point x="613" y="722"/>
      <point x="470" y="722" type="curve"/>
      <point x="470" y="481"/>
      <point x="470" y="241"/>
      <point x="470" y="0" type="curve"/>
      <point x="613" y="0"/>
      <point x="470" y="0"/>
      <point x="613" y="0" type="curve"/>
      <point x="613" y="241"/>
      <point x="613" y="481"/>
      <point x="613" y="722" type="curve"/>
    </contour>
    <contour>
      <point x="502" y="447"/>
      <point x="547" y="364"/>
      <point x="502" y="447" type="curve"/>
      <point x="411" y="397"/>
      <point x="332" y="395"/>
      <point x="230" y="415" type="curve"/>
      <point x="198" y="349"/>
      <point x="230" y="415"/>
      <point x="198" y="349" type="curve"/>
      <point x="330" y="321"/>
      <point x="435" y="293"/>
      <point x="547" y="364" type="curve"/>
    </contour>
    <contour>
      <point x="674" y="722"/>
      <point x="817" y="722"/>
      <point x="674" y="722" type="curve"/>
      <point x="674" y="481"/>
      <point x="674" y="241"/>
      <point x="674" y="0" type="curve"/>
      <point x="817" y="0"/>
      <point x="674" y="0"/>
      <point x="817" y="0" type="curve"/>
      <point x="817" y="241"/>
      <point x="817" y="481"/>
      <point x="817" y="722" type="curve"/>
    </contour>
    <component base="dvmAI" xOffset="776"/>
  </outline>
</glyph>
<glyph name="dvKA" format="1">
  <advance width="704"/>
  <unicode hex="0915"/>
  <outline>
    <contour>
      <point x="353" y="110"/>
      <point x="353" y="0"/>
      <point x="353" y="110" type="curve"/>
      <point x="216" y="110"/>
      <point x="353" y="110"/>
      <point x="216" y="110" type="curve"/>
      <point x="216" y="0"/>
      <point x="216" y="110"/>
      <point x="216" y="0" type="curve"/>
      <point x="262" y="0"/>
      <point x="308" y="0"/>
      <point x="353" y="0" type="curve"/>
    </contour>
    <contour>
      <point x="353" y="0"/>
      <point x="353" y="110"/>
      <point x="353" y="0" type="curve"/>
      <point x="399" y="0"/>
      <point x="445" y="0"/>
      <point x="491" y="0" type="curve"/>
      <point x="491" y="110"/>
      <point x="491" y="0"/>
      <point x="491" y="110" type="curve"/>
      <point x="353" y="110"/>
      <point x="491" y="110"/>
      <point x="353" y="110" type="curve"/>
    </contour>
    <contour>
      <point x="-3" y="612"/>
      <point x="-3" y="722"/>
      <point x="-3" y="612" type="curve"/>
      <point x="235" y="612"/>
      <point x="473" y="612"/>
      <point x="711" y="612" type="curve"/>
      <point x="711" y="722"/>
      <point x="711" y="612"/>
      <point x="711" y="722" type="curve"/>
      <point x="473" y="722"/>
      <point x="235" y="722"/>
      <point x="-3" y="722" type="curve"/>
    </contour>
    <contour>
      <point x="281" y="710"/>
      <point x="424" y="710"/>
      <point x="281" y="710" type="curve"/>
      <point x="281" y="473"/>
      <point x="281" y="237"/>
      <point x="281" y="0" type="curve"/>
      <point x="424" y="0"/>
      <point x="281" y="0"/>
      <point x="424" y="0" type="curve"/>
      <point x="424" y="237"/>
      <point x="424" y="473"/>
      <point x="424" y="710" type="curve"/>
    </contour>
    <contour>
      <point x="303" y="356"/>
      <point x="401" y="323"/>
      <point x="303" y="356" type="curve"/>
      <point x="289" y="306"/>
      <point x="258" y="273"/>
      <point x="212" y="273" type="curve"/>
      <point x="172" y="273"/>
      <point x="159" y="317"/>
      <point x="159" y="364" type="curve"/>
      <point x="159" y="413"/>
      <point x="173" y="457"/>
      <point x="215" y="457" type="curve"/>
      <point x="260" y="457"/>
      <point x="288" y="426"/>
      <point x="308" y="380" type="curve"/>
      <point x="393" y="424"/>
      <point x="308" y="380"/>
      <point x="393" y="424" type="curve"/>
      <point x="362" y="511"/>
      <point x="299" y="568"/>
      <point x="215" y="568" type="curve"/>
      <point x="100" y="568"/>
      <point x="16" y="486"/>
      <point x="16" y="369" type="curve"/>
      <point x="16" y="250"/>
      <point x="97" y="163"/>
      <point x="212" y="163" type="curve"/>
      <point x="307" y="163"/>
      <point x="374" y="223"/>
      <point x="401" y="323" type="curve"/>
    </contour>
    <contour>
      <point x="399" y="377"/>
      <point x="308" y="399"/>
      <point x="399" y="377" type="curve"/>
      <point x="410" y="426"/>
      <point x="437" y="458"/>
      <point x="485" y="458" type="curve"/>
      <point x="524" y="458"/>
      <point x="540" y="424"/>
      <point x="540" y="381" type="curve"/>
      <point x="540" y="337"/>
      <point x="529" y="304"/>
      <point x="496" y="276" type="curve"/>
      <point x="574" y="188"/>
      <point x="496" y="276"/>
      <point x="574" y="188" type="curve"/>
      <point x="639" y="241"/>
      <point x="683" y="291"/>
      <point x="683" y="375" type="curve"/>
      <point x="683" y="495"/>
      <point x="604" y="569"/>
      <point x="485" y="569" type="curve"/>
      <point x="386" y="569"/>
      <point x="329" y="502"/>
      <point x="308" y="399" type="curve"/>
    </contour>
  </outline>
</glyph>
<glyph name="dvKH" format="1">
  <advance width="712.0"/>
  <unicode hex="0916"/>
  <outline>
    <contour>
      <point x="-22" y="612"/>
      <point x="-22" y="722"/>
      <point x="-22" y="612" type="curve"/>
      <point x="179" y="612"/>
      <point x="482" y="612"/>
      <point x="683" y="612" type="curve"/>
      <point x="683" y="722"/>
      <point x="683" y="612"/>
      <point x="683" y="722" type="curve"/>
      <point x="482" y="722"/>
      <point x="179" y="722"/>
      <point x="-22" y="722" type="curve"/>
    </contour>
    <contour>
      <point x="683" y="376"/>
      <point x="540" y="376"/>
      <point x="683" y="376" type="curve"/>
      <point x="683" y="481"/>
      <point x="608" y="549"/>
      <point x="502" y="549" type="curve"/>
      <point x="401" y="549"/>
      <point x="332" y="480"/>
      <point x="332" y="380" type="curve"/>
      <point x="332" y="277"/>
      <point x="402" y="208"/>
      <point x="503" y="208" type="curve"/>
      <point x="607" y="208"/>
      <point x="683" y="273"/>
      <point x="683" y="376" type="curve"/>
      <point x="540" y="376"/>
      <point x="683" y="376"/>
      <point x="540" y="376" type="curve"/>
      <point x="540" y="345"/>
      <point x="530" y="318"/>
      <point x="503" y="318" type="curve"/>
      <point x="476" y="318"/>
      <point x="468" y="348"/>
      <point x="468" y="380" type="curve"/>
      <point x="468" y="410"/>
      <point x="476" y="439"/>
      <point x="502" y="439" type="curve"/>
      <point x="531" y="439"/>
      <point x="540" y="409"/>
      <point x="540" y="376" type="curve"/>
    </contour>
    <contour>
      <point x="434" y="289"/>
      <point x="557" y="261"/>
      <point x="434" y="289" type="curve"/>
      <point x="414" y="227"/>
      <point x="370" y="173"/>
      <point x="296" y="173" type="curve"/>
      <point x="164" y="173"/>
      <point x="143" y="314"/>
      <point x="143" y="462" type="curve"/>
      <point x="25" y="435"/>
      <point x="143" y="462"/>
      <point x="25" y="435" type="curve"/>
      <point x="25" y="237"/>
      <point x="93" y="63"/>
      <point x="290" y="63" type="curve"/>
      <point x="427" y="63"/>
      <point x="522" y="146"/>
      <point x="557" y="261" type="curve"/>
    </contour>
    <contour>
      <point x="158" y="634"/>
      <point x="242" y="701"/>
      <point x="158" y="634" type="curve"/>
      <point x="194" y="592"/>
      <point x="209" y="547"/>
      <point x="209" y="491" type="curve"/>
      <point x="209" y="461"/>
      <point x="203" y="427"/>
      <point x="182" y="427" type="curve"/>
      <point x="157" y="427"/>
      <point x="153" y="441"/>
      <point x="143" y="462" type="curve"/>
      <point x="25" y="435"/>
      <point x="143" y="462"/>
      <point x="25" y="435" type="curve"/>
      <point x="58" y="364"/>
      <point x="102" y="316"/>
      <point x="183" y="316" type="curve"/>
      <point x="283" y="316"/>
      <point x="334" y="392"/>
      <point x="334" y="497" type="curve"/>
      <point x="334" y="582"/>
      <point x="298" y="636"/>
      <point x="242" y="701" type="curve"/>
    </contour>
  </outline>
</glyph>
<glyph name="dvGA" format="1">
  <advance width="520"/>
  <unicode hex="0917"/>
  <outline>
    <contour>
      <point x="18" y="288"/>
      <point x="109" y="376"/>
      <point x="18" y="288" type="curve"/>
      <point x="29" y="277"/>
      <point x="40" y="265"/>
      <point x="51" y="254" type="curve"/>
      <point x="181" y="304"/>
      <point x="51" y="254"/>
      <point x="181" y="304" type="curve"/>
      <point x="158" y="328"/>
      <point x="133" y="352"/>
      <point x="109" y="376" type="curve"/>
    </contour>
    <contour>
      <point x="71" y="635"/>
      <point x="182" y="696"/>
      <point x="71" y="635" type="curve"/>
      <point x="142" y="590"/>
      <point x="180" y="526"/>
      <point x="180" y="440" type="curve"/>
      <point x="180" y="391"/>
      <point x="177" y="338"/>
      <point x="134" y="338" type="curve"/>
      <point x="115" y="338"/>
      <point x="109" y="356"/>
      <point x="109" y="376" type="curve"/>
      <point x="18" y="288"/>
      <point x="109" y="376"/>
      <point x="18" y="288" type="curve"/>
      <point x="18" y="243"/>
      <point x="59" y="222"/>
      <point x="108" y="222" type="curve"/>
      <point x="236" y="222"/>
      <point x="305" y="322"/>
      <point x="305" y="459" type="curve"/>
      <point x="304" y="559"/>
      <point x="265" y="639"/>
      <point x="182" y="696" type="curve"/>
    </contour>
    <contour>
      <point x="526" y="722"/>
      <point x="526" y="612"/>
      <point x="526" y="722" type="curve"/>
      <point x="357" y="722"/>
      <point x="158" y="722"/>
      <point x="-10" y="722" type="curve"/>
      <point x="-10" y="612"/>
      <point x="-10" y="722"/>
      <point x="-10" y="612" type="curve"/>
      <point x="158" y="612"/>
      <point x="357" y="612"/>
      <point x="526" y="612" type="curve"/>
    </contour>
    <contour>
      <point x="332" y="710"/>
      <point x="475" y="710"/>
      <point x="332" y="710" type="curve"/>
      <point x="332" y="473"/>
      <point x="332" y="237"/>
      <point x="332" y="0" type="curve"/>
      <point x="475" y="0"/>
      <point x="332" y="0"/>
      <point x="475" y="0" type="curve"/>
      <point x="475" y="237"/>
      <point x="475" y="473"/>
      <point x="475" y="710" type="curve"/>
    </contour>
  </outline>
</glyph>
<glyph name="dvCA" format="1">
  <advance width="574"/>
  <unicode hex="091A"/>
  <outline>
    <contour>
      <point x="49.5" y="431.185897436"/>
      <point x="49.5" y="541.685897436"/>
      <point x="49.5" y="431.185897436" type="curve"/>
      <point x="136.7491275" y="431.185897436"/>
      <point x="224.0008725" y="431.185897436"/>
      <point x="311.25" y="431.185897436" type="curve"/>
      <point x="311.25" y="541.685897436"/>
      <point x="311.25" y="431.185897436"/>
      <point x="311.25" y="541.685897436" type="curve"/>
      <point x="224.0008725" y="541.685897436"/>
      <point x="136.7491275" y="541.685897436"/>
      <point x="49.5" y="541.685897436" type="curve"/>
    </contour>
    <contour>
      <point x="369.5" y="710"/>
      <point x="512.5" y="710"/>
      <point x="369.5" y="710" type="curve"/>
      <point x="369.5" y="473.3357"/>
      <point x="369.5" y="236.6643"/>
      <point x="369.5" y="7.44254511536e-15" type="curve"/>
      <point x="512.5" y="-1.48850902307e-14"/>
      <point x="369.5" y="7.44254511536e-15"/>
      <point x="512.5" y="-1.48850902307e-14" type="curve"/>
      <point x="512.5" y="236.6643"/>
      <point x="512.5" y="473.3357"/>
      <point x="512.5" y="710" type="curve"/>
    </contour>
    <contour>
      <point x="389" y="328"/>
      <point x="470" y="286"/>
      <point x="389" y="327.935505698" type="curve"/>
      <point x="372.277928878" y="287.606444877"/>
      <point x="345.494637411" y="246.388888889"/>
      <point x="298.25" y="246.388888889" type="curve"/>
      <point x="252.625159576" y="246.388888889"/>
      <point x="231.25" y="281.839681257"/>
      <point x="231.25" y="329.354736467" type="curve"/>
      <point x="231.25" y="389.976280846"/>
      <point x="254" y="432"/>
      <point x="311" y="432" type="curve"/>
      <point x="311" y="531"/>
      <point x="311.25" y="435.839814815"/>
      <point x="311.25" y="535.289814815" type="curve"/>
      <point x="229" y="535"/>
      <point x="88.25" y="456.740879769"/>
      <point x="88.25" y="323.829736467" type="curve"/>
      <point x="88.25" y="208.591891773"/>
      <point x="165.212667427" y="135.888888889"/>
      <point x="285.25" y="135.888888889" type="curve"/>
      <point x="385.809135157" y="135.888888889"/>
      <point x="434" y="203"/>
      <point x="470" y="286" type="curve"/>
    </contour>
    <contour>
      <point x="576" y="722"/>
      <point x="576" y="612"/>
      <point x="576" y="722" type="curve"/>
      <point x="391" y="722"/>
      <point x="175.99815" y="722"/>
      <point x="-9.0" y="722" type="curve"/>
      <point x="-9.0" y="611.5"/>
      <point x="-9.0" y="722"/>
      <point x="-9.0" y="611.5" type="curve"/>
      <point x="175.99815" y="611.5"/>
      <point x="391" y="612"/>
      <point x="576" y="612" type="curve"/>
    </contour>
  </outline>
</glyph>
<glyph name="dvJA" format="1">
  <advance width="722"/>
  <unicode hex="091C"/>
  <outline>
    <contour>
      <point x="551" y="0"/>
      <point x="551" y="110"/>
      <point x="551" y="0" type="curve"/>
      <point x="596" y="0"/>
      <point x="642" y="0"/>
      <point x="688" y="0" type="curve"/>
      <point x="688" y="110"/>
      <point x="688" y="0"/>
      <point x="688" y="110" type="curve"/>
      <point x="551" y="110"/>
      <point x="688" y="110"/>
      <point x="551" y="110" type="curve"/>
    </contour>
    <contour>
      <point x="551" y="110"/>
      <point x="551" y="0"/>
      <point x="551" y="110" type="curve"/>
      <point x="421" y="110"/>
      <point x="551" y="110"/>
      <point x="421" y="110" type="curve"/>
      <point x="421" y="0"/>
      <point x="421" y="110"/>
      <point x="421" y="0" type="curve"/>
      <point x="464" y="0"/>
      <point x="508" y="0"/>
      <point x="551" y="0" type="curve"/>
    </contour>
    <contour>
      <point x="479" y="710"/>
      <point x="622" y="710"/>
      <point x="479" y="710" type="curve"/>
      <point x="479" y="473"/>
      <point x="479" y="237"/>
      <point x="479" y="0" type="curve"/>
      <point x="622" y="0"/>
      <point x="479" y="0"/>
      <point x="622" y="0" type="curve"/>
      <point x="622" y="237"/>
      <point x="622" y="473"/>
      <point x="622" y="710" type="curve"/>
    </contour>
    <contour>
      <point x="-8" y="612"/>
      <point x="-8" y="722"/>
      <point x="-8" y="612" type="curve"/>
      <point x="193" y="612"/>
      <point x="527" y="612"/>
      <point x="728" y="612" type="curve"/>
      <point x="728" y="722"/>
      <point x="728" y="612"/>
      <point x="728" y="722" type="curve"/>
      <point x="527" y="722"/>
      <point x="193" y="722"/>
      <point x="-8" y="722" type="curve"/>
    </contour>
    <contour>
      <point x="531" y="515"/>
      <point x="531" y="404"/>
      <point x="531" y="515" type="curve"/>
      <point x="420" y="515"/>
      <point x="309" y="515"/>
      <point x="198" y="515" type="curve"/>
      <point x="198" y="404"/>
      <point x="198" y="515"/>
      <point x="198" y="404" type="curve"/>
      <point x="309" y="404"/>
      <point x="420" y="404"/>
      <point x="531" y="404" type="curve"/>
    </contour>
    <contour>
      <point x="198" y="404"/>
      <point x="198" y="515"/>
      <point x="198" y="404" type="curve"/>
      <point x="262" y="404"/>
      <point x="300" y="355"/>
      <point x="300" y="288" type="curve"/>
      <point x="300" y="237"/>
      <point x="279" y="197"/>
      <point x="233" y="197" type="curve"/>
      <point x="177" y="197"/>
      <point x="147" y="244"/>
      <point x="131" y="301" type="curve"/>
      <point x="21" y="262"/>
      <point x="131" y="301"/>
      <point x="21" y="262" type="curve"/>
      <point x="46" y="157"/>
      <point x="120" y="86"/>
      <point x="226" y="86" type="curve"/>
      <point x="355" y="86"/>
      <point x="443" y="170"/>
      <point x="443" y="299" type="curve"/>
      <point x="443" y="433"/>
      <point x="337" y="515"/>
      <point x="198" y="515" type="curve"/>
    </contour>
  </outline>
</glyph>
<glyph name="dvNYA" format="1">
  <advance width="666.0"/>
  <unicode hex="091E"/>
  <outline>
    <contour>
      <point x="523" y="111"/>
      <point x="523" y="0"/>
      <point x="523" y="111" type="curve"/>
      <point x="386" y="111"/>
      <point x="523" y="111"/>
      <point x="386" y="111" type="curve"/>
      <point x="386" y="0"/>
      <point x="386" y="111"/>
      <point x="386" y="0" type="curve"/>
      <point x="431" y="0"/>
      <point x="477" y="0"/>
      <point x="523" y="0" type="curve"/>
    </contour>
    <contour>
      <point x="523" y="0"/>
      <point x="523" y="111"/>
      <point x="523" y="0" type="curve"/>
      <point x="566" y="0"/>
      <point x="610" y="0"/>
      <point x="653" y="0" type="curve"/>
      <point x="653" y="111"/>
      <point x="653" y="0"/>
      <point x="653" y="111" type="curve"/>
      <point x="523" y="111"/>
      <point x="653" y="111"/>
      <point x="523" y="111" type="curve"/>
    </contour>
    <contour>
      <point x="452" y="710"/>
      <point x="595" y="710"/>
      <point x="452" y="710" type="curve"/>
      <point x="452" y="473"/>
      <point x="452" y="237"/>
      <point x="452" y="0" type="curve"/>
      <point x="595" y="0"/>
      <point x="452" y="0"/>
      <point x="595" y="0" type="curve"/>
      <point x="595" y="237"/>
      <point x="595" y="473"/>
      <point x="595" y="710" type="curve"/>
    </contour>
    <contour>
      <point x="346" y="276"/>
      <point x="346" y="397"/>
      <point x="346" y="276" type="curve"/>
      <point x="414" y="250"/>
      <point x="461" y="252"/>
      <point x="526" y="287" type="curve"/>
      <point x="481" y="392"/>
      <point x="526" y="287"/>
      <point x="481" y="392" type="curve"/>
      <point x="432" y="365"/>
      <point x="398" y="378"/>
      <point x="346" y="397" type="curve"/>
    </contour>
    <contour>
      <point x="146" y="426"/>
      <point x="81" y="514"/>
      <point x="146" y="426" type="curve"/>
      <point x="165" y="444"/>
      <point x="182" y="457"/>
      <point x="209" y="457" type="curve"/>
      <point x="264" y="457"/>
      <point x="273" y="401"/>
      <point x="273" y="337" type="curve"/>
      <point x="274" y="272"/>
      <point x="253" y="219"/>
      <point x="195" y="219" type="curve"/>
      <point x="154" y="219"/>
      <point x="133" y="248"/>
      <point x="113" y="285" type="curve"/>
      <point x="16" y="230"/>
      <point x="113" y="285"/>
      <point x="16" y="230" type="curve"/>
      <point x="55" y="156"/>
      <point x="106" y="108"/>
      <point x="189" y="108" type="curve"/>
      <point x="322.744493392" y="108.0"/>
      <point x="409" y="199"/>
      <point x="409" y="337" type="curve"/>
      <point x="409" y="472"/>
      <point x="334.603864734" y="568.0"/>
      <point x="209" y="568" type="curve"/>
      <point x="156" y="568"/>
      <point x="118" y="551"/>
      <point x="81" y="514" type="curve"/>
    </contour>
    <contour>
      <point x="676" y="722"/>
      <point x="676" y="612"/>
      <point x="676" y="722" type="curve"/>
      <point x="478" y="722"/>
      <point x="186" y="722"/>
      <point x="-12" y="722" type="curve"/>
      <point x="-12" y="612"/>
      <point x="-12" y="722"/>
      <point x="-12" y="612" type="curve"/>
      <point x="186" y="612"/>
      <point x="478" y="612"/>
      <point x="676" y="612" type="curve"/>
    </contour>
  </outline>
</glyph>
<glyph name="dvNNA" format="1">
  <advance width="703"/>
  <unicode hex="0923"/>
  <outline>
    <contour>
      <point x="557" y="0"/>
      <point x="557" y="111"/>
      <point x="557" y="0" type="curve"/>
      <point x="600" y="0"/>
      <point x="644" y="0"/>
      <point x="687" y="0" type="curve"/>
      <point x="687" y="111"/>
      <point x="687" y="0"/>
      <point x="687" y="111" type="curve"/>
      <point x="557" y="111"/>
      <point x="687" y="111"/>
      <point x="557" y="111" type="curve"/>
    </contour>
    <contour>
      <point x="557" y="111"/>
      <point x="557" y="0"/>
      <point x="557" y="111" type="curve"/>
      <point x="420" y="111"/>
      <point x="557" y="111"/>
      <point x="420" y="111" type="curve"/>
      <point x="420" y="0"/>
      <point x="420" y="111"/>
      <point x="420" y="0" type="curve"/>
      <point x="466" y="0"/>
      <point x="512" y="0"/>
      <point x="557" y="0" type="curve"/>
    </contour>
    <contour>
      <point x="708" y="722"/>
      <point x="708" y="612"/>
      <point x="708" y="722" type="curve"/>
      <point x="507" y="722"/>
      <point x="199" y="722"/>
      <point x="-3" y="722" type="curve"/>
      <point x="-3" y="612"/>
      <point x="-3" y="722"/>
      <point x="-3" y="612" type="curve"/>
      <point x="199" y="612"/>
      <point x="507" y="612"/>
      <point x="708" y="612" type="curve"/>
    </contour>
    <contour>
      <point x="37" y="665"/>
      <point x="180" y="665"/>
      <point x="37" y="665" type="curve"/>
      <point x="37" y="577"/>
      <point x="37" y="490"/>
      <point x="37" y="402" type="curve"/>
      <point x="37" y="276"/>
      <point x="112" y="185"/>
      <point x="235" y="185" type="curve"/>
      <point x="357" y="185"/>
      <point x="432" y="277"/>
      <point x="432" y="402" type="curve"/>
      <point x="432" y="490"/>
      <point x="432" y="577"/>
      <point x="432" y="665" type="curve"/>
      <point x="289" y="665"/>
      <point x="432" y="665"/>
      <point x="289" y="665" type="curve"/>
      <point x="289" y="572"/>
      <point x="289" y="479"/>
      <point x="289" y="385" type="curve"/>
      <point x="289" y="337"/>
      <point x="277" y="295"/>
      <point x="235" y="295" type="curve"/>
      <point x="193" y="295"/>
      <point x="180" y="338"/>
      <point x="180" y="385" type="curve"/>
      <point x="180" y="479"/>
      <point x="180" y="572"/>
      <point x="180" y="665" type="curve"/>
    </contour>
    <contour>
      <point x="486" y="710"/>
      <point x="629" y="710"/>
      <point x="486" y="710" type="curve"/>
      <point x="486" y="473"/>
      <point x="486" y="237"/>
      <point x="486" y="0" type="curve"/>
      <point x="629" y="0"/>
      <point x="486" y="0"/>
      <point x="629" y="0" type="curve"/>
      <point x="629" y="237"/>
      <point x="629" y="473"/>
      <point x="629" y="710" type="curve"/>
    </contour>
  </outline>
</glyph>
<glyph name="dvTA" format="1">
  <advance width="548"/>
  <unicode hex="0924"/>
  <outline>
    <contour>
      <point x="264" y="102"/>
      <point x="192" y="3"/>
      <point x="264" y="102" type="curve"/>
      <point x="192" y="142"/>
      <point x="158" y="198"/>
      <point x="158" y="270" type="curve"/>
      <point x="158" y="343"/>
      <point x="179" y="390"/>
      <point x="231" y="390" type="curve"/>
      <point x="289" y="390"/>
      <point x="346" y="390"/>
      <point x="404" y="390" type="curve"/>
      <point x="404" y="501"/>
      <point x="404" y="390"/>
      <point x="404" y="501" type="curve"/>
      <point x="344" y="501"/>
      <point x="285" y="501"/>
      <point x="225" y="501" type="curve"/>
      <point x="103" y="501"/>
      <point x="15" y="422"/>
      <point x="15" y="270" type="curve"/>
      <point x="15" y="154"/>
      <point x="74" y="67"/>
      <point x="192" y="3" type="curve"/>
    </contour>
    <contour>
      <point x="405" y="0"/>
      <point x="405" y="111"/>
      <point x="405" y="0" type="curve"/>
      <point x="448" y="0"/>
      <point x="491" y="0"/>
      <point x="535" y="0" type="curve"/>
      <point x="535" y="111"/>
      <point x="535" y="0"/>
      <point x="535" y="111" type="curve"/>
      <point x="405" y="111"/>
      <point x="535" y="111"/>
      <point x="405" y="111" type="curve"/>
    </contour>
    <contour>
      <point x="475" y="0"/>
      <point x="332" y="0"/>
      <point x="475" y="0" type="curve"/>
      <point x="475" y="237"/>
      <point x="475" y="473"/>
      <point x="475" y="710" type="curve"/>
      <point x="332" y="710"/>
      <point x="475" y="710"/>
      <point x="332" y="710" type="curve"/>
      <point x="332" y="473"/>
      <point x="332" y="237"/>
      <point x="332" y="0" type="curve"/>
    </contour>
    <contour>
      <point x="-10" y="623"/>
      <point x="-10" y="711"/>
      <point x="-10" y="612" type="curve"/>
      <point x="154" y="612"/>
      <point x="397" y="612"/>
      <point x="562" y="612" type="curve"/>
      <point x="562" y="711"/>
      <point x="562" y="623"/>
      <point x="562" y="722" type="curve"/>
      <point x="397" y="722"/>
      <point x="154" y="722"/>
      <point x="-10" y="722" type="curve"/>
    </contour>
  </outline>
</glyph>
<glyph name="dvTHA" format="1">
  <advance width="586.0"/>
  <unicode hex="0925"/>
  <outline>
    <contour>
      <point x="440" y="0"/>
      <point x="440" y="111"/>
      <point x="440" y="0" type="curve"/>
      <point x="483" y="0"/>
      <point x="526" y="0"/>
      <point x="570" y="0" type="curve"/>
      <point x="570" y="111"/>
      <point x="570" y="0"/>
      <point x="570" y="111" type="curve"/>
      <point x="440" y="111"/>
      <point x="570" y="111"/>
      <point x="440" y="111" type="curve"/>
    </contour>
    <contour>
      <point x="440" y="111"/>
      <point x="440" y="0"/>
      <point x="440" y="111" type="curve"/>
      <point x="303" y="111"/>
      <point x="440" y="111"/>
      <point x="303" y="111" type="curve"/>
      <point x="303" y="0"/>
      <point x="303" y="111"/>
      <point x="303" y="0" type="curve"/>
      <point x="348" y="0"/>
      <point x="394" y="0"/>
      <point x="440" y="0" type="curve"/>
    </contour>
    <contour>
      <point x="431" y="623"/>
      <point x="431" y="711"/>
      <point x="431" y="612" type="curve"/>
      <point x="471" y="612"/>
      <point x="549" y="612"/>
      <point x="589" y="612" type="curve"/>
      <point x="589" y="711"/>
      <point x="589" y="623"/>
      <point x="589" y="722" type="curve"/>
      <point x="549" y="722"/>
      <point x="471" y="722"/>
      <point x="431" y="722" type="curve"/>
    </contour>
    <contour>
      <point x="511" y="0"/>
      <point x="368" y="0"/>
      <point x="511" y="0" type="curve"/>
      <point x="511" y="241"/>
      <point x="511" y="481"/>
      <point x="511" y="722" type="curve"/>
      <point x="368" y="722"/>
      <point x="511" y="722"/>
      <point x="368" y="722" type="curve"/>
      <point x="368" y="481"/>
      <point x="368" y="241"/>
      <point x="368" y="0" type="curve"/>
    </contour>
    <contour>
      <point x="157" y="331"/>
      <point x="14" y="442"/>
      <point x="157" y="331" type="curve"/>
      <point x="279" y="331"/>
      <point x="352" y="410"/>
      <point x="352" y="542" type="curve"/>
      <point x="352" y="652"/>
      <point x="306" y="727"/>
      <point x="201" y="727" type="curve"/>
      <point x="106" y="727"/>
      <point x="48" y="671"/>
      <point x="47" y="578" type="curve"/>
      <point x="47" y="518"/>
      <point x="82" y="485"/>
      <point x="123" y="461" type="curve"/>
      <point x="197" y="544"/>
      <point x="123" y="461"/>
      <point x="197" y="544" type="curve"/>
      <point x="182" y="555"/>
      <point x="174" y="570"/>
      <point x="174" y="589" type="curve"/>
      <point x="174" y="602"/>
      <point x="181" y="617"/>
      <point x="195" y="617" type="curve"/>
      <point x="220" y="617"/>
      <point x="223" y="596"/>
      <point x="223" y="542" type="curve"/>
      <point x="223" y="450"/>
      <point x="124" y="442"/>
      <point x="14" y="442" type="curve"/>
    </contour>
    <contour>
      <point x="14" y="442"/>
      <point x="157" y="331"/>
      <point x="14" y="442" type="curve"/>
      <point x="14" y="261"/>
      <point x="85" y="132"/>
      <point x="247" y="132" type="curve"/>
      <point x="362" y="132"/>
      <point x="438" y="179"/>
      <point x="487" y="285" type="curve"/>
      <point x="390" y="324"/>
      <point x="487" y="285"/>
      <point x="390" y="324" type="curve"/>
      <point x="362" y="270"/>
      <point x="326" y="242"/>
      <point x="266" y="242" type="curve"/>
      <point x="200" y="242"/>
      <point x="157" y="279"/>
      <point x="157" y="331" type="curve"/>
    </contour>
  </outline>
</glyph>
<glyph name="dvDA" format="1">
  <advance width="500"/>
  <unicode hex="0926"/>
  <outline>
    <contour>
      <point x="489" y="19"/>
      <point x="339" y="-31"/>
      <point x="489" y="19" type="curve"/>
      <point x="455" y="117"/>
      <point x="415" y="212"/>
      <point x="381" y="310" type="curve"/>
      <point x="251" y="249"/>
      <point x="381" y="310"/>
      <point x="251" y="249" type="curve"/>
      <point x="283" y="156"/>
      <point x="308" y="62"/>
      <point x="339" y="-31" type="curve"/>
    </contour>
    <contour>
      <point x="509" y="722"/>
      <point x="509" y="612"/>
      <point x="509" y="722" type="curve"/>
      <point x="356" y="722"/>
      <point x="130" y="722"/>
      <point x="-22" y="722" type="curve"/>
      <point x="-22" y="612"/>
      <point x="-22" y="722"/>
      <point x="-22" y="612" type="curve"/>
      <point x="130" y="612"/>
      <point x="356" y="612"/>
      <point x="509" y="612" type="curve"/>
    </contour>
    <contour>
      <point x="421" y="456"/>
      <point x="278" y="567"/>
      <point x="421" y="456" type="curve"/>
      <point x="421" y="526"/>
      <point x="421" y="596"/>
      <point x="421" y="666" type="curve"/>
      <point x="278" y="666"/>
      <point x="421" y="666"/>
      <point x="278" y="666" type="curve"/>
      <point x="278" y="633"/>
      <point x="278" y="600"/>
      <point x="278" y="567" type="curve"/>
    </contour>
    <contour>
      <point x="278" y="567"/>
      <point x="421" y="456"/>
      <point x="278" y="567" type="curve"/>
      <point x="275" y="567"/>
      <point x="272" y="567"/>
      <point x="269" y="567" type="curve"/>
      <point x="123" y="567"/>
      <point x="18" y="468"/>
      <point x="18" y="327" type="curve"/>
      <point x="18" y="185"/>
      <point x="108" y="84"/>
      <point x="242" y="84" type="curve"/>
      <point x="341" y="84"/>
      <point x="426" y="125"/>
      <point x="426" y="212" type="curve"/>
      <point x="426" y="259"/>
      <point x="414" y="301"/>
      <point x="381" y="310" type="curve"/>
      <point x="251" y="249"/>
      <point x="381" y="310"/>
      <point x="251" y="249" type="curve"/>
      <point x="268" y="243"/>
      <point x="276" y="224"/>
      <point x="276" y="201" type="curve"/>
      <point x="276" y="193"/>
      <point x="265" y="194"/>
      <point x="255" y="194" type="curve"/>
      <point x="189" y="194"/>
      <point x="161" y="260"/>
      <point x="161" y="338" type="curve"/>
      <point x="161" y="405"/>
      <point x="203" y="456"/>
      <point x="269" y="456" type="curve"/>
      <point x="320" y="456"/>
      <point x="370" y="456"/>
      <point x="421" y="456" type="curve"/>
    </contour>
  </outline>
</glyph>
<glyph name="dvNA" format="1">
  <advance width="545"/>
  <unicode hex="0928"/>
  <outline>
    <contour>
      <point x="395" y="111"/>
      <point x="395" y="0"/>
      <point x="395" y="111" type="curve"/>
      <point x="258" y="111"/>
      <point x="395" y="111"/>
      <point x="258" y="111" type="curve"/>
      <point x="258" y="0"/>
      <point x="258" y="111"/>
      <point x="258" y="0" type="curve"/>
      <point x="304" y="0"/>
      <point x="350" y="0"/>
      <point x="395" y="0" type="curve"/>
    </contour>
    <contour>
      <point x="395" y="0"/>
      <point x="395" y="111"/>
      <point x="395" y="0" type="curve"/>
      <point x="438" y="0"/>
      <point x="482" y="0"/>
      <point x="525" y="0" type="curve"/>
      <point x="525" y="111"/>
      <point x="525" y="0"/>
      <point x="525" y="111" type="curve"/>
      <point x="395" y="111"/>
      <point x="525" y="111"/>
      <point x="395" y="111" type="curve"/>
    </contour>
    <contour>
      <point x="552" y="722"/>
      <point x="552" y="612"/>
      <point x="552" y="722" type="curve"/>
      <point x="376" y="722"/>
      <point x="167" y="722"/>
      <point x="-9" y="722" type="curve"/>
      <point x="-9" y="612"/>
      <point x="-9" y="722"/>
      <point x="-9" y="612" type="curve"/>
      <point x="167" y="612"/>
      <point x="375" y="612"/>
      <point x="552" y="612" type="curve"/>
    </contour>
    <contour>
      <point x="324" y="710"/>
      <point x="467" y="710"/>
      <point x="324" y="710" type="curve"/>
      <point x="324" y="473"/>
      <point x="324" y="237"/>
      <point x="324" y="0" type="curve"/>
      <point x="467" y="0"/>
      <point x="324" y="0"/>
      <point x="467" y="0" type="curve"/>
      <point x="467" y="237"/>
      <point x="467" y="473"/>
      <point x="467" y="710" type="curve"/>
    </contour>
    <contour>
      <point x="152" y="350"/>
      <point x="159" y="438"/>
      <point x="152" y="350" type="curve"/>
      <point x="172" y="350"/>
      <point x="179" y="326"/>
      <point x="179" y="305" type="curve"/>
      <point x="179" y="291"/>
      <point x="169" y="273"/>
      <point x="155" y="273" type="curve"/>
      <point x="139" y="273"/>
      <point x="131" y="293"/>
      <point x="131" y="308" type="curve"/>
      <point x="131" y="321"/>
      <point x="134" y="341"/>
      <point x="152" y="341" type="curve"/>
      <point x="224" y="341"/>
      <point x="296" y="341"/>
      <point x="368" y="341" type="curve"/>
      <point x="368" y="451"/>
      <point x="368" y="341"/>
      <point x="368" y="451" type="curve"/>
      <point x="298" y="451"/>
      <point x="228" y="451"/>
      <point x="158" y="451" type="curve"/>
      <point x="72" y="451"/>
      <point x="9" y="389"/>
      <point x="9" y="302" type="curve"/>
      <point x="9" y="221"/>
      <point x="68" y="163"/>
      <point x="150" y="163" type="curve"/>
      <point x="238" y="163"/>
      <point x="296" y="221"/>
      <point x="296" y="305" type="curve"/>
      <point x="296" y="384"/>
      <point x="241" y="438"/>
      <point x="159" y="438" type="curve"/>
    </contour>
  </outline>
</glyph>
<glyph name="dvPA" format="1">
  <advance width="571"/>
  <unicode hex="092A"/>
  <outline>
    <contour>
      <point x="397" y="0"/>
      <point x="397" y="111"/>
      <point x="397" y="0" type="curve"/>
      <point x="440" y="0"/>
      <point x="483" y="0"/>
      <point x="527" y="0" type="curve"/>
      <point x="527" y="111"/>
      <point x="527" y="0"/>
      <point x="527" y="111" type="curve"/>
      <point x="397" y="111"/>
      <point x="527" y="111"/>
      <point x="397" y="111" type="curve"/>
    </contour>
    <contour>
      <point x="397" y="111"/>
      <point x="397" y="0"/>
      <point x="397" y="111" type="curve"/>
      <point x="260" y="111"/>
      <point x="397" y="111"/>
      <point x="260" y="111" type="curve"/>
      <point x="260" y="0"/>
      <point x="260" y="111"/>
      <point x="260" y="0" type="curve"/>
      <point x="305" y="0"/>
      <point x="351" y="0"/>
      <point x="397" y="0" type="curve"/>
    </contour>
    <contour>
      <point x="351" y="387"/>
      <point x="448" y="342"/>
      <point x="351" y="387" type="curve"/>
      <point x="335" y="345"/>
      <point x="309" y="321"/>
      <point x="266" y="321" type="curve"/>
      <point x="225" y="321"/>
      <point x="217" y="361"/>
      <point x="217" y="409" type="curve"/>
      <point x="217" y="494"/>
      <point x="217" y="580"/>
      <point x="217" y="665" type="curve"/>
      <point x="74" y="665"/>
      <point x="217" y="665"/>
      <point x="74" y="665" type="curve"/>
      <point x="74" y="585"/>
      <point x="74" y="505"/>
      <point x="74" y="425" type="curve"/>
      <point x="74" y="296"/>
      <point x="141" y="205"/>
      <point x="260" y="205" type="curve"/>
      <point x="353" y="205"/>
      <point x="416" y="252"/>
      <point x="448" y="342" type="curve"/>
    </contour>
    <contour>
      <point x="-2" y="612"/>
      <point x="-2" y="722"/>
      <point x="-2" y="612" type="curve"/>
      <point x="147" y="612"/>
      <point x="438" y="612"/>
      <point x="587" y="612" type="curve"/>
      <point x="587" y="722"/>
      <point x="587" y="612"/>
      <point x="587" y="722" type="curve"/>
      <point x="438" y="722"/>
      <point x="147" y="722"/>
      <point x="-2" y="722" type="curve"/>
    </contour>
    <contour>
      <point x="325" y="665"/>
      <point x="468" y="665"/>
      <point x="325" y="665" type="curve"/>
      <point x="325" y="459"/>
      <point x="325" y="253"/>
      <point x="325" y="47" type="curve"/>
      <point x="468" y="47"/>
      <point x="325" y="47"/>
      <point x="468" y="47" type="curve"/>
      <point x="468" y="253"/>
      <point x="468" y="459"/>
      <point x="468" y="665" type="curve"/>
    </contour>
  </outline>
</glyph>
<glyph name="dvBA" format="1">
  <advance width="529"/>
  <unicode hex="092C"/>
  <outline>
    <contour>
      <point x="379" y="111"/>
      <point x="379" y="0"/>
      <point x="379" y="111" type="curve"/>
      <point x="242" y="111"/>
      <point x="379" y="111"/>
      <point x="242" y="111" type="curve"/>
      <point x="242" y="0"/>
      <point x="242" y="111"/>
      <point x="242" y="0" type="curve"/>
      <point x="287" y="0"/>
      <point x="333" y="0"/>
      <point x="379" y="0" type="curve"/>
    </contour>
    <contour>
      <point x="379" y="0"/>
      <point x="379" y="111"/>
      <point x="379" y="0" type="curve"/>
      <point x="422" y="0"/>
      <point x="466" y="0"/>
      <point x="509" y="0" type="curve"/>
      <point x="509" y="111"/>
      <point x="509" y="0"/>
      <point x="509" y="111" type="curve"/>
      <point x="379" y="111"/>
      <point x="509" y="111"/>
      <point x="379" y="111" type="curve"/>
    </contour>
    <contour>
      <point x="391" y="278"/>
      <point x="286" y="177"/>
      <point x="377" y="265" type="curve"/>
      <point x="313" y="346"/>
      <point x="253" y="428"/>
      <point x="190" y="509" type="curve"/>
      <point x="86" y="426"/>
      <point x="204" y="522"/>
      <point x="100" y="439" type="curve"/>
      <point x="165" y="355"/>
      <point x="234" y="273"/>
      <point x="300" y="190" type="curve"/>
    </contour>
    <contour>
      <point x="540" y="722"/>
      <point x="540" y="612"/>
      <point x="540" y="722" type="curve"/>
      <point x="381" y="722"/>
      <point x="147" y="722"/>
      <point x="-11" y="722" type="curve"/>
      <point x="-11" y="612"/>
      <point x="-11" y="722"/>
      <point x="-11" y="612" type="curve"/>
      <point x="147" y="612"/>
      <point x="381" y="612"/>
      <point x="540" y="612" type="curve"/>
    </contour>
    <contour>
      <point x="308" y="710"/>
      <point x="451" y="710"/>
      <point x="308" y="710" type="curve"/>
      <point x="308" y="473"/>
      <point x="308" y="237"/>
      <point x="308" y="0" type="curve"/>
      <point x="451" y="0"/>
      <point x="308" y="0"/>
      <point x="451" y="0" type="curve"/>
      <point x="451" y="237"/>
      <point x="451" y="473"/>
      <point x="451" y="710" type="curve"/>
    </contour>
    <contour>
      <point x="330" y="328"/>
      <point x="427" y="284"/>
      <point x="330" y="328" type="curve"/>
      <point x="313" y="281"/>
      <point x="292" y="240"/>
      <point x="245" y="240" type="curve"/>
      <point x="187" y="240"/>
      <point x="157" y="291"/>
      <point x="157" y="354" type="curve"/>
      <point x="157" y="410"/>
      <point x="176" y="457"/>
      <point x="226" y="457" type="curve"/>
      <point x="282" y="457"/>
      <point x="318" y="423"/>
      <point x="346" y="373" type="curve"/>
      <point x="411" y="450"/>
      <point x="346" y="373"/>
      <point x="411" y="450" type="curve"/>
      <point x="376" y="522"/>
      <point x="324" y="568"/>
      <point x="245" y="568" type="curve"/>
      <point x="113" y="568"/>
      <point x="21" y="484"/>
      <point x="21" y="354" type="curve"/>
      <point x="21" y="221"/>
      <point x="102" y="124"/>
      <point x="232" y="124" type="curve"/>
      <point x="331" y="124"/>
      <point x="397" y="187"/>
      <point x="427" y="284" type="curve"/>
    </contour>
  </outline>
</glyph>
<glyph name="dvBHA" format="1">
  <advance width="628"/>
  <unicode hex="092D"/>
  <outline>
    <contour>
      <point x="486" y="111"/>
      <point x="486" y="0"/>
      <point x="486" y="111" type="curve"/>
      <point x="349" y="111"/>
      <point x="486" y="111"/>
      <point x="349" y="111" type="curve"/>
      <point x="349" y="0"/>
      <point x="349" y="111"/>
      <point x="349" y="0" type="curve"/>
      <point x="394" y="0"/>
      <point x="440" y="0"/>
      <point x="486" y="0" type="curve"/>
    </contour>
    <contour>
      <point x="486" y="0"/>
      <point x="486" y="111"/>
      <point x="486" y="0" type="curve"/>
      <point x="529" y="0"/>
      <point x="573" y="0"/>
      <point x="616" y="0" type="curve"/>
      <point x="616" y="111"/>
      <point x="616" y="0"/>
      <point x="616" y="111" type="curve"/>
      <point x="486" y="111"/>
      <point x="616" y="111"/>
      <point x="486" y="111" type="curve"/>
    </contour>
    <contour>
      <point x="556" y="0"/>
      <point x="413" y="0"/>
      <point x="556" y="0" type="curve"/>
      <point x="556" y="241"/>
      <point x="556" y="481"/>
      <point x="556" y="722" type="curve"/>
      <point x="413" y="722"/>
      <point x="556" y="722"/>
      <point x="413" y="722" type="curve"/>
      <point x="413" y="481"/>
      <point x="413" y="241"/>
      <point x="413" y="0" type="curve"/>
    </contour>
    <contour>
      <point x="476" y="612"/>
      <point x="476" y="722"/>
      <point x="476" y="612" type="curve"/>
      <point x="517" y="612"/>
      <point x="598" y="612"/>
      <point x="639" y="612" type="curve"/>
      <point x="639" y="722"/>
      <point x="639" y="612"/>
      <point x="639" y="722" type="curve"/>
      <point x="598" y="722"/>
      <point x="517" y="722"/>
      <point x="476" y="722" type="curve"/>
    </contour>
    <contour>
      <point x="482" y="392"/>
      <point x="482" y="281"/>
      <point x="482" y="392" type="curve"/>
      <point x="387" y="392"/>
      <point x="292" y="392"/>
      <point x="197" y="392" type="curve"/>
      <point x="109" y="392"/>
      <point x="43" y="338"/>
      <point x="43" y="253" type="curve"/>
      <point x="43" y="174"/>
      <point x="100" y="119"/>
      <point x="180" y="119" type="curve"/>
      <point x="268" y="119"/>
      <point x="330" y="182"/>
      <point x="330" y="270" type="curve"/>
      <point x="330" y="368"/>
      <point x="330" y="465"/>
      <point x="330" y="562" type="curve"/>
      <point x="330" y="657"/>
      <point x="267" y="727"/>
      <point x="173" y="727" type="curve"/>
      <point x="84" y="727"/>
      <point x="22" y="663"/>
      <point x="21" y="572" type="curve"/>
      <point x="21" y="528"/>
      <point x="43" y="497"/>
      <point x="74" y="465" type="curve"/>
      <point x="152" y="537"/>
      <point x="74" y="465"/>
      <point x="152" y="537" type="curve"/>
      <point x="141" y="549"/>
      <point x="141" y="563"/>
      <point x="141" y="578" type="curve"/>
      <point x="142" y="597"/>
      <point x="150" y="617"/>
      <point x="167" y="617" type="curve"/>
      <point x="190" y="617"/>
      <point x="187" y="589"/>
      <point x="187" y="562" type="curve"/>
      <point x="187" y="465"/>
      <point x="187" y="368"/>
      <point x="187" y="270" type="curve"/>
      <point x="187" y="253"/>
      <point x="185" y="230"/>
      <point x="174" y="230" type="curve"/>
      <point x="158" y="230"/>
      <point x="161" y="248"/>
      <point x="161" y="259" type="curve"/>
      <point x="161" y="268"/>
      <point x="167" y="281"/>
      <point x="191" y="281" type="curve"/>
      <point x="288" y="281"/>
      <point x="385" y="281"/>
      <point x="482" y="281" type="curve"/>
    </contour>
  </outline>
</glyph>
<glyph name="dvMA" format="1">
  <advance width="614"/>
  <unicode hex="092E"/>
  <outline>
    <contour>
      <point x="453" y="110.5"/>
      <point x="453" y="0"/>
      <point x="453" y="110.5" type="curve"/>
      <point x="315.75" y="110.5"/>
      <point x="453" y="110.5"/>
      <point x="315.75" y="110.5" type="curve"/>
      <point x="315.75" y="0"/>
      <point x="315.75" y="110.5"/>
      <point x="315.75" y="0" type="curve"/>
      <point x="361.4995425" y="-5.602518043e-15"/>
      <point x="407.2504575" y="5.602518043e-15"/>
      <point x="453" y="0" type="curve"/>
    </contour>
    <contour>
      <point x="453" y="0"/>
      <point x="453" y="110.5"/>
      <point x="453" y="0" type="curve"/>
      <point x="496.2495675" y="0"/>
      <point x="539.5004325" y="0"/>
      <point x="582.75" y="0" type="curve"/>
      <point x="582.75" y="110.5"/>
      <point x="582.75" y="0"/>
      <point x="582.75" y="110.5" type="curve"/>
      <point x="453" y="110.5"/>
      <point x="582.75" y="110.5"/>
      <point x="453" y="110.5" type="curve"/>
    </contour>
    <contour>
      <point x="523" y="0"/>
      <point x="380" y="7.44254511536e-15"/>
      <point x="523" y="0" type="curve"/>
      <point x="523" y="240.66426"/>
      <point x="523" y="481.33574"/>
      <point x="523" y="722" type="curve"/>
      <point x="380" y="722"/>
      <point x="523" y="722"/>
      <point x="380" y="722" type="curve"/>
      <point x="380" y="481.33574"/>
      <point x="380" y="240.66426"/>
      <point x="380" y="7.44254511536e-15" type="curve"/>
    </contour>
    <contour>
      <point x="-7.5" y="611.5"/>
      <point x="-7.5" y="722"/>
      <point x="-7.5" y="611.5" type="curve"/>
      <point x="202.997895" y="611.5"/>
      <point x="414" y="612"/>
      <point x="624" y="612" type="curve"/>
      <point x="624" y="722"/>
      <point x="624" y="612"/>
      <point x="624" y="722" type="curve"/>
      <point x="414" y="722"/>
      <point x="202.997895" y="722.0"/>
      <point x="-7.5" y="722" type="curve"/>
    </contour>
    <contour>
      <point x="449.25" y="391.85968661"/>
      <point x="449.25" y="281.35968661"/>
      <point x="449.25" y="391.85968661" type="curve"/>
      <point x="354.20928375" y="391.85968661"/>
      <point x="259.16571625" y="391.85968661"/>
      <point x="164.125" y="391.85968661" type="curve"/>
      <point x="76.2082565225" y="391.85968661"/>
      <point x="9.625" y="338.280114167"/>
      <point x="9.625" y="253.27204416" type="curve"/>
      <point x="9.625" y="173.560322566"/>
      <point x="66.9592942561" y="119.338319088"/>
      <point x="147.125" y="119.338319088" type="curve"/>
      <point x="235.177954505" y="119.338319088"/>
      <point x="296.5" y="181.755366412"/>
      <point x="296.5" y="270.407407407" type="curve"/>
      <point x="296.5" y="402.520283796"/>
      <point x="296.5" y="534.637123611"/>
      <point x="296.5" y="666.75" type="curve"/>
      <point x="153.5" y="666.75"/>
      <point x="296.5" y="666.75"/>
      <point x="153.5" y="666.75" type="curve"/>
      <point x="153.5" y="534.637123611"/>
      <point x="153.5" y="402.520283796"/>
      <point x="153.5" y="270.407407407" type="curve"/>
      <point x="153.5" y="253.31123634"/>
      <point x="154" y="230"/>
      <point x="144" y="230" type="curve"/>
      <point x="131" y="230"/>
      <point x="130" y="246"/>
      <point x="130" y="257" type="curve"/>
      <point x="130" y="266"/>
      <point x="136" y="281"/>
      <point x="157.625" y="281.35968661" type="curve"/>
      <point x="254.83236125" y="281.35968661"/>
      <point x="352.04263875" y="281.35968661"/>
      <point x="449.25" y="281.35968661" type="curve"/>
    </contour>
  </outline>
</glyph>
<glyph name="dvYA" format="1">
  <advance width="561.0"/>
  <unicode hex="092F"/>
  <outline>
    <contour>
      <point x="160" y="366"/>
      <point x="17" y="471"/>
      <point x="160" y="366" type="curve"/>
      <point x="248" y="366"/>
      <point x="299" y="434"/>
      <point x="299" y="536" type="curve"/>
      <point x="299" y="603"/>
      <point x="269" y="652"/>
      <point x="224" y="702" type="curve"/>
      <point x="127" y="630"/>
      <point x="224" y="702"/>
      <point x="127" y="630" type="curve"/>
      <point x="155" y="600"/>
      <point x="156" y="566"/>
      <point x="156" y="524" type="curve"/>
      <point x="156" y="468"/>
      <point x="93" y="471"/>
      <point x="17" y="471" type="curve"/>
    </contour>
    <contour>
      <point x="17" y="471"/>
      <point x="160" y="366"/>
      <point x="17" y="471" type="curve"/>
      <point x="17" y="291"/>
      <point x="98" y="151"/>
      <point x="254" y="151" type="curve"/>
      <point x="339" y="151"/>
      <point x="398" y="187"/>
      <point x="451" y="260" type="curve"/>
      <point x="379" y="332"/>
      <point x="451" y="260"/>
      <point x="379" y="332" type="curve"/>
      <point x="343" y="287"/>
      <point x="308" y="261"/>
      <point x="254" y="261" type="curve"/>
      <point x="194" y="261"/>
      <point x="160" y="315"/>
      <point x="160" y="366" type="curve"/>
    </contour>
    <contour>
      <point x="344" y="710"/>
      <point x="487" y="710"/>
      <point x="344" y="710" type="curve"/>
      <point x="344" y="473"/>
      <point x="344" y="237"/>
      <point x="344" y="0" type="curve"/>
      <point x="487" y="0"/>
      <point x="344" y="0"/>
      <point x="487" y="0" type="curve"/>
      <point x="487" y="237"/>
      <point x="487" y="473"/>
      <point x="487" y="710" type="curve"/>
    </contour>
    <contour>
      <point x="566" y="722"/>
      <point x="566" y="612"/>
      <point x="566" y="722" type="curve"/>
      <point x="398" y="722"/>
      <point x="153" y="722"/>
      <point x="-14" y="722" type="curve"/>
      <point x="-14" y="612"/>
      <point x="-14" y="722"/>
      <point x="-14" y="612" type="curve"/>
      <point x="153" y="612"/>
      <point x="398" y="612"/>
      <point x="566" y="612" type="curve"/>
    </contour>
    <contour>
      <point x="415" y="0"/>
      <point x="415" y="111"/>
      <point x="415" y="0" type="curve"/>
      <point x="458" y="0"/>
      <point x="502" y="0"/>
      <point x="545" y="0" type="curve"/>
      <point x="545" y="111"/>
      <point x="545" y="0"/>
      <point x="545" y="111" type="curve"/>
      <point x="415" y="111"/>
      <point x="545" y="111"/>
      <point x="415" y="111" type="curve"/>
    </contour>
    <contour>
      <point x="415" y="111"/>
      <point x="415" y="0"/>
      <point x="415" y="111" type="curve"/>
      <point x="278" y="111"/>
      <point x="415" y="111"/>
      <point x="278" y="111" type="curve"/>
      <point x="278" y="0"/>
      <point x="278" y="111"/>
      <point x="278" y="0" type="curve"/>
      <point x="324" y="0"/>
      <point x="370" y="0"/>
      <point x="415" y="0" type="curve"/>
    </contour>
  </outline>
</glyph>
<glyph name="dvLLA" format="1">
  <advance width="702.0"/>
  <unicode hex="0933"/>
  <outline>
    <contour>
      <point x="713" y="722"/>
      <point x="713" y="612"/>
      <point x="713" y="722" type="curve"/>
      <point x="502" y="722"/>
      <point x="206" y="722"/>
      <point x="-6" y="722" type="curve"/>
      <point x="-6" y="612"/>
      <point x="-6" y="722"/>
      <point x="-6" y="612" type="curve"/>
      <point x="206" y="612"/>
      <point x="502" y="612"/>
      <point x="713" y="612" type="curve"/>
    </contour>
    <contour>
      <point x="404" y="665"/>
      <point x="547" y="665"/>
      <point x="404" y="665" type="curve"/>
      <point x="404" y="603"/>
      <point x="404" y="541"/>
      <point x="404" y="479" type="curve"/>
      <point x="547" y="479"/>
      <point x="404" y="479"/>
      <point x="547" y="479" type="curve"/>
      <point x="547" y="541"/>
      <point x="547" y="603"/>
      <point x="547" y="665" type="curve"/>
    </contour>
    <contour>
      <point x="408" y="417"/>
      <point x="317" y="345"/>
      <point x="408" y="417" type="curve"/>
      <point x="366" y="492"/>
      <point x="311" y="537"/>
      <point x="226" y="537" type="curve"/>
      <point x="93" y="537"/>
      <point x="14" y="442"/>
      <point x="14" y="306" type="curve"/>
      <point x="14" y="167"/>
      <point x="80" y="64"/>
      <point x="208" y="64" type="curve"/>
      <point x="329" y="64"/>
      <point x="366" y="167"/>
      <point x="398" y="292" type="curve"/>
      <point x="413" y="351"/>
      <point x="422" y="419"/>
      <point x="463" y="419" type="curve"/>
      <point x="515" y="419"/>
      <point x="533" y="367"/>
      <point x="533" y="306" type="curve"/>
      <point x="533" y="237"/>
      <point x="521" y="176"/>
      <point x="462" y="176" type="curve"/>
      <point x="410" y="176"/>
      <point x="381" y="207"/>
      <point x="353" y="251" type="curve"/>
      <point x="275" y="163"/>
      <point x="353" y="251"/>
      <point x="275" y="163" type="curve"/>
      <point x="318" y="97"/>
      <point x="372" y="65"/>
      <point x="449" y="65" type="curve"/>
      <point x="588" y="65"/>
      <point x="672" y="163"/>
      <point x="672" y="306" type="curve"/>
      <point x="672" y="438"/>
      <point x="606" y="535"/>
      <point x="482" y="535" type="curve"/>
      <point x="363" y="535"/>
      <point x="314" y="444"/>
      <point x="283" y="324" type="curve"/>
      <point x="266" y="258"/>
      <point x="255" y="175"/>
      <point x="213" y="175" type="curve"/>
      <point x="160" y="175"/>
      <point x="147" y="240"/>
      <point x="147" y="311" type="curve"/>
      <point x="147" y="371"/>
      <point x="161" y="427"/>
      <point x="213" y="427" type="curve"/>
      <point x="265" y="427"/>
      <point x="291" y="390"/>
      <point x="317" y="345" type="curve"/>
    </contour>
  </outline>
</glyph>
<glyph name="dvSHA" format="1">
  <advance width="700"/>
  <unicode hex="0936"/>
  <outline>
    <contour>
      <point x="381" y="91"/>
      <point x="264" y="-8"/>
      <point x="381" y="91" type="curve"/>
      <point x="307" y="175"/>
      <point x="228" y="254"/>
      <point x="154" y="338" type="curve"/>
      <point x="24" y="277"/>
      <point x="154" y="338"/>
      <point x="24" y="277" type="curve"/>
      <point x="106" y="183"/>
      <point x="182" y="85"/>
      <point x="264" y="-8" type="curve"/>
    </contour>
    <contour>
      <point x="480" y="722"/>
      <point x="623" y="722"/>
      <point x="480" y="722" type="curve"/>
      <point x="480" y="481"/>
      <point x="480" y="241"/>
      <point x="480" y="0" type="curve"/>
      <point x="623" y="0"/>
      <point x="480" y="0"/>
      <point x="623" y="0" type="curve"/>
      <point x="623" y="241"/>
      <point x="623" y="481"/>
      <point x="623" y="722" type="curve"/>
    </contour>
    <contour>
      <point x="712" y="722"/>
      <point x="712" y="612"/>
      <point x="712" y="722" type="curve"/>
      <point x="674" y="722"/>
      <point x="581" y="722"/>
      <point x="543" y="722" type="curve"/>
      <point x="543" y="612"/>
      <point x="543" y="722"/>
      <point x="543" y="612" type="curve"/>
      <point x="581" y="612"/>
      <point x="674" y="612"/>
      <point x="712" y="612" type="curve"/>
    </contour>
    <contour>
      <point x="219" y="515"/>
      <point x="108" y="427"/>
      <point x="219" y="515" type="curve"/>
      <point x="208" y="527"/>
      <point x="206" y="540"/>
      <point x="206" y="556" type="curve"/>
      <point x="206" y="589"/>
      <point x="220" y="617"/>
      <point x="250" y="617" type="curve"/>
      <point x="304" y="617"/>
      <point x="306" y="557"/>
      <point x="306" y="494" type="curve"/>
      <point x="306" y="386"/>
      <point x="259" y="297"/>
      <point x="160" y="297" type="curve"/>
      <point x="140" y="297"/>
      <point x="155" y="320"/>
      <point x="154" y="338" type="curve"/>
      <point x="24" y="277"/>
      <point x="154" y="338"/>
      <point x="24" y="277" type="curve"/>
      <point x="24" y="212"/>
      <point x="87" y="188"/>
      <point x="160" y="186" type="curve"/>
      <point x="338" y="186"/>
      <point x="449" y="321"/>
      <point x="449" y="505" type="curve"/>
      <point x="449" y="633"/>
      <point x="378" y="727"/>
      <point x="257" y="727" type="curve"/>
      <point x="144" y="727"/>
      <point x="64" y="660"/>
      <point x="63" y="550" type="curve"/>
      <point x="63" y="502"/>
      <point x="75" y="462"/>
      <point x="108" y="427" type="curve"/>
    </contour>
    <contour>
      <point x="554" y="0"/>
      <point x="554" y="111"/>
      <point x="554" y="0" type="curve"/>
      <point x="597" y="0"/>
      <point x="641" y="0"/>
      <point x="684" y="0" type="curve"/>
      <point x="684" y="111"/>
      <point x="684" y="0"/>
      <point x="684" y="111" type="curve"/>
      <point x="554" y="111"/>
      <point x="684" y="111"/>
      <point x="554" y="111" type="curve"/>
    </contour>
    <contour>
      <point x="554" y="111"/>
      <point x="554" y="0"/>
      <point x="554" y="111" type="curve"/>
      <point x="417" y="111"/>
      <point x="554" y="111"/>
      <point x="417" y="111" type="curve"/>
      <point x="417" y="0"/>
      <point x="417" y="111"/>
      <point x="417" y="0" type="curve"/>
      <point x="463" y="0"/>
      <point x="509" y="0"/>
      <point x="554" y="0" type="curve"/>
    </contour>
  </outline>
</glyph>
<glyph name="dvHA" format="1">
  <advance width="489"/>
  <unicode hex="0939"/>
  <outline>
    <contour>
      <point x="408" y="82"/>
      <point x="304" y="153"/>
      <point x="408" y="82" type="curve"/>
      <point x="444" y="125"/>
      <point x="463" y="160"/>
      <point x="463" y="217" type="curve"/>
      <point x="463" y="329"/>
      <point x="375" y="396"/>
      <point x="258" y="396" type="curve"/>
      <point x="121" y="396"/>
      <point x="29" y="304"/>
      <point x="29" y="168" type="curve"/>
      <point x="29" y="22"/>
      <point x="133" y="-75"/>
      <point x="282" y="-75" type="curve"/>
      <point x="295" y="30"/>
      <point x="282" y="-75"/>
      <point x="295" y="30" type="curve"/>
      <point x="218" y="30"/>
      <point x="172" y="88"/>
      <point x="172" y="168" type="curve"/>
      <point x="172" y="232"/>
      <point x="199" y="286"/>
      <point x="258" y="286" type="curve"/>
      <point x="297" y="286"/>
      <point x="320" y="254"/>
      <point x="320" y="211" type="curve"/>
      <point x="320" y="189"/>
      <point x="318" y="170"/>
      <point x="304" y="153" type="curve"/>
    </contour>
    <contour>
      <point x="502" y="722"/>
      <point x="502" y="612"/>
      <point x="502" y="722" type="curve"/>
      <point x="358" y="722"/>
      <point x="139" y="722"/>
      <point x="-4" y="722" type="curve"/>
      <point x="-4" y="612"/>
      <point x="-4" y="722"/>
      <point x="-4" y="612" type="curve"/>
      <point x="139" y="612"/>
      <point x="358" y="612"/>
      <point x="502" y="612" type="curve"/>
    </contour>
    <contour>
      <point x="228" y="356"/>
      <point x="124" y="279"/>
      <point x="228" y="356" type="curve"/>
      <point x="199" y="377"/>
      <point x="170" y="393"/>
      <point x="170" y="427" type="curve"/>
      <point x="170" y="445"/>
      <point x="185" y="454"/>
      <point x="205" y="454" type="curve"/>
      <point x="270" y="454"/>
      <point x="336" y="454"/>
      <point x="402" y="454" type="curve"/>
      <point x="259" y="564"/>
      <point x="402" y="454"/>
      <point x="259" y="564" type="curve"/>
      <point x="234" y="564"/>
      <point x="210" y="564"/>
      <point x="185" y="564" type="curve"/>
      <point x="94" y="564"/>
      <point x="27" y="514"/>
      <point x="27" y="427" type="curve"/>
      <point x="27" y="357"/>
      <point x="65" y="319"/>
      <point x="124" y="279" type="curve"/>
    </contour>
    <contour>
      <point x="259" y="666"/>
      <point x="402" y="666"/>
      <point x="259" y="666" type="curve"/>
      <point x="259" y="632"/>
      <point x="259" y="598"/>
      <point x="259" y="564" type="curve"/>
      <point x="402" y="454"/>
      <point x="259" y="564"/>
      <point x="402" y="454" type="curve"/>
      <point x="402" y="525"/>
      <point x="402" y="595"/>
      <point x="402" y="666" type="curve"/>
    </contour>
  </outline>
</glyph>
<glyph name="dvNukta" format="1">
  <advance width="0"/>
  <unicode hex="093C"/>
  <outline>
    <contour>
      <point x="-248" y="-30"/>
      <point x="-207" y="-30"/>
      <point x="-154" y="-30" type="curve"/>
      <point x="-154" y="15"/>
      <point x="-183" y="47"/>
      <point x="-227.25" y="47.2339031339" type="curve"/>
      <point x="-272" y="47"/>
      <point x="-301" y="15"/>
      <point x="-301" y="-30" type="curve"/>
      <point x="-248" y="-30"/>
      <point x="-207" y="-30"/>
      <point x="-154" y="-30" type="curve"/>
      <point x="-154" y="-75"/>
      <point x="-183" y="-107"/>
      <point x="-227.25" y="-107.466096866" type="curve"/>
      <point x="-272" y="-107"/>
      <point x="-301" y="-75"/>
      <point x="-301" y="-30" type="curve"/>
    </contour>
  </outline>
</glyph>
<glyph name="dvmAA" format="1">
  <advance width="363"/>
  <unicode hex="093E"/>
  <outline>
    <contour>
      <point x="180" y="110"/>
      <point x="180" y="0"/>
      <point x="180" y="110" type="curve"/>
      <point x="43" y="110"/>
      <point x="180" y="110"/>
      <point x="43" y="110" type="curve"/>
      <point x="43" y="0"/>
      <point x="43" y="110"/>
      <point x="43" y="0" type="curve"/>
      <point x="89" y="0"/>
      <point x="135" y="0"/>
      <point x="180" y="0" type="curve"/>
    </contour>
    <contour>
      <point x="180" y="0"/>
      <point x="180" y="110"/>
      <point x="180" y="0" type="curve"/>
      <point x="226" y="0"/>
      <point x="272" y="0"/>
      <point x="318" y="0" type="curve"/>
      <point x="318" y="110"/>
      <point x="318" y="0"/>
      <point x="318" y="110" type="curve"/>
      <point x="180" y="110"/>
      <point x="318" y="110"/>
      <point x="180" y="110" type="curve"/>
    </contour>
    <contour>
      <point x="370" y="722"/>
      <point x="370" y="612"/>
      <point x="370" y="722" type="curve"/>
      <point x="297" y="722"/>
      <point x="63" y="722"/>
      <point x="-10" y="722" type="curve"/>
      <point x="-10" y="612"/>
      <point x="-10" y="722"/>
      <point x="-10" y="612" type="curve"/>
      <point x="63" y="612"/>
      <point x="297" y="612"/>
      <point x="370" y="612" type="curve"/>
    </contour>
    <contour>
      <point x="109" y="722"/>
      <point x="252" y="722"/>
      <point x="109" y="722" type="curve"/>
      <point x="109" y="481"/>
      <point x="109" y="241"/>
      <point x="109" y="0" type="curve"/>
      <point x="252" y="0"/>
      <point x="109" y="0"/>
      <point x="252" y="0" type="curve"/>
      <point x="252" y="241"/>
      <point x="252" y="481"/>
      <point x="252" y="722" type="curve"/>
    </contour>
  </outline>
</glyph>
<glyph name="dvmI" format="1">
  <advance width="284"/>
  <unicode hex="093F"/>
  <outline>
    <contour>
      <point x="201" y="690"/>
      <point x="97" y="641"/>
      <point x="201" y="690" type="curve"/>
      <point x="192" y="722"/>
      <point x="186" y="743"/>
      <point x="186" y="775" type="curve"/>
      <point x="186" y="811"/>
      <point x="225" y="837"/>
      <point x="264" y="837" type="curve"/>
      <point x="386" y="837"/>
      <point x="463" y="750"/>
      <point x="520" y="636" type="curve"/>
      <point x="624" y="691"/>
      <point x="520" y="636"/>
      <point x="624" y="691" type="curve"/>
      <point x="550" y="842"/>
      <point x="442" y="948"/>
      <point x="277" y="948" type="curve"/>
      <point x="156" y="948"/>
      <point x="59" y="883"/>
      <point x="59" y="769" type="curve"/>
      <point x="59" y="721"/>
      <point x="84" y="675"/>
      <point x="97" y="641" type="curve"/>
    </contour>
    <contour>
      <point x="75" y="710"/>
      <point x="218" y="710"/>
      <point x="75" y="710" type="curve"/>
      <point x="75" y="473"/>
      <point x="75" y="237"/>
      <point x="75" y="0" type="curve"/>
      <point x="218" y="0"/>
      <point x="75" y="0"/>
      <point x="218" y="0" type="curve"/>
      <point x="218" y="237"/>
      <point x="218" y="473"/>
      <point x="218" y="710" type="curve"/>
    </contour>
    <contour>
      <point x="295" y="728"/>
      <point x="295" y="607"/>
      <point x="295" y="728" type="curve"/>
      <point x="222" y="728"/>
      <point x="63" y="728"/>
      <point x="-10" y="728" type="curve"/>
      <point x="-10" y="607"/>
      <point x="-10" y="728"/>
      <point x="-10" y="607" type="curve"/>
      <point x="63" y="607"/>
      <point x="222" y="607"/>
      <point x="295" y="607" type="curve"/>
    </contour>
    <contour>
      <point x="147" y="0"/>
      <point x="147" y="110"/>
      <point x="147" y="0" type="curve"/>
      <point x="190" y="0"/>
      <point x="234" y="0"/>
      <point x="277" y="0" type="curve"/>
      <point x="277" y="110"/>
      <point x="277" y="0"/>
      <point x="277" y="110" type="curve"/>
      <point x="147" y="110"/>
      <point x="277" y="110"/>
      <point x="147" y="110" type="curve"/>
    </contour>
    <contour>
      <point x="147" y="110"/>
      <point x="147" y="0"/>
      <point x="147" y="110" type="curve"/>
      <point x="10" y="110"/>
      <point x="147" y="110"/>
      <point x="10" y="110" type="curve"/>
      <point x="10" y="0"/>
      <point x="10" y="110"/>
      <point x="10" y="0" type="curve"/>
      <point x="55" y="0"/>
      <point x="101" y="0"/>
      <point x="147" y="0" type="curve"/>
    </contour>
  </outline>
</glyph>
<glyph name="dvmII" format="1">
  <advance width="284"/>
  <unicode hex="0940"/>
  <outline>
    <contour>
      <point x="-20" y="715"/>
      <point x="-98" y="621"/>
      <point x="-20" y="715" type="curve"/>
      <point x="-42" y="735"/>
      <point x="-57" y="768"/>
      <point x="-57" y="805" type="curve"/>
      <point x="-57" y="829"/>
      <point x="-50" y="853"/>
      <point x="-26" y="853" type="curve"/>
      <point x="49" y="853"/>
      <point x="63" y="746"/>
      <point x="81" y="640" type="curve"/>
      <point x="211" y="689"/>
      <point x="81" y="640"/>
      <point x="211" y="689" type="curve"/>
      <point x="185" y="842"/>
      <point x="121" y="963"/>
      <point x="-22" y="963" type="curve"/>
      <point x="-123" y="963"/>
      <point x="-190" y="896"/>
      <point x="-190" y="794" type="curve"/>
      <point x="-190" y="720"/>
      <point x="-144" y="662"/>
      <point x="-98" y="621" type="curve"/>
    </contour>
    <contour>
      <point x="73" y="710"/>
      <point x="216" y="710"/>
      <point x="73" y="710" type="curve"/>
      <point x="73" y="473"/>
      <point x="73" y="237"/>
      <point x="73" y="0" type="curve"/>
      <point x="216" y="0"/>
      <point x="73" y="0"/>
      <point x="216" y="0" type="curve"/>
      <point x="216" y="237"/>
      <point x="216" y="473"/>
      <point x="216" y="710" type="curve"/>
    </contour>
    <contour>
      <point x="294" y="728"/>
      <point x="294" y="607"/>
      <point x="294" y="728" type="curve"/>
      <point x="221" y="728"/>
      <point x="67" y="728"/>
      <point x="-6" y="728" type="curve"/>
      <point x="-6" y="607"/>
      <point x="-6" y="728"/>
      <point x="-6" y="607" type="curve"/>
      <point x="67" y="607"/>
      <point x="221" y="607"/>
      <point x="294" y="607" type="curve"/>
    </contour>
    <contour>
      <point x="145" y="0"/>
      <point x="145" y="110"/>
      <point x="145" y="0" type="curve"/>
      <point x="188" y="0"/>
      <point x="232" y="0"/>
      <point x="275" y="0" type="curve"/>
      <point x="275" y="110"/>
      <point x="275" y="0"/>
      <point x="275" y="110" type="curve"/>
      <point x="145" y="110"/>
      <point x="275" y="110"/>
      <point x="145" y="110" type="curve"/>
    </contour>
    <contour>
      <point x="145" y="110"/>
      <point x="145" y="0"/>
      <point x="145" y="110" type="curve"/>
      <point x="8" y="110"/>
      <point x="145" y="110"/>
      <point x="8" y="110" type="curve"/>
      <point x="8" y="0"/>
      <point x="8" y="110"/>
      <point x="8" y="0" type="curve"/>
      <point x="53" y="0"/>
      <point x="99" y="0"/>
      <point x="145" y="0" type="curve"/>
    </contour>
  </outline>
</glyph>
<glyph name="dvmU" format="1">
  <advance width="0"/>
  <unicode hex="0941"/>
  <outline>
    <contour>
      <point x="-153.875" y="-19.7363960114"/>
      <point x="-199.375" y="79.7136039886"/>
      <point x="-153.875" y="-19.7363960114" type="curve"/>
      <point x="-138.64445204" y="-12.560820369"/>
      <point x="-127.977131498" y="-10.452991453"/>
      <point x="-112.375" y="-10.452991453" type="curve"/>
      <point x="-74.6760620945" y="-10.452991453"/>
      <point x="-59" y="-48"/>
      <point x="-59" y="-92" type="curve"/>
      <point x="-59" y="-130"/>
      <point x="-79.6327237068" y="-161.277777778"/>
      <point x="-114" y="-161.277777778" type="curve"/>
      <point x="-206" y="-161"/>
      <point x="-253.560461521" y="-75.0372662887"/>
      <point x="-310.375" y="10.3010683761" type="curve"/>
      <point x="-420.875" y="-67.0489316239"/>
      <point x="-310.375" y="10.3010683761"/>
      <point x="-420.875" y="-67.0489316239" type="curve"/>
      <point x="-341.507509158" y="-187.095445452"/>
      <point x="-256.02927543" y="-271.777777778"/>
      <point x="-114.0" y="-271.777777778" type="curve"/>
      <point x="-0.464042310666" y="-271.777777778"/>
      <point x="77.5" y="-202.730125746"/>
      <point x="77.5" y="-91.962962963" type="curve"/>
      <point x="77.5" y="22.0176516167"/>
      <point x="5.89903048404" y="100.047008547"/>
      <point x="-105.875" y="100.047008547" type="curve"/>
      <point x="-140.961886226" y="100.047008547"/>
      <point x="-167.048640493" y="94.5264221709"/>
      <point x="-199.375" y="79.7136039886" type="curve"/>
    </contour>
  </outline>
</glyph>
<glyph name="dvmUU" format="1">
  <advance width="0"/>
  <unicode hex="0942"/>
  <outline>
    <contour>
      <point x="180.625" y="-250.6375"/>
      <point x="57.125" y="-300.3625"/>
      <point x="180.625" y="-250.6375" type="curve"/>
      <point x="120.221341508" y="-84.7968320717"/>
      <point x="37.4118887836" y="53.25"/>
      <point x="-130.5" y="53.25" type="curve"/>
      <point x="-245.314750167" y="53.25"/>
      <point x="-322" y="-29.2960843653"/>
      <point x="-322" y="-145" type="curve"/>
      <point x="-322" y="-265.053499231"/>
      <point x="-253.650811335" y="-357.25"/>
      <point x="-138.625" y="-357.25" type="curve"/>
      <point x="-102.372404755" y="-357.25"/>
      <point x="-73.6156682793" y="-354.263343656"/>
      <point x="-42.25" y="-336.9875" type="curve"/>
      <point x="-94.25" y="-232.0125"/>
      <point x="-42.25" y="-336.9875"/>
      <point x="-94.25" y="-232.0125" type="curve"/>
      <point x="-106.614602699" y="-240.134854074"/>
      <point x="-117.442872991" y="-246.75"/>
      <point x="-132.125" y="-246.75" type="curve"/>
      <point x="-176.246561572" y="-246.75"/>
      <point x="-188" y="-196"/>
      <point x="-188" y="-145" type="curve"/>
      <point x="-188" y="-99"/>
      <point x="-170.309342688" y="-57.25"/>
      <point x="-130.5" y="-57.25" type="curve"/>
      <point x="-26" y="-57"/>
      <point x="15.4461086963" y="-181.655446852"/>
      <point x="57.125" y="-300.3625" type="curve"/>
    </contour>
  </outline>
</glyph>
<glyph name="dvmE" format="1">
  <advance width="0"/>
  <unicode hex="0947"/>
  <outline>
    <contour>
      <point x="-398" y="873"/>
      <point x="-448" y="977"/>
      <point x="-398" y="873" type="curve"/>
      <point x="-374" y="883"/>
      <point x="-352.380744714" y="890.819017094"/>
      <point x="-330.375" y="890.819017094" type="curve"/>
      <point x="-232" y="891"/>
      <point x="-208.255107673" y="762.60998074"/>
      <point x="-164.75" y="646.690669516" type="curve"/>
      <point x="-34.75" y="679.840669516"/>
      <point x="-164.75" y="646.690669516"/>
      <point x="-34.75" y="679.840669516" type="curve"/>
      <point x="-97.3967531812" y="849.076977524"/>
      <point x="-139.098636569" y="1012.36901709"/>
      <point x="-310.875" y="1012.36901709" type="curve"/>
      <point x="-359.076354514" y="1012.36901709"/>
      <point x="-405.06019132" y="998.810631389"/>
      <point x="-448.125" y="977.227207977" type="curve"/>
    </contour>
  </outline>
</glyph>
<glyph name="dvmAI" format="1">
  <advance width="-1"/>
  <unicode hex="0948"/>
  <outline>
    <contour>
      <point x="-261.5" y="749.429558405"/>
      <point x="-326.5" y="848.879558405"/>
      <point x="-261.5" y="749.429558405" type="curve"/>
      <point x="-252.892593655" y="756.621129817"/>
      <point x="-242.180492653" y="761.898789174"/>
      <point x="-230.75" y="761.898789174" type="curve"/>
      <point x="-159.612929728" y="761.898789174"/>
      <point x="-122.53436231" y="697.592340428"/>
      <point x="-95.875" y="649.017628205" type="curve"/>
      <point x="27.625" y="676.642628205"/>
      <point x="-95.875" y="649.017628205"/>
      <point x="27.625" y="676.642628205" type="curve"/>
      <point x="-27.9712675006" y="786.821977891"/>
      <point x="-88.5778263563" y="883.448789174"/>
      <point x="-217.75" y="883.448789174" type="curve"/>
      <point x="-256.704682315" y="883.448789174"/>
      <point x="-295.920002907" y="873.394081384"/>
      <point x="-326.5" y="848.879558405" type="curve"/>
    </contour>
    <contour>
      <point x="-228.5" y="890.54494302"/>
      <point x="-293.5" y="989.99494302"/>
      <point x="-228.5" y="890.54494302" type="curve"/>
      <point x="-220.363170156" y="896.842427797"/>
      <point x="-211.10453417" y="903.88525641"/>
      <point x="-200" y="903.88525641" type="curve"/>
      <point x="-83.5692058855" y="903.88525641"/>
      <point x="-118.526433496" y="741.765705581"/>
      <point x="-95.875" y="649.017628205" type="curve"/>
      <point x="27.625" y="676.642628205"/>
      <point x="-95.875" y="649.017628205"/>
      <point x="27.625" y="676.642628205" type="curve"/>
      <point x="-10.0272408667" y="851.814555961"/>
      <point x="-25.8645776347" y="1025.43525641"/>
      <point x="-187" y="1025.43525641" type="curve"/>
      <point x="-225.931479004" y="1025.43525641"/>
      <point x="-262.544577391" y="1013.55929243"/>
      <point x="-293.5" y="989.99494302" type="curve"/>
    </contour>
  </outline>
</glyph>
